<svg width="9950" height="3801" viewBox="0 0 9950 3801" fill="none" xmlns="http://www.w3.org/2000/svg">
<rect width="9950" height="3801" fill="white"/>
<mask id="path-1-outside-1_2956_299" maskUnits="userSpaceOnUse" x="4080" y="1625" width="2622" height="550" fill="black">
<rect fill="white" x="4080" y="1625" width="2622" height="550"/>
<path d="M4368.07 1979.31C4376.66 1979.31 4381.82 1987.9 4381.82 1994.2C4381.82 1998.78 4380.1 2003.36 4376.66 2009.08C4357.75 2038.86 4305.04 2074.36 4235.13 2074.36C4146.89 2074.36 4081 2014.81 4081 1922.05C4081 1826.99 4154.92 1765.15 4239.15 1765.15C4321.08 1765.15 4370.36 1823.55 4370.36 1879.67C4370.36 1896.28 4365.2 1899.14 4354.89 1902.58L4182.99 1955.26C4200.76 1991.33 4233.42 2017.67 4275.24 2017.67C4303.89 2017.67 4327.39 2006.79 4348.59 1989.04C4357.75 1982.17 4362.34 1979.31 4368.07 1979.31ZM4227.11 1808.67C4192.73 1808.67 4168.09 1839.59 4168.09 1889.98C4168.09 1899.14 4168.67 1908.3 4170.39 1916.89L4268.94 1884.83C4278.11 1881.96 4282.69 1877.38 4282.69 1867.07C4282.69 1840.73 4259.77 1808.67 4227.11 1808.67Z"/>
<path d="M4708.22 1774.88C4718.53 1774.88 4726.55 1780.61 4726.55 1789.77C4726.55 1811.53 4697.91 1804.09 4682.43 1841.31L4598.2 2041.72C4591.9 2057.18 4586.17 2067.49 4552.37 2067.49C4519.7 2067.49 4513.4 2058.9 4505.95 2041.72L4421.15 1841.88C4404.53 1802.94 4377.6 1811.53 4377.6 1789.77C4377.6 1780.61 4385.63 1774.88 4395.94 1774.88C4410.84 1774.88 4429.17 1776.6 4460.11 1776.6C4489.34 1776.6 4506.53 1774.88 4521.42 1774.88C4536.32 1774.88 4543.77 1780.61 4543.77 1790.34C4543.77 1811.53 4515.12 1805.8 4515.12 1832.14C4515.12 1840.73 4518.56 1851.61 4524.86 1867.07L4572.99 1991.91L4621.12 1867.07C4628 1850.47 4631.44 1840.16 4631.44 1830.43C4631.44 1808.09 4601.64 1811.53 4601.64 1790.34C4601.64 1780.61 4609.09 1774.88 4623.42 1774.88C4634.88 1774.88 4649.77 1776.6 4664.67 1776.6C4679.57 1776.6 4696.19 1774.88 4708.22 1774.88Z"/>
<path d="M5009.06 1979.31C5017.65 1979.31 5022.81 1987.9 5022.81 1994.2C5022.81 1998.78 5021.09 2003.36 5017.65 2009.08C4998.74 2038.86 4946.03 2074.36 4876.12 2074.36C4787.88 2074.36 4721.99 2014.81 4721.99 1922.05C4721.99 1826.99 4795.9 1765.15 4880.13 1765.15C4962.07 1765.15 5011.35 1823.55 5011.35 1879.67C5011.35 1896.28 5006.19 1899.14 4995.88 1902.58L4823.98 1955.26C4841.74 1991.33 4874.4 2017.67 4916.23 2017.67C4944.88 2017.67 4968.37 2006.79 4989.58 1989.04C4998.74 1982.17 5003.33 1979.31 5009.06 1979.31ZM4868.1 1808.67C4833.72 1808.67 4809.08 1839.59 4809.08 1889.98C4809.08 1899.14 4809.66 1908.3 4811.38 1916.89L4909.93 1884.83C4919.1 1881.96 4923.68 1877.38 4923.68 1867.07C4923.68 1840.73 4900.76 1808.67 4868.1 1808.67Z"/>
<path d="M5267.07 1769.73C5299.16 1769.73 5320.36 1788.05 5320.36 1808.67C5320.36 1824.7 5312.91 1845.89 5300.87 1874.52C5296.29 1885.97 5289.99 1892.84 5280.25 1892.84C5271.08 1892.84 5265.35 1885.4 5260.77 1876.24C5250.45 1855.62 5240.71 1843.6 5225.24 1843.6C5202.89 1843.6 5167.94 1873.95 5167.94 1943.23V1995.91C5167.94 2038.29 5209.2 2023.4 5209.2 2048.6C5209.2 2056.04 5203.47 2064.63 5189.71 2064.63C5174.82 2064.63 5157.05 2062.91 5124.97 2062.91C5096.32 2062.91 5081.42 2064.63 5067.67 2064.63C5053.92 2064.63 5048.19 2056.61 5048.19 2048.6C5048.19 2025.69 5081.99 2038.29 5081.99 1995.91V1875.09C5081.99 1838.44 5044.18 1854.48 5044.18 1829.28C5044.18 1816.68 5058.5 1808.67 5099.18 1790.92C5137 1773.74 5143.88 1772.02 5150.18 1772.02C5163.93 1772.02 5167.94 1783.47 5167.94 1799.5V1846.46C5185.13 1802.94 5225.81 1769.73 5267.07 1769.73Z"/>
<path d="M5651.8 1774.88C5662.11 1774.88 5670.13 1780.61 5670.13 1789.77C5670.13 1810.38 5642.06 1804.09 5622 1850.47L5525.16 2078.37C5499.38 2139.07 5462.14 2174 5412.86 2174C5391.09 2174 5372.75 2168.27 5365.87 2159.68C5355.56 2146.51 5342.95 2104.71 5342.95 2082.95C5342.95 2070.93 5349.83 2061.77 5359 2061.77C5365.3 2061.77 5369.88 2064.63 5375.61 2072.07C5397.39 2102.42 5411.14 2114.45 5430.05 2114.45C5448.38 2114.45 5461.56 2095.55 5474.17 2067.49L5368.74 1851.04C5346.39 1804.66 5320.61 1810.38 5320.61 1789.77C5320.61 1780.61 5328.63 1774.88 5338.94 1774.88C5353.84 1774.88 5372.75 1776.6 5403.69 1776.6C5432.91 1776.6 5450.1 1774.88 5465 1774.88C5479.9 1774.88 5487.35 1780.61 5487.35 1790.34C5487.35 1811.53 5458.7 1805.8 5458.7 1832.14C5458.7 1840.73 5462.14 1851.61 5468.44 1867.07L5520.01 1981.03L5565.85 1867.07C5572.72 1850.47 5576.16 1840.16 5576.16 1830.43C5576.16 1808.09 5546.37 1811.53 5546.37 1790.34C5546.37 1780.61 5553.81 1774.88 5568.14 1774.88C5579.6 1774.88 5593.92 1776.6 5609.39 1776.6C5624.29 1776.6 5639.76 1774.88 5651.8 1774.88Z"/>
<path d="M5988.15 1971.86C5988.15 2007.94 6027.68 1997.63 6027.68 2021.11C6027.68 2034.85 6013.36 2041.72 5969.81 2056.04C5934.28 2068.64 5925.69 2070.36 5919.96 2070.36C5903.92 2070.36 5902.2 2053.75 5902.2 2042.3V2015.96C5881 2047.45 5845.47 2072.07 5796.77 2072.07C5725.14 2072.07 5666.7 2017.67 5666.7 1924.91C5666.7 1833.29 5732.59 1767.44 5819.11 1767.44C5854.07 1767.44 5882.14 1778.32 5902.2 1795.5V1726.78C5902.2 1690.13 5858.08 1707.89 5858.08 1680.97C5858.08 1668.37 5872.4 1660.93 5917.1 1642.61C5955.49 1627.15 5964.65 1626 5970.38 1626C5984.71 1626 5988.15 1638.6 5988.15 1653.49V1971.86ZM5836.3 2011.95C5871.83 2011.95 5902.2 1981.03 5902.2 1931.78V1911.74C5902.2 1853.9 5865.53 1810.96 5824.27 1810.96C5784.16 1810.96 5757.8 1844.74 5757.8 1900.29C5757.8 1969 5796.77 2011.95 5836.3 2011.95Z"/>
<path d="M6373.12 2013.09C6379.43 2014.24 6384.01 2018.25 6384.01 2024.55C6384.01 2040.58 6357.65 2067.49 6312.39 2067.49C6286.6 2067.49 6263.11 2054.32 6250.5 2028.55C6228.73 2049.74 6192.06 2069.78 6144.5 2069.78C6081.47 2069.78 6042.51 2033.13 6042.51 1981.6C6042.51 1929.49 6085.48 1888.26 6162.84 1888.26C6189.19 1888.26 6210.39 1892.27 6227.58 1897.42L6227.01 1891.12C6220.14 1842.45 6197.79 1823.55 6165.13 1823.55C6139.92 1823.55 6119.29 1833.29 6100.95 1845.31C6092.93 1849.9 6085.48 1853.9 6079.18 1853.9C6072.3 1853.9 6064.28 1848.18 6064.28 1837.87C6064.28 1827.56 6074.02 1816.68 6082.62 1809.24C6105.54 1786.91 6145.07 1769.16 6193.2 1769.16C6264.83 1769.16 6301.5 1805.8 6310.09 1868.79L6323.27 1962.7C6328.43 2000.5 6341.61 2006.79 6373.12 2013.09ZM6181.17 2019.96C6205.24 2019.96 6228.73 2006.79 6240.76 1993.62L6232.74 1933.5C6220.71 1929.49 6205.81 1927.2 6190.34 1927.2C6154.24 1927.2 6131.32 1942.66 6131.32 1971.86C6131.32 2001.07 6152.52 2019.96 6181.17 2019.96Z"/>
<path d="M6682.66 1774.88C6692.98 1774.88 6701 1780.61 6701 1789.77C6701 1810.38 6672.92 1804.09 6652.87 1850.47L6556.03 2078.37C6530.25 2139.07 6493 2174 6443.73 2174C6421.95 2174 6403.62 2168.27 6396.74 2159.68C6386.43 2146.51 6373.82 2104.71 6373.82 2082.95C6373.82 2070.93 6380.7 2061.77 6389.87 2061.77C6396.17 2061.77 6400.75 2064.63 6406.48 2072.07C6428.26 2102.42 6442.01 2114.45 6460.92 2114.45C6479.25 2114.45 6492.43 2095.55 6505.04 2067.49L6399.61 1851.04C6377.26 1804.66 6351.48 1810.38 6351.48 1789.77C6351.48 1780.61 6359.5 1774.88 6369.81 1774.88C6384.71 1774.88 6403.62 1776.6 6434.56 1776.6C6463.78 1776.6 6480.97 1774.88 6495.87 1774.88C6510.77 1774.88 6518.22 1780.61 6518.22 1790.34C6518.22 1811.53 6489.57 1805.8 6489.57 1832.14C6489.57 1840.73 6493 1851.61 6499.31 1867.07L6550.88 1981.03L6596.72 1867.07C6603.59 1850.47 6607.03 1840.16 6607.03 1830.43C6607.03 1808.09 6577.23 1811.53 6577.23 1790.34C6577.23 1780.61 6584.68 1774.88 6599.01 1774.88C6610.47 1774.88 6624.79 1776.6 6640.26 1776.6C6655.16 1776.6 6670.63 1774.88 6682.66 1774.88Z"/>
</mask>
<path d="M4368.07 1979.31C4376.66 1979.31 4381.82 1987.9 4381.82 1994.2C4381.82 1998.78 4380.1 2003.36 4376.66 2009.08C4357.75 2038.86 4305.04 2074.36 4235.13 2074.36C4146.89 2074.36 4081 2014.81 4081 1922.05C4081 1826.99 4154.92 1765.15 4239.15 1765.15C4321.08 1765.15 4370.36 1823.55 4370.36 1879.67C4370.36 1896.28 4365.2 1899.14 4354.89 1902.58L4182.99 1955.26C4200.76 1991.33 4233.42 2017.67 4275.24 2017.67C4303.89 2017.67 4327.39 2006.79 4348.59 1989.04C4357.75 1982.17 4362.34 1979.31 4368.07 1979.31ZM4227.11 1808.67C4192.73 1808.67 4168.09 1839.59 4168.09 1889.98C4168.09 1899.14 4168.67 1908.3 4170.39 1916.89L4268.94 1884.83C4278.11 1881.96 4282.69 1877.38 4282.69 1867.07C4282.69 1840.73 4259.77 1808.67 4227.11 1808.67Z" fill="black"/>
<path d="M4708.22 1774.88C4718.53 1774.88 4726.55 1780.61 4726.55 1789.77C4726.55 1811.53 4697.91 1804.09 4682.43 1841.31L4598.2 2041.72C4591.9 2057.18 4586.17 2067.49 4552.37 2067.49C4519.7 2067.49 4513.4 2058.9 4505.95 2041.72L4421.15 1841.88C4404.53 1802.94 4377.6 1811.53 4377.6 1789.77C4377.6 1780.61 4385.63 1774.88 4395.94 1774.88C4410.84 1774.88 4429.17 1776.6 4460.11 1776.6C4489.34 1776.6 4506.53 1774.88 4521.42 1774.88C4536.32 1774.88 4543.77 1780.61 4543.77 1790.34C4543.77 1811.53 4515.12 1805.8 4515.12 1832.14C4515.12 1840.73 4518.56 1851.61 4524.86 1867.07L4572.99 1991.91L4621.12 1867.07C4628 1850.47 4631.44 1840.16 4631.44 1830.43C4631.44 1808.09 4601.64 1811.53 4601.64 1790.34C4601.64 1780.61 4609.09 1774.88 4623.42 1774.88C4634.88 1774.88 4649.77 1776.6 4664.67 1776.6C4679.57 1776.6 4696.19 1774.88 4708.22 1774.88Z" fill="black"/>
<path d="M5009.06 1979.31C5017.65 1979.31 5022.81 1987.9 5022.81 1994.2C5022.81 1998.78 5021.09 2003.36 5017.65 2009.08C4998.74 2038.86 4946.03 2074.36 4876.12 2074.36C4787.88 2074.36 4721.99 2014.81 4721.99 1922.05C4721.99 1826.99 4795.9 1765.15 4880.13 1765.15C4962.07 1765.15 5011.35 1823.55 5011.35 1879.67C5011.35 1896.28 5006.19 1899.14 4995.88 1902.58L4823.98 1955.26C4841.74 1991.33 4874.4 2017.67 4916.23 2017.67C4944.88 2017.67 4968.37 2006.79 4989.58 1989.04C4998.74 1982.17 5003.33 1979.31 5009.06 1979.31ZM4868.1 1808.67C4833.72 1808.67 4809.08 1839.59 4809.08 1889.98C4809.08 1899.14 4809.66 1908.3 4811.38 1916.89L4909.93 1884.83C4919.1 1881.96 4923.68 1877.38 4923.68 1867.07C4923.68 1840.73 4900.76 1808.67 4868.1 1808.67Z" fill="black"/>
<path d="M5267.07 1769.73C5299.16 1769.73 5320.36 1788.05 5320.36 1808.67C5320.36 1824.7 5312.91 1845.89 5300.87 1874.52C5296.29 1885.97 5289.99 1892.84 5280.25 1892.84C5271.08 1892.84 5265.35 1885.4 5260.77 1876.24C5250.45 1855.62 5240.71 1843.6 5225.24 1843.6C5202.89 1843.6 5167.94 1873.95 5167.94 1943.23V1995.91C5167.94 2038.29 5209.2 2023.4 5209.2 2048.6C5209.2 2056.04 5203.47 2064.63 5189.71 2064.63C5174.82 2064.63 5157.05 2062.91 5124.97 2062.91C5096.32 2062.91 5081.42 2064.63 5067.67 2064.63C5053.92 2064.63 5048.19 2056.61 5048.19 2048.6C5048.19 2025.69 5081.99 2038.29 5081.99 1995.91V1875.09C5081.99 1838.44 5044.18 1854.48 5044.18 1829.28C5044.18 1816.68 5058.5 1808.67 5099.18 1790.92C5137 1773.74 5143.88 1772.02 5150.18 1772.02C5163.93 1772.02 5167.94 1783.47 5167.94 1799.5V1846.46C5185.13 1802.94 5225.81 1769.73 5267.07 1769.73Z" fill="black"/>
<path d="M5651.8 1774.88C5662.11 1774.88 5670.13 1780.61 5670.13 1789.77C5670.13 1810.38 5642.06 1804.09 5622 1850.47L5525.16 2078.37C5499.38 2139.07 5462.14 2174 5412.86 2174C5391.09 2174 5372.75 2168.27 5365.87 2159.68C5355.56 2146.51 5342.95 2104.71 5342.95 2082.95C5342.95 2070.93 5349.83 2061.77 5359 2061.77C5365.3 2061.77 5369.88 2064.63 5375.61 2072.07C5397.39 2102.42 5411.14 2114.45 5430.05 2114.45C5448.38 2114.45 5461.56 2095.55 5474.17 2067.49L5368.74 1851.04C5346.39 1804.66 5320.61 1810.38 5320.61 1789.77C5320.61 1780.61 5328.63 1774.88 5338.94 1774.88C5353.84 1774.88 5372.75 1776.6 5403.69 1776.6C5432.91 1776.6 5450.1 1774.88 5465 1774.88C5479.9 1774.88 5487.35 1780.61 5487.35 1790.34C5487.35 1811.53 5458.7 1805.8 5458.7 1832.14C5458.7 1840.73 5462.14 1851.61 5468.44 1867.07L5520.01 1981.03L5565.85 1867.07C5572.72 1850.47 5576.16 1840.16 5576.16 1830.43C5576.16 1808.09 5546.37 1811.53 5546.37 1790.34C5546.37 1780.61 5553.81 1774.88 5568.14 1774.88C5579.6 1774.88 5593.92 1776.6 5609.39 1776.6C5624.29 1776.6 5639.76 1774.88 5651.8 1774.88Z" fill="black"/>
<path d="M5988.15 1971.86C5988.15 2007.94 6027.68 1997.63 6027.68 2021.11C6027.68 2034.85 6013.36 2041.72 5969.81 2056.04C5934.28 2068.64 5925.69 2070.36 5919.96 2070.36C5903.92 2070.36 5902.2 2053.75 5902.2 2042.3V2015.96C5881 2047.45 5845.47 2072.07 5796.77 2072.07C5725.14 2072.07 5666.7 2017.67 5666.7 1924.91C5666.7 1833.29 5732.59 1767.44 5819.11 1767.44C5854.07 1767.44 5882.14 1778.32 5902.2 1795.5V1726.78C5902.2 1690.13 5858.08 1707.89 5858.08 1680.97C5858.08 1668.37 5872.4 1660.93 5917.1 1642.61C5955.49 1627.15 5964.65 1626 5970.38 1626C5984.71 1626 5988.15 1638.6 5988.15 1653.49V1971.86ZM5836.3 2011.95C5871.83 2011.95 5902.2 1981.03 5902.2 1931.78V1911.74C5902.2 1853.9 5865.53 1810.96 5824.27 1810.96C5784.16 1810.96 5757.8 1844.74 5757.8 1900.29C5757.8 1969 5796.77 2011.95 5836.3 2011.95Z" fill="black"/>
<path d="M6373.12 2013.09C6379.43 2014.24 6384.01 2018.25 6384.01 2024.55C6384.01 2040.58 6357.65 2067.49 6312.39 2067.49C6286.6 2067.49 6263.11 2054.32 6250.5 2028.55C6228.73 2049.74 6192.06 2069.78 6144.5 2069.78C6081.47 2069.78 6042.51 2033.13 6042.51 1981.6C6042.51 1929.49 6085.48 1888.26 6162.84 1888.26C6189.19 1888.26 6210.39 1892.27 6227.58 1897.42L6227.01 1891.12C6220.14 1842.45 6197.79 1823.55 6165.13 1823.55C6139.92 1823.55 6119.29 1833.29 6100.95 1845.31C6092.93 1849.9 6085.48 1853.9 6079.18 1853.9C6072.3 1853.9 6064.28 1848.18 6064.28 1837.87C6064.28 1827.56 6074.02 1816.68 6082.62 1809.24C6105.54 1786.91 6145.07 1769.16 6193.2 1769.16C6264.83 1769.16 6301.5 1805.8 6310.09 1868.79L6323.27 1962.7C6328.43 2000.5 6341.61 2006.79 6373.12 2013.09ZM6181.17 2019.96C6205.24 2019.96 6228.73 2006.79 6240.76 1993.62L6232.74 1933.5C6220.71 1929.49 6205.81 1927.2 6190.34 1927.2C6154.24 1927.2 6131.32 1942.66 6131.32 1971.86C6131.32 2001.07 6152.52 2019.96 6181.17 2019.96Z" fill="black"/>
<path d="M6682.66 1774.88C6692.98 1774.88 6701 1780.61 6701 1789.77C6701 1810.38 6672.92 1804.09 6652.87 1850.47L6556.03 2078.37C6530.25 2139.07 6493 2174 6443.73 2174C6421.95 2174 6403.62 2168.27 6396.74 2159.68C6386.43 2146.51 6373.82 2104.71 6373.82 2082.95C6373.82 2070.93 6380.7 2061.77 6389.87 2061.77C6396.17 2061.77 6400.75 2064.63 6406.48 2072.07C6428.26 2102.42 6442.01 2114.45 6460.92 2114.45C6479.25 2114.45 6492.43 2095.55 6505.04 2067.49L6399.61 1851.04C6377.26 1804.66 6351.48 1810.38 6351.48 1789.77C6351.48 1780.61 6359.5 1774.88 6369.81 1774.88C6384.71 1774.88 6403.62 1776.6 6434.56 1776.6C6463.78 1776.6 6480.97 1774.88 6495.87 1774.88C6510.77 1774.88 6518.22 1780.61 6518.22 1790.34C6518.22 1811.53 6489.57 1805.8 6489.57 1832.14C6489.57 1840.73 6493 1851.61 6499.31 1867.07L6550.88 1981.03L6596.72 1867.07C6603.59 1850.47 6607.03 1840.16 6607.03 1830.43C6607.03 1808.09 6577.23 1811.53 6577.23 1790.34C6577.23 1780.61 6584.68 1774.88 6599.01 1774.88C6610.47 1774.88 6624.79 1776.6 6640.26 1776.6C6655.16 1776.6 6670.63 1774.88 6682.66 1774.88Z" fill="black"/>
<path d="M4368.07 1979.31C4376.66 1979.31 4381.82 1987.9 4381.82 1994.2C4381.82 1998.78 4380.1 2003.36 4376.66 2009.08C4357.75 2038.86 4305.04 2074.36 4235.13 2074.36C4146.89 2074.36 4081 2014.81 4081 1922.05C4081 1826.99 4154.92 1765.15 4239.15 1765.15C4321.08 1765.15 4370.36 1823.55 4370.36 1879.67C4370.36 1896.28 4365.2 1899.14 4354.89 1902.58L4182.99 1955.26C4200.76 1991.33 4233.42 2017.67 4275.24 2017.67C4303.89 2017.67 4327.39 2006.79 4348.59 1989.04C4357.75 1982.17 4362.34 1979.31 4368.07 1979.31ZM4227.11 1808.67C4192.73 1808.67 4168.09 1839.59 4168.09 1889.98C4168.09 1899.14 4168.67 1908.3 4170.39 1916.89L4268.94 1884.83C4278.11 1881.96 4282.69 1877.38 4282.69 1867.07C4282.69 1840.73 4259.77 1808.67 4227.11 1808.67Z" stroke="black" stroke-width="2" mask="url(#path-1-outside-1_2956_299)"/>
<path d="M4708.22 1774.88C4718.53 1774.88 4726.55 1780.61 4726.55 1789.77C4726.55 1811.53 4697.91 1804.09 4682.43 1841.31L4598.2 2041.72C4591.9 2057.18 4586.17 2067.49 4552.37 2067.49C4519.7 2067.49 4513.4 2058.9 4505.95 2041.72L4421.15 1841.88C4404.53 1802.94 4377.6 1811.53 4377.6 1789.77C4377.6 1780.61 4385.63 1774.88 4395.94 1774.88C4410.84 1774.88 4429.17 1776.6 4460.11 1776.6C4489.34 1776.6 4506.53 1774.88 4521.42 1774.88C4536.32 1774.88 4543.77 1780.61 4543.77 1790.34C4543.77 1811.53 4515.12 1805.8 4515.12 1832.14C4515.12 1840.73 4518.56 1851.61 4524.86 1867.07L4572.99 1991.91L4621.12 1867.07C4628 1850.47 4631.44 1840.16 4631.44 1830.43C4631.44 1808.09 4601.64 1811.53 4601.64 1790.34C4601.64 1780.61 4609.09 1774.88 4623.42 1774.88C4634.88 1774.88 4649.77 1776.6 4664.67 1776.6C4679.57 1776.6 4696.19 1774.88 4708.22 1774.88Z" stroke="black" stroke-width="2" mask="url(#path-1-outside-1_2956_299)"/>
<path d="M5009.06 1979.31C5017.65 1979.31 5022.81 1987.9 5022.81 1994.2C5022.81 1998.78 5021.09 2003.36 5017.65 2009.08C4998.74 2038.86 4946.03 2074.36 4876.12 2074.36C4787.88 2074.36 4721.99 2014.81 4721.99 1922.05C4721.99 1826.99 4795.9 1765.15 4880.13 1765.15C4962.07 1765.15 5011.35 1823.55 5011.35 1879.67C5011.35 1896.28 5006.19 1899.14 4995.88 1902.58L4823.98 1955.26C4841.74 1991.33 4874.4 2017.67 4916.23 2017.67C4944.88 2017.67 4968.37 2006.79 4989.58 1989.04C4998.74 1982.17 5003.33 1979.31 5009.06 1979.31ZM4868.1 1808.67C4833.72 1808.67 4809.08 1839.59 4809.08 1889.98C4809.08 1899.14 4809.66 1908.3 4811.38 1916.89L4909.93 1884.83C4919.1 1881.96 4923.68 1877.38 4923.68 1867.07C4923.68 1840.73 4900.76 1808.67 4868.1 1808.67Z" stroke="black" stroke-width="2" mask="url(#path-1-outside-1_2956_299)"/>
<path d="M5267.07 1769.73C5299.16 1769.73 5320.36 1788.05 5320.36 1808.67C5320.36 1824.7 5312.91 1845.89 5300.87 1874.52C5296.29 1885.97 5289.99 1892.84 5280.25 1892.84C5271.08 1892.84 5265.35 1885.4 5260.77 1876.24C5250.45 1855.62 5240.71 1843.6 5225.24 1843.6C5202.89 1843.6 5167.94 1873.95 5167.94 1943.23V1995.91C5167.94 2038.29 5209.2 2023.4 5209.2 2048.6C5209.2 2056.04 5203.47 2064.63 5189.71 2064.63C5174.82 2064.63 5157.05 2062.91 5124.97 2062.91C5096.32 2062.91 5081.42 2064.63 5067.67 2064.63C5053.92 2064.63 5048.19 2056.61 5048.19 2048.6C5048.19 2025.69 5081.99 2038.29 5081.99 1995.91V1875.09C5081.99 1838.44 5044.18 1854.48 5044.18 1829.28C5044.18 1816.68 5058.5 1808.67 5099.18 1790.92C5137 1773.74 5143.88 1772.02 5150.18 1772.02C5163.93 1772.02 5167.94 1783.47 5167.94 1799.5V1846.46C5185.13 1802.94 5225.81 1769.73 5267.07 1769.73Z" stroke="black" stroke-width="2" mask="url(#path-1-outside-1_2956_299)"/>
<path d="M5651.8 1774.88C5662.11 1774.88 5670.13 1780.61 5670.13 1789.77C5670.13 1810.38 5642.06 1804.09 5622 1850.47L5525.16 2078.37C5499.38 2139.07 5462.14 2174 5412.86 2174C5391.09 2174 5372.75 2168.27 5365.87 2159.68C5355.56 2146.51 5342.95 2104.71 5342.95 2082.95C5342.95 2070.93 5349.83 2061.77 5359 2061.77C5365.3 2061.77 5369.88 2064.63 5375.61 2072.07C5397.39 2102.42 5411.14 2114.45 5430.05 2114.45C5448.38 2114.45 5461.56 2095.55 5474.17 2067.49L5368.74 1851.04C5346.39 1804.66 5320.61 1810.38 5320.61 1789.77C5320.61 1780.61 5328.63 1774.88 5338.94 1774.88C5353.84 1774.88 5372.75 1776.6 5403.69 1776.6C5432.91 1776.6 5450.1 1774.88 5465 1774.88C5479.9 1774.88 5487.35 1780.61 5487.35 1790.34C5487.35 1811.53 5458.7 1805.8 5458.7 1832.14C5458.7 1840.73 5462.14 1851.61 5468.44 1867.07L5520.01 1981.03L5565.85 1867.07C5572.72 1850.47 5576.16 1840.16 5576.16 1830.43C5576.16 1808.09 5546.37 1811.53 5546.37 1790.34C5546.37 1780.61 5553.81 1774.88 5568.14 1774.88C5579.6 1774.88 5593.92 1776.6 5609.39 1776.6C5624.29 1776.6 5639.76 1774.88 5651.8 1774.88Z" stroke="black" stroke-width="2" mask="url(#path-1-outside-1_2956_299)"/>
<path d="M5988.15 1971.86C5988.15 2007.94 6027.68 1997.63 6027.68 2021.11C6027.68 2034.85 6013.36 2041.72 5969.81 2056.04C5934.28 2068.64 5925.69 2070.36 5919.96 2070.36C5903.92 2070.36 5902.2 2053.75 5902.2 2042.3V2015.96C5881 2047.45 5845.47 2072.07 5796.77 2072.07C5725.14 2072.07 5666.7 2017.67 5666.7 1924.91C5666.7 1833.29 5732.59 1767.44 5819.11 1767.44C5854.07 1767.44 5882.14 1778.32 5902.2 1795.5V1726.78C5902.2 1690.13 5858.08 1707.89 5858.08 1680.97C5858.08 1668.37 5872.4 1660.93 5917.1 1642.61C5955.49 1627.15 5964.65 1626 5970.38 1626C5984.71 1626 5988.15 1638.6 5988.15 1653.49V1971.86ZM5836.3 2011.95C5871.83 2011.95 5902.2 1981.03 5902.2 1931.78V1911.74C5902.2 1853.9 5865.53 1810.96 5824.27 1810.96C5784.16 1810.96 5757.8 1844.74 5757.8 1900.29C5757.8 1969 5796.77 2011.95 5836.3 2011.95Z" stroke="black" stroke-width="2" mask="url(#path-1-outside-1_2956_299)"/>
<path d="M6373.12 2013.09C6379.43 2014.24 6384.01 2018.25 6384.01 2024.55C6384.01 2040.58 6357.65 2067.49 6312.39 2067.49C6286.6 2067.49 6263.11 2054.32 6250.5 2028.55C6228.73 2049.74 6192.06 2069.78 6144.5 2069.78C6081.47 2069.78 6042.51 2033.13 6042.51 1981.6C6042.51 1929.49 6085.48 1888.26 6162.84 1888.26C6189.19 1888.26 6210.39 1892.27 6227.58 1897.42L6227.01 1891.12C6220.14 1842.45 6197.79 1823.55 6165.13 1823.55C6139.92 1823.55 6119.29 1833.29 6100.95 1845.31C6092.93 1849.9 6085.48 1853.9 6079.18 1853.9C6072.3 1853.9 6064.28 1848.18 6064.28 1837.87C6064.28 1827.56 6074.02 1816.68 6082.62 1809.24C6105.54 1786.91 6145.07 1769.16 6193.2 1769.16C6264.83 1769.16 6301.5 1805.8 6310.09 1868.79L6323.27 1962.7C6328.43 2000.5 6341.61 2006.79 6373.12 2013.09ZM6181.17 2019.96C6205.24 2019.96 6228.73 2006.79 6240.76 1993.62L6232.74 1933.5C6220.71 1929.49 6205.81 1927.2 6190.34 1927.2C6154.24 1927.2 6131.32 1942.66 6131.32 1971.86C6131.32 2001.07 6152.52 2019.96 6181.17 2019.96Z" stroke="black" stroke-width="2" mask="url(#path-1-outside-1_2956_299)"/>
<path d="M6682.66 1774.88C6692.98 1774.88 6701 1780.61 6701 1789.77C6701 1810.38 6672.92 1804.09 6652.87 1850.47L6556.03 2078.37C6530.25 2139.07 6493 2174 6443.73 2174C6421.95 2174 6403.62 2168.27 6396.74 2159.68C6386.43 2146.51 6373.82 2104.71 6373.82 2082.95C6373.82 2070.93 6380.7 2061.77 6389.87 2061.77C6396.17 2061.77 6400.75 2064.63 6406.48 2072.07C6428.26 2102.42 6442.01 2114.45 6460.92 2114.45C6479.25 2114.45 6492.43 2095.55 6505.04 2067.49L6399.61 1851.04C6377.26 1804.66 6351.48 1810.38 6351.48 1789.77C6351.48 1780.61 6359.5 1774.88 6369.81 1774.88C6384.71 1774.88 6403.62 1776.6 6434.56 1776.6C6463.78 1776.6 6480.97 1774.88 6495.87 1774.88C6510.77 1774.88 6518.22 1780.61 6518.22 1790.34C6518.22 1811.53 6489.57 1805.8 6489.57 1832.14C6489.57 1840.73 6493 1851.61 6499.31 1867.07L6550.88 1981.03L6596.72 1867.07C6603.59 1850.47 6607.03 1840.16 6607.03 1830.43C6607.03 1808.09 6577.23 1811.53 6577.23 1790.34C6577.23 1780.61 6584.68 1774.88 6599.01 1774.88C6610.47 1774.88 6624.79 1776.6 6640.26 1776.6C6655.16 1776.6 6670.63 1774.88 6682.66 1774.88Z" stroke="black" stroke-width="2" mask="url(#path-1-outside-1_2956_299)"/>
<path d="M3764.51 1680.49C3772.56 1680.78 3780.24 1684.94 3784.54 1693.48C3784.65 1693.75 3785.31 1695.48 3785.96 1697.21C3786.3 1698.1 3786.63 1698.99 3786.89 1699.68C3787.01 1700.02 3787.12 1700.32 3787.2 1700.54C3787.23 1700.65 3787.27 1700.74 3787.29 1700.8L3787.32 1700.89C3788.32 1706.16 3786.88 1711.94 3784.47 1717.59C3782.34 1722.59 3779.48 1727.43 3776.97 1731.64V1731.55L3776.04 1733.13C3764.47 1752.72 3751.33 1772.72 3738.67 1793C3736.43 1796.55 3734.35 1800.81 3732.07 1804.8C3729.77 1808.82 3727.24 1812.63 3724.04 1815.46C3717.63 1821.14 3710.32 1822.2 3705.77 1822.12C3703.56 1822.08 3699.98 1821 3696.45 1819.37C3692.93 1817.73 3689.57 1815.6 3687.78 1813.53C3685.98 1811.45 3684.35 1808.14 3683.17 1804.78C3682 1801.44 3681.3 1798.11 3681.29 1795.96C3683.36 1785.38 3689.06 1776.75 3692.38 1771.02C3700.83 1756.44 3710.64 1742.05 3719.69 1727.6L3721.49 1724.71C3724.76 1719.41 3728 1713.26 3731.38 1707.3C3734.56 1701.69 3737.87 1696.22 3741.48 1691.67L3742.21 1690.78C3747.98 1683.78 3756.43 1680.19 3764.51 1680.49Z" fill="black" stroke="black"/>
<path d="M3402.64 1685.6C3410.49 1681.23 3423.24 1681.39 3432.17 1689.18V1689.18C3442.52 1698.3 3446.43 1707.53 3453.67 1718.69L3453.67 1718.69C3464 1734.45 3474.66 1749.66 3484.81 1765.6L3486.83 1768.8C3489.58 1773.17 3493.48 1778.86 3496.46 1784.79C3499.45 1790.74 3501.45 1796.82 3500.49 1801.94V1801.94C3500.3 1803.03 3499.74 1804.43 3498.94 1805.99C3498.13 1807.55 3497.09 1809.22 3495.94 1810.85C3493.64 1814.11 3490.95 1817.09 3488.97 1818.4C3486.71 1819.86 3482.51 1820.93 3478.16 1821.42C3473.82 1821.92 3469.48 1821.83 3466.97 1821.07C3465.94 1820.76 3465.28 1820.52 3464.88 1820.34C3464.89 1820.34 3464.89 1820.34 3464.89 1820.33C3464.93 1820.31 3465.04 1820.26 3465.12 1820.17C3465.17 1820.11 3465.23 1820.02 3465.25 1819.89C3465.27 1819.75 3465.24 1819.63 3465.18 1819.54C3465.1 1819.38 3464.95 1819.31 3464.9 1819.28L3464.88 1819.27L3464.86 1819.26L3464.24 1819.01C3457.89 1816.38 3453.74 1812.02 3450.26 1806.9C3448.47 1804.25 3446.86 1801.41 3445.22 1798.5C3443.59 1795.6 3441.93 1792.63 3440.03 1789.76C3430.51 1775.27 3420.68 1761.15 3411.59 1746.76L3411.59 1746.76C3408.88 1742.51 3404.19 1735.73 3399.97 1728.85C3397.87 1725.42 3395.89 1721.99 3394.35 1718.86C3392.81 1715.73 3391.74 1712.95 3391.4 1710.81C3390.71 1706.5 3391.56 1701.28 3393.57 1696.58C3395.59 1691.88 3398.76 1687.77 3402.64 1685.6Z" fill="black" stroke="black"/>
<path d="M3587.81 1627.05C3595.96 1625.24 3604.76 1627.78 3611.39 1636.33L3611.31 1636.41L3611.58 1636.76C3613.78 1639.61 3615.79 1642.92 3616.77 1646.69L3616.6 1770.18C3608.38 1792.19 3575.81 1791.57 3567.81 1769.52V1644.34C3571.9 1635.17 3579.55 1628.87 3587.81 1627.05Z" fill="black" stroke="black"/>
<path d="M3870.97 1814.59C3875.62 1813.03 3880.18 1812.43 3884.6 1813.47C3889.01 1814.5 3893.34 1817.18 3897.5 1822.28V1822.28C3904.17 1830.48 3906.82 1841.66 3900.75 1851.01L3900.45 1851.45C3897.21 1856.19 3891.36 1860.36 3885.06 1864.03C3881.92 1865.86 3878.68 1867.55 3875.63 1869.12C3872.58 1870.69 3869.7 1872.13 3867.29 1873.46C3857.69 1878.76 3844.42 1885.35 3833.47 1891.24V1891.24C3829.46 1893.4 3825.51 1895.91 3821.56 1898.3C3817.61 1900.69 3813.66 1902.97 3809.63 1904.7C3801.59 1908.16 3793.27 1909.43 3784.05 1905.04H3784.05C3780.82 1903.51 3777.36 1900.71 3774.59 1897.33C3771.81 1893.95 3769.76 1890.05 3769.28 1886.33C3768.8 1882.64 3770.31 1877.82 3773 1873.18C3775.59 1868.7 3779.24 1864.49 3783.08 1861.75L3783.46 1861.49C3799.8 1850.35 3824.29 1839.47 3842.79 1829.6C3847.41 1827.13 3852.15 1824.14 3856.86 1821.41C3861.59 1818.66 3866.31 1816.15 3870.97 1814.59Z" fill="black" stroke="black"/>
<path d="M3304.07 1813.69C3310.45 1813.61 3315.7 1815.54 3320.73 1818.23C3323.25 1819.57 3325.71 1821.1 3328.24 1822.67C3330.76 1824.23 3333.34 1825.83 3336.08 1827.28C3338.81 1828.73 3340.37 1829.5 3341.2 1829.86C3341.41 1829.95 3341.58 1830.01 3341.72 1830.06C3341.83 1830.1 3341.99 1830.14 3342.13 1830.14C3342.19 1830.13 3342.4 1830.12 3342.55 1829.93C3342.56 1829.92 3342.56 1829.91 3342.57 1829.9C3353.81 1836.01 3366.45 1843.53 3377.76 1849.77C3380.77 1851.44 3384.39 1853.1 3388.12 1854.92C3391.87 1856.75 3395.76 1858.74 3399.36 1861.07C3406.57 1865.73 3412.57 1871.71 3414.06 1880.35C3415.57 1889.04 3412.91 1896.14 3408.18 1901.05C3403.44 1905.97 3396.61 1908.71 3389.75 1908.63C3383.3 1908.55 3376.5 1905.81 3369.84 1902.27C3366.52 1900.5 3363.24 1898.55 3360.07 1896.64C3356.9 1894.74 3353.83 1892.88 3350.95 1891.32L3350.8 1891.6L3350.87 1891.46L3350.95 1891.32C3333.78 1882.12 3312.34 1872.39 3295.31 1862.14H3295.31C3293.01 1860.73 3289.49 1857.57 3286.43 1854.07C3284.9 1852.33 3283.5 1850.51 3282.42 1848.81C3281.41 1847.2 3280.71 1845.73 3280.45 1844.53L3280.41 1844.29C3279.76 1840.18 3280.57 1834.75 3282.42 1829.74C3284.27 1824.72 3287.14 1820.22 3290.53 1817.91C3294.04 1815.52 3296.06 1814.5 3297.87 1814.06C3299.69 1813.61 3301.29 1813.74 3304.07 1813.69L3304.07 1813.69Z" fill="black" stroke="black"/>
<path d="M3590.42 2027.87C3689.63 2028.15 3787.93 2052.3 3909.9 2096.85C3930.54 2104.39 3941.15 2127.22 3933.62 2147.86C3926.08 2168.49 3903.24 2179.11 3882.61 2171.58C3764.45 2128.42 3676.12 2107.67 3590.19 2107.42C3504.44 2107.18 3417.77 2127.36 3303.03 2171.35C3282.52 2179.22 3259.51 2168.97 3251.65 2148.45C3243.78 2127.94 3254.03 2104.94 3274.55 2097.07C3394.03 2051.26 3491.03 2027.59 3590.42 2027.87Z" fill="black"/>
<mask id="path-8-inside-2_2956_299" fill="white">
<path d="M3590.16 1827.81C3619.1 1827.47 3647.76 1833.93 3674.05 1846.72C3700.34 1859.51 3723.6 1878.31 3742.15 1901.76C3760.7 1925.21 3774.08 1952.71 3781.31 1982.29C3788.54 2011.86 3789.45 2042.76 3783.96 2072.75L3719.57 2059.64C3723.21 2039.73 3722.61 2019.21 3717.81 1999.57C3713 1979.94 3704.12 1961.67 3691.81 1946.1C3679.49 1930.54 3664.04 1918.05 3646.58 1909.56C3629.13 1901.07 3610.1 1896.78 3590.88 1897C3571.66 1897.23 3552.73 1901.96 3535.46 1910.86C3518.18 1919.76 3503 1932.6 3491.01 1948.45C3479.02 1964.3 3470.53 1982.77 3466.14 2002.51C3461.75 2022.26 3461.58 2042.78 3465.63 2062.61L3401.53 2077.22C3395.42 2047.36 3395.68 2016.45 3402.29 1986.71C3408.9 1956.97 3421.69 1929.16 3439.75 1905.29C3457.81 1881.41 3480.67 1862.08 3506.68 1848.68C3532.7 1835.28 3561.21 1828.15 3590.16 1827.81Z"/>
</mask>
<path d="M3590.16 1827.81C3619.1 1827.47 3647.76 1833.93 3674.05 1846.72C3700.34 1859.51 3723.6 1878.31 3742.15 1901.76C3760.7 1925.21 3774.08 1952.71 3781.31 1982.29C3788.54 2011.86 3789.45 2042.76 3783.96 2072.75L3719.57 2059.64C3723.21 2039.73 3722.61 2019.21 3717.81 1999.57C3713 1979.94 3704.12 1961.67 3691.81 1946.1C3679.49 1930.54 3664.04 1918.05 3646.58 1909.56C3629.13 1901.07 3610.1 1896.78 3590.88 1897C3571.66 1897.23 3552.73 1901.96 3535.46 1910.86C3518.18 1919.76 3503 1932.6 3491.01 1948.45C3479.02 1964.3 3470.53 1982.77 3466.14 2002.51C3461.75 2022.26 3461.58 2042.78 3465.63 2062.61L3401.53 2077.22C3395.42 2047.36 3395.68 2016.45 3402.29 1986.71C3408.9 1956.97 3421.69 1929.16 3439.75 1905.29C3457.81 1881.41 3480.67 1862.08 3506.68 1848.68C3532.7 1835.28 3561.21 1828.15 3590.16 1827.81Z" fill="black"/>
<path d="M3590.16 1827.81L3589.33 1756.82H3589.33L3590.16 1827.81ZM3674.05 1846.72L3705.11 1782.88L3705.11 1782.88L3674.05 1846.72ZM3742.15 1901.76L3797.83 1857.7L3797.83 1857.7L3742.15 1901.76ZM3781.31 1982.29L3850.28 1965.42L3850.28 1965.42L3781.31 1982.29ZM3783.96 2072.75L3769.8 2142.33L3840.77 2156.78L3853.8 2085.53L3783.96 2072.75ZM3719.57 2059.64L3649.73 2046.87L3637.21 2115.33L3705.4 2129.22L3719.57 2059.64ZM3717.81 1999.57L3786.77 1982.71V1982.71L3717.81 1999.57ZM3691.81 1946.1L3747.48 1902.05L3747.48 1902.05L3691.81 1946.1ZM3646.58 1909.56L3677.65 1845.72L3677.65 1845.72L3646.58 1909.56ZM3590.88 1897L3590.05 1826.01L3590.05 1826.01L3590.88 1897ZM3535.46 1910.86L3502.94 1847.74L3502.94 1847.74L3535.46 1910.86ZM3491.01 1948.45L3434.39 1905.62L3434.39 1905.62L3491.01 1948.45ZM3466.14 2002.51L3396.83 1987.1L3396.83 1987.1L3466.14 2002.51ZM3465.63 2062.61L3481.41 2131.83L3549.12 2116.4L3535.19 2048.37L3465.63 2062.61ZM3401.53 2077.22L3331.97 2091.46L3346.53 2162.57L3417.31 2146.44L3401.53 2077.22ZM3402.29 1986.71L3332.98 1971.3L3332.98 1971.3L3402.29 1986.71ZM3439.75 1905.29L3383.12 1862.46L3383.12 1862.46L3439.75 1905.29ZM3506.68 1848.68L3474.17 1785.56L3474.17 1785.56L3506.68 1848.68ZM3590.16 1827.81L3590.98 1898.81C3608.78 1898.6 3626.52 1902.56 3642.99 1910.57L3674.05 1846.72L3705.11 1782.88C3668.99 1765.31 3629.43 1756.35 3589.33 1756.82L3590.16 1827.81ZM3674.05 1846.72L3642.99 1910.57C3659.46 1918.59 3674.38 1930.53 3686.47 1945.82L3742.15 1901.76L3797.83 1857.7C3772.82 1826.09 3741.21 1800.44 3705.11 1782.88L3674.05 1846.72ZM3742.15 1901.76L3686.47 1945.82C3698.57 1961.11 3707.49 1979.31 3712.34 1999.15L3781.31 1982.29L3850.28 1965.42C3840.67 1926.12 3822.83 1889.3 3797.83 1857.7L3742.15 1901.76ZM3781.31 1982.29L3712.34 1999.15C3717.2 2019.01 3717.81 2039.81 3714.12 2059.98L3783.96 2072.75L3853.8 2085.53C3861.08 2045.72 3859.89 2004.72 3850.28 1965.42L3781.31 1982.29ZM3783.96 2072.75L3798.13 2003.18L3733.73 1990.07L3719.57 2059.64L3705.4 2129.22L3769.8 2142.33L3783.96 2072.75ZM3719.57 2059.64L3789.41 2072.42C3794.85 2042.69 3793.95 2012.07 3786.77 1982.71L3717.81 1999.57L3648.84 2016.44C3651.26 2026.36 3651.57 2036.78 3649.73 2046.87L3719.57 2059.64ZM3717.81 1999.57L3786.77 1982.71C3779.59 1953.35 3766.25 1925.77 3747.48 1902.05L3691.81 1946.1L3636.13 1990.16C3641.99 1997.57 3646.41 2006.53 3648.84 2016.44L3717.81 1999.57ZM3691.81 1946.1L3747.48 1902.05C3728.71 1878.32 3704.91 1858.98 3677.65 1845.72L3646.58 1909.56L3615.52 1973.41C3623.17 1977.12 3630.27 1982.76 3636.13 1990.16L3691.81 1946.1ZM3646.58 1909.56L3677.65 1845.72C3650.36 1832.44 3620.43 1825.65 3590.05 1826.01L3590.88 1897L3591.71 1968C3599.78 1967.9 3607.9 1969.7 3615.52 1973.41L3646.58 1909.56ZM3590.88 1897L3590.05 1826.01C3559.68 1826.36 3529.91 1833.85 3502.94 1847.74L3535.46 1910.86L3567.97 1973.98C3575.55 1970.07 3583.64 1968.09 3591.71 1968L3590.88 1897ZM3535.46 1910.86L3502.94 1847.74C3475.99 1861.62 3452.64 1881.48 3434.39 1905.62L3491.01 1948.45L3547.64 1991.28C3553.37 1983.71 3560.37 1977.89 3567.97 1973.98L3535.46 1910.86ZM3491.01 1948.45L3434.39 1905.62C3416.14 1929.74 3403.39 1957.6 3396.83 1987.1L3466.14 2002.51L3535.45 2017.92C3537.66 2007.94 3541.91 1998.86 3547.64 1991.28L3491.01 1948.45ZM3466.14 2002.51L3396.83 1987.1C3390.27 2016.61 3390.02 2047.24 3396.08 2076.85L3465.63 2062.61L3535.19 2048.37C3533.14 2038.33 3533.23 2027.91 3535.45 2017.92L3466.14 2002.51ZM3465.63 2062.61L3449.86 1993.38L3385.75 2007.99L3401.53 2077.22L3417.31 2146.44L3481.41 2131.83L3465.63 2062.61ZM3401.53 2077.22L3471.09 2062.98C3466.98 2042.91 3467.15 2022.09 3471.6 2002.12L3402.29 1986.71L3332.98 1971.3C3324.2 2010.8 3323.86 2051.82 3331.97 2091.46L3401.53 2077.22ZM3402.29 1986.71L3471.6 2002.12C3476.04 1982.15 3484.58 1963.72 3496.38 1948.12L3439.75 1905.29L3383.12 1862.46C3358.81 1894.61 3341.76 1931.8 3332.98 1971.3L3402.29 1986.71ZM3439.75 1905.29L3496.38 1948.12C3508.17 1932.53 3522.86 1920.21 3539.2 1911.8L3506.68 1848.68L3474.17 1785.56C3438.48 1803.94 3407.44 1830.3 3383.12 1862.46L3439.75 1905.29ZM3506.68 1848.68L3539.2 1911.8C3555.51 1903.39 3573.19 1899.02 3590.98 1898.81L3590.16 1827.81L3589.33 1756.82C3549.23 1757.29 3509.88 1767.16 3474.17 1785.56L3506.68 1848.68Z" fill="black" mask="url(#path-8-inside-2_2956_299)"/>
</svg>
