<svg width="624" height="624" viewBox="0 0 624 624" fill="none" xmlns="http://www.w3.org/2000/svg">
<rect x="45.1953" y="44" width="527" height="492" fill="black"/>
<path fill-rule="evenodd" clip-rule="evenodd" d="M524 0C579.228 0 624 44.7715 624 100V524C624 579.228 579.228 624 524 624H100C44.7715 624 1.80416e-06 579.228 0 524V100C0 44.7715 44.7715 1.80394e-06 100 0H524ZM516.071 388.822C509.346 376.247 493.192 371.223 479.992 377.601C424.217 404.547 360.69 418.868 293.621 416.732C239.876 415.018 189.123 402.903 143.369 382.504C129.944 376.519 113.982 382.015 107.718 394.781C101.454 407.547 107.259 422.749 120.685 428.734C172.903 452.016 230.785 465.813 291.925 467.763C368.251 470.193 440.719 453.879 504.348 423.139C517.548 416.761 522.797 401.397 516.071 388.822ZM516.328 280.353C510.547 267.328 495.297 261.454 482.267 267.232L436.259 287.633C423.228 293.411 417.351 308.654 423.132 321.678C428.913 334.702 444.162 340.576 457.192 334.798L503.201 314.397C516.232 308.619 522.109 293.377 516.328 280.353ZM140.992 267.587C127.891 261.971 112.714 268.033 107.096 281.128C101.477 294.223 107.543 309.391 120.645 315.007L166.902 334.836C180.004 340.452 195.179 334.389 200.798 321.294C206.416 308.199 200.35 293.031 187.249 287.415L140.992 267.587ZM228.214 198.888C220.778 186.732 204.89 182.903 192.729 190.335C180.566 197.768 176.736 213.648 184.172 225.804L210.428 268.725C217.864 280.88 233.751 284.71 245.913 277.277C258.075 269.845 261.906 253.965 254.47 241.809L228.214 198.888ZM428.065 189.786C415.815 182.501 399.974 186.522 392.686 198.767L366.95 242.001C359.661 254.246 363.684 270.079 375.935 277.364C388.185 284.649 404.026 280.629 411.314 268.384L437.05 225.149C444.339 212.904 440.316 197.071 428.065 189.786ZM310.805 156C296.55 156 284.993 167.551 284.993 181.799V232.106C284.993 246.355 296.55 257.905 310.805 257.905C325.06 257.905 336.616 246.355 336.616 232.106V181.799C336.616 167.551 325.06 156 310.805 156Z" fill="white"/>
</svg>
