<?xml version="1.0" encoding="UTF-8"?>
<svg version="1.1" xmlns="http://www.w3.org/2000/svg" width="1764" height="1764">
<path d="M0 0 C582.12 0 1164.24 0 1764 0 C1764 582.12 1764 1164.24 1764 1764 C1181.88 1764 599.76 1764 0 1764 C0 1181.88 0 599.76 0 0 Z " fill="#000000" transform="translate(0,0)"/>
<path d="M0 0 C9.57 0 19.14 0 29 0 C28.99887207 4.43397217 28.99774414 8.86794434 28.99658203 13.4362793 C28.99721201 28.15250325 29.03051889 42.86852278 29.0802784 57.58465862 C29.10963648 66.49945313 29.12814793 75.41401168 29.12011719 84.32885742 C29.11313714 92.10912288 29.12753441 99.88902233 29.16643608 107.66919833 C29.18627354 111.77973977 29.19619967 115.88970857 29.18042374 120.00028038 C29.09656981 144.51480011 31.5882046 165.40704509 44 187 C44.58910156 188.02738281 45.17820312 189.05476562 45.78515625 190.11328125 C59.65237242 212.95154388 82.67336839 226.22190287 107.92578125 233.1171875 C125.7507295 237.39952263 147.01388677 235.55676265 164 229 C164.62471191 228.76152344 165.24942383 228.52304687 165.89306641 228.27734375 C192.05133986 218.11779963 210.84852992 199.5658451 222.14794922 174.03662109 C228.60275523 158.60797018 230.29048395 142.95724037 230.31884766 126.35375977 C230.32817941 124.96239664 230.3383527 123.57103894 230.34928894 122.1796875 C230.37623792 118.45549931 230.39163213 114.73134813 230.40471697 111.0070889 C230.42050385 107.09533591 230.44724311 103.18365692 230.4727478 99.2719574 C230.51926341 91.88825595 230.55613789 84.50454015 230.58942068 77.12076849 C230.62783619 68.70457333 230.67719443 60.28845301 230.72740483 51.87232125 C230.83031913 34.58159648 230.91826547 17.29083983 231 0 C240.57 0 250.14 0 260 0 C260.02187378 6.59935547 260.02187378 6.59935547 260.04418945 13.33203125 C260.09464682 27.90856287 260.16111395 42.48498954 260.23571491 57.06141663 C260.28053452 65.89444784 260.31998044 74.72743998 260.34643555 83.56054688 C260.36952836 91.26634168 260.40305048 98.97201137 260.44870156 106.67770672 C260.47248289 110.75159701 260.49130983 114.82536457 260.49761391 118.89932251 C260.50373398 122.74731293 260.5239774 126.59498993 260.55427551 130.44286346 C260.56294646 131.8422705 260.56680157 133.24171868 260.56500816 134.64115143 C260.55342474 147.87097394 261.8934511 161.21058423 267.75 173.25 C268.10288086 174.00249023 268.45576172 174.75498047 268.81933594 175.53027344 C269.85320762 177.70112529 270.9180629 179.85277098 272 182 C272.5465625 183.093125 273.093125 184.18625 273.65625 185.3125 C280.20817852 197.38860356 289.68589527 208.20244134 301 216 C302.44246094 216.99580078 302.44246094 216.99580078 303.9140625 218.01171875 C327.4515597 233.34321507 355.41512291 238.52015401 383 233 C399.00468161 228.95601625 413.40843443 221.69453121 426 211 C426.73605469 210.40832031 427.47210937 209.81664062 428.23046875 209.20703125 C445.38676152 194.88551319 456.15323286 172.71504141 460 151 C460.40987112 145.88714136 460.43875389 140.78887675 460.43237305 135.6628418 C460.44141371 134.17325033 460.45174648 132.68366623 460.46325684 131.1940918 C460.49058288 127.19290284 460.50007773 123.19185594 460.50611091 119.19058585 C460.51555885 114.99319682 460.54176687 110.7959113 460.56611633 106.59858704 C460.60960977 98.66940566 460.63826167 90.74024457 460.66143972 82.81098062 C460.68858394 73.77572438 460.73248935 64.74057317 460.77772844 55.70539224 C460.87032874 37.13697008 460.93990973 18.56855779 461 0 C472.22 0 483.44 0 495 0 C495.02187378 6.36430298 495.02187378 6.36430298 495.04418945 12.85717773 C495.09467242 26.92280644 495.16114435 40.98832668 495.23571491 55.05384731 C495.28051236 63.57633152 495.31996314 72.09877543 495.34643555 80.62133789 C495.36954659 88.05723028 495.40308827 95.49299341 495.44870156 102.928783 C495.47245882 106.85906491 495.49130127 110.78922022 495.49761391 114.71957207 C495.38232686 142.70108531 495.38232686 142.70108531 502.1875 169.6875 C502.64141113 170.87110107 502.64141113 170.87110107 503.10449219 172.07861328 C513.33515559 197.9170595 532.41188316 216.60538771 557.82861328 227.62402344 C572.0165263 233.45989647 586.3503982 235.13586395 601.57617188 235.20532227 C602.93694343 235.21491681 604.2977121 235.22492778 605.65847778 235.23532104 C609.33142207 235.26220557 613.004379 235.28330349 616.67736626 235.30332303 C620.52374409 235.32528487 624.37008373 235.35262337 628.21643066 235.37937927 C635.49058296 235.42916895 642.76475661 235.47415833 650.03895044 235.51740164 C658.32437235 235.56689179 666.6097559 235.621766 674.89514065 235.67708123 C691.93005959 235.79069041 708.96501394 235.89686418 726 236 C726 245.57 726 255.14 726 265 C719.3333313 265.00616333 719.3333313 265.00616333 712.53198242 265.01245117 C697.79180118 265.02970475 683.05179137 265.07405126 668.31171703 265.13209057 C659.38120536 265.16660179 650.45084582 265.19207775 641.52026367 265.19555664 C633.72759176 265.19861598 625.93519175 265.21936818 618.14262468 265.26052457 C614.02439287 265.28167942 609.90654587 265.29454686 605.78825951 265.28615379 C572.50168794 265.22987482 544.05762621 270.85926153 519.5625 295 C511.69524644 303.03586493 506.08130386 312.0208838 501 322 C500.5565625 322.83917969 500.113125 323.67835938 499.65625 324.54296875 C492.96016464 338.03721394 491.61063286 351.32651759 491.5 366.125 C491.48433487 367.13329361 491.48433487 367.13329361 491.46835327 368.16195679 C491.14435809 394.9084724 503.61763702 420.02642707 522 439 C543.03617593 459.00433819 570.65667898 466.07863817 598.96508789 466.20532227 C600.35556314 466.21491926 601.74603558 466.22493036 603.13650513 466.23532104 C606.88583451 466.26217908 610.63517624 466.28329109 614.38454747 466.30332303 C618.31233122 466.3253015 622.24007777 466.35263175 626.16783142 466.37937927 C633.59423961 466.42914672 641.02066862 466.47414421 648.44711727 466.51740164 C656.90668174 466.56691096 665.36620885 466.62177797 673.82573712 466.67708123 C691.21712484 466.79065623 708.60854716 466.89684077 726 467 C726 476.57 726 486.14 726 496 C721.61501221 496.01981934 717.23002441 496.03963867 712.7121582 496.06005859 C698.19948726 496.12706352 683.68688659 496.20460415 669.17429829 496.28752708 C660.37817922 496.3375312 651.58206891 496.38397494 642.78588867 496.421875 C635.1142079 496.45493914 627.44259759 496.49484867 619.77099484 496.54279006 C615.7134305 496.56791253 611.65591204 496.58973486 607.5982914 496.60334396 C603.76924938 496.61629499 599.94036586 496.63848577 596.11141205 496.66738319 C594.71557786 496.6763582 593.31971822 496.68212522 591.92385674 496.68421364 C563.78765553 496.73379282 540.22933208 506.32002678 520 526 C499.84875247 546.38249135 491.55415322 570.88467647 491.70898438 599.03051758 C492.06746354 625.35052263 502.17731321 650.22976032 521 669 C540.90031569 687.21966366 564.4376563 696.46620762 591.35888672 696.43237305 C592.83877364 696.44141657 594.31865314 696.45175 595.79852295 696.46325684 C599.76866217 696.49054947 603.73865823 696.50007305 607.70887899 696.50611091 C611.87556595 696.51556778 616.04214895 696.54177634 620.20877075 696.56611633 C628.07771156 696.60958564 635.94663196 696.63825223 643.81565583 696.66143972 C652.78322225 696.68859705 661.75068309 696.73250153 670.71817374 696.77772844 C689.14540697 696.87029409 707.57263033 696.9398927 726 697 C726 706.57 726 716.14 726 726 C719.86289429 726.02187378 719.86289429 726.02187378 713.60180664 726.04418945 C700.03509785 726.09468271 686.46850602 726.16115652 672.90190983 726.23571491 C664.68209689 726.28050349 656.46232564 726.31995619 648.24243164 726.34643555 C641.07022507 726.3695539 633.89815234 726.4031034 626.72605222 726.44870156 C622.93549807 726.47244919 619.14507492 726.49129782 615.35444832 726.49761391 C583.3371644 726.55808098 554.8120325 730.04938673 530 752 C528.88431641 752.86625 528.88431641 752.86625 527.74609375 753.75 C508.76751377 768.96002474 498.78967444 794.55579682 496 818 C495.7227501 822.89964472 495.68930722 827.78785635 495.68115234 832.69458008 C495.67182715 834.1152044 495.66165475 835.53582338 495.65071106 836.95643616 C495.62368854 840.76958307 495.60834524 844.58269365 495.59528303 848.3959105 C495.57952938 852.39709476 495.55277899 856.39820608 495.5272522 860.39933777 C495.48067904 867.95664454 495.44383189 875.51396537 495.41057932 883.07134122 C495.37220518 891.68337427 495.32283569 900.29533368 495.27259517 908.90730441 C495.16959497 926.60482171 495.0816829 944.30237058 495 962 C483.78 962 472.56 962 461 962 C460.9906543 957.50955078 460.98130859 953.01910156 460.97167969 948.39257812 C460.93783516 933.51667907 460.88244316 918.64091699 460.81609726 903.76512909 C460.77641323 894.75048046 460.74396701 885.73591778 460.72900391 876.72119141 C460.71593193 868.85715931 460.6888272 860.99331719 460.64538693 853.12939215 C460.62289586 848.97162752 460.60708181 844.81409611 460.60811615 840.65626526 C460.60887016 836.72940842 460.59062765 832.80306467 460.55883217 828.87634087 C460.55042914 827.44790939 460.5485165 826.0194197 460.55419731 824.59097481 C460.6444725 798.3637892 449.97723781 775.79886659 432 757 C431.44957031 756.38640625 430.89914062 755.7728125 430.33203125 755.140625 C418.45840581 742.35815415 401.58214619 734.42488537 385 730 C384.24976563 729.78601562 383.49953125 729.57203125 382.7265625 729.3515625 C357.93150169 722.58927319 330.87454218 728.43931574 308.87988281 740.87011719 C291.67614735 751.21023247 279.03250202 766.23607935 270 784 C269.5565625 784.85078125 269.113125 785.7015625 268.65625 786.578125 C262.34406797 799.43342254 260.39762511 812.47667679 260.45410156 826.67773438 C260.44533613 828.16777102 260.43484021 829.65779831 260.42277527 831.14781189 C260.39525727 835.13648365 260.39150288 839.12484316 260.39249516 843.11359596 C260.38933616 847.30297215 260.36365683 851.49221369 260.34051514 855.68151855 C260.30017786 863.58936957 260.27966725 871.49713859 260.26654124 879.4050765 C260.25059511 888.41865009 260.21214807 897.43208563 260.17194796 906.44557858 C260.08985425 924.96369991 260.03854096 943.48173327 260 962 C250.43 962 240.86 962 231 962 C230.9906543 957.74254883 230.98130859 953.48509766 230.97167969 949.09863281 C230.93778251 934.96914782 230.88236043 920.83980624 230.81609726 906.71043777 C230.77647328 898.1510313 230.74399704 889.59171456 230.72900391 881.03222656 C230.7159003 873.56221923 230.68871724 866.09241071 230.64538693 858.62251544 C230.62296547 854.67589028 230.6070775 850.72950851 230.60811615 846.78281403 C230.60722062 810.08975392 224.71566948 780.37549322 197.84936523 753.40600586 C192.17526957 747.95099407 185.80212591 743.90417878 179 740 C178.14792969 739.50886719 177.29585937 739.01773438 176.41796875 738.51171875 C161.41818515 730.4770088 145.6580082 727.57512843 128.8125 727.625 C128.12269043 727.62554382 127.43288086 727.62608765 126.72216797 727.62664795 C116.54718715 727.66359521 107.56179825 728.23358435 98 732 C96.72475434 732.45406474 95.44867341 732.90578875 94.171875 733.35546875 C69.08090129 742.49078912 49.56801275 761.61470784 38.125 785.5 C34.79374819 792.75037158 32.74230119 800.22521513 31 808 C30.73491685 809.14420174 30.73491685 809.14420174 30.46447849 810.31151867 C29.94174621 813.33718292 29.85989168 816.18693961 29.84178162 819.25788879 C29.8319928 820.51847107 29.82220398 821.77905334 29.81211853 823.07783508 C29.80621513 824.46701012 29.80040464 825.85618555 29.79467773 827.24536133 C29.7850934 828.71406323 29.77508299 830.18276241 29.76467896 831.65145874 C29.73768398 835.63242318 29.7166452 839.61339941 29.69667697 843.59440446 C29.674784 847.75710581 29.64741153 851.91977105 29.62062073 856.08244324 C29.57073858 863.96230967 29.52578316 871.8421962 29.48259836 879.72210187 C29.43318769 888.69425958 29.37828378 897.66638104 29.32291877 906.63850367 C29.20916746 925.09230361 29.10303868 943.54613692 29 962 C19.43 962 9.86 962 0 962 C-0.01981934 957.76647705 -0.03963867 953.5329541 -0.06005859 949.17114258 C-0.12707329 935.15739414 -0.20461388 921.14371839 -0.28752708 907.13005543 C-0.33752408 898.63660777 -0.38396782 890.14316914 -0.421875 881.6496582 C-0.45494664 874.2416643 -0.49486011 866.83374326 -0.54279006 859.42583007 C-0.5679052 855.50799426 -0.58972956 851.59020584 -0.60334396 847.67231178 C-0.61630182 843.97459113 -0.63849941 840.27703428 -0.66738319 836.57940483 C-0.6805867 834.59595804 -0.68435373 832.61245521 -0.68769836 830.62896729 C-0.79023308 819.49069992 -1.97515671 808.68910444 -5.625 798.125 C-5.88442383 797.36743408 -6.14384766 796.60986816 -6.41113281 795.8293457 C-15.75844843 769.58601569 -34.61271612 749.22374763 -59.48364258 736.82348633 C-65.09708923 734.19544829 -70.86678238 732.29190344 -76.8125 730.5625 C-77.65941406 730.31540283 -78.50632812 730.06830566 -79.37890625 729.8137207 C-90.07596484 726.90172057 -100.89306918 726.84540018 -111.91674805 726.79467773 C-113.27796204 726.78507409 -114.6391732 726.77506266 -116.00038147 726.76467896 C-119.66075209 726.73789271 -123.32113527 726.71674273 -126.98154807 726.69667697 C-130.81990009 726.67465318 -134.65821461 726.6473455 -138.49653625 726.62062073 C-145.74933941 726.57091361 -153.00216362 726.52589422 -160.25500757 726.48259836 C-168.51873359 726.43303685 -176.78242196 726.37818951 -185.04611146 726.32291877 C-202.03070737 726.20943662 -219.01533818 726.10322299 -236 726 C-236 716.43 -236 706.86 -236 697 C-231.50431396 696.9906543 -227.00862793 696.98130859 -222.37670898 696.97167969 C-207.4888289 696.93784567 -192.60108584 696.88245974 -177.71331692 696.81609726 C-168.6907925 696.77640119 -159.66835411 696.74396103 -150.64575195 696.72900391 C-142.77550348 696.71593824 -134.90544505 696.68884928 -127.03530365 696.64538693 C-122.87365844 696.62288188 -118.71224666 696.60708267 -114.5505352 696.60811615 C-110.62121885 696.60886932 -106.69241634 696.59065962 -102.76323318 696.55883217 C-101.33276914 696.55041878 -99.90224687 696.54852386 -98.47176933 696.55419731 C-72.70307559 696.64266569 -48.65066508 685.4970157 -30 668 C-15.89462419 653.78593128 -8.43734056 637.05988013 -3 618 C-2.71125 616.99582031 -2.4225 615.99164062 -2.125 614.95703125 C3.11666571 592.06114422 -2.56282637 566.07541298 -14.10546875 546.0078125 C-23.94854652 530.3806581 -35.97366995 518.10251234 -52 509 C-52.97453125 508.43667969 -53.9490625 507.87335938 -54.953125 507.29296875 C-66.96892774 500.80903148 -80.79523644 496.92305297 -94.46043396 496.84178162 C-96.34281013 496.82709839 -96.34281013 496.82709839 -98.26321411 496.81211853 C-99.63568077 496.80621595 -101.00814783 496.8004054 -102.38061523 496.79467773 C-103.83976003 496.78508766 -105.29890212 496.77507693 -106.75804138 496.76467896 C-110.70376459 496.73774614 -114.64949961 496.71667399 -118.59526324 496.69667697 C-122.72458701 496.67474534 -126.85387484 496.6473919 -130.98316956 496.62062073 C-138.79567911 496.57079058 -146.60820872 496.52581602 -154.42075735 496.48259836 C-163.317993 496.43314306 -172.21519256 496.37825579 -181.11239326 496.32291877 C-199.40823011 496.20924737 -217.70410028 496.10309323 -236 496 C-236 486.43 -236 476.86 -236 467 C-231.74254883 466.9906543 -227.48509766 466.98130859 -223.09863281 466.97167969 C-208.96914782 466.93778251 -194.83980624 466.88236043 -180.71043777 466.81609726 C-172.1510313 466.77647328 -163.59171456 466.74399704 -155.03222656 466.72900391 C-147.56221923 466.7159003 -140.09241071 466.68871724 -132.62251544 466.64538693 C-128.67589028 466.62296547 -124.72950851 466.6070775 -120.78281403 466.60811615 C-90.63727247 466.6868142 -90.63727247 466.6868142 -61.9375 458.1875 C-60.7626001 457.66603394 -60.7626001 457.66603394 -59.56396484 457.1340332 C-34.56337155 445.76800835 -16.56446005 425.56370697 -6.625 400.125 C2.29396504 375.70730888 0.95011409 348.84233932 -9 325 C-20.79959735 299.73912658 -40.94464804 281.2457757 -66.9765625 271.453125 C-79.26075744 267.1103053 -90.75755583 265.70047313 -103.74291992 265.68115234 C-105.19280545 265.67183343 -106.6426857 265.66166191 -108.09255981 265.65071106 C-111.99466545 265.62361797 -115.89673541 265.60832372 -119.7989099 265.59528303 C-123.88952544 265.57956103 -127.98006909 265.55280016 -132.07063293 265.5272522 C-139.80154502 265.48062393 -147.53247087 265.44380306 -155.26345092 265.41057932 C-164.0713219 265.37224463 -172.87912038 265.32286451 -181.68693006 265.27259517 C-199.79123963 265.1695128 -217.89558013 265.08163365 -236 265 C-236 255.43 -236 245.86 -236 236 C-231.78742432 235.98541748 -227.57484863 235.97083496 -223.23461914 235.95581055 C-209.26877478 235.90532558 -195.30303965 235.83885329 -181.33730412 235.76428509 C-172.87535416 235.71948936 -164.41344477 235.68003821 -155.95141602 235.65356445 C-148.56826081 235.63045199 -141.18523575 235.59690879 -133.80218405 235.55129844 C-129.89984769 235.52754305 -125.99763879 235.5086994 -122.09523201 235.50238609 C-86.32588559 235.43692866 -56.17233809 230.08153472 -29.6875 204.0625 C-9.62531591 183.67090335 -0.53596078 156.29253234 -0.56762695 128.05664062 C-0.5585761 126.64542299 -0.54824097 125.23421312 -0.53674316 123.82301331 C-0.50953612 120.04926603 -0.49993903 116.27566927 -0.49388909 112.50183678 C-0.48440919 108.53668811 -0.45819937 104.57164782 -0.43388367 100.60656738 C-0.39047631 93.12372821 -0.36177211 85.64091037 -0.33856028 78.15798426 C-0.31136916 69.62808704 -0.2674672 61.09830025 -0.22227156 52.5684824 C-0.12979494 35.04569915 -0.06015115 17.52292608 0 0 Z " fill="#FDFDFD" transform="translate(636,400)"/>
<path d="M0 0 C1.19125488 -0.00636475 2.38250977 -0.01272949 3.60986328 -0.01928711 C27.36757215 0.32039004 50.75774171 9.29658698 68.1875 25.5 C68.91163086 26.15476318 68.91163086 26.15476318 69.65039062 26.82275391 C89.00620883 44.43306989 100.87341476 68.75621698 102.390625 95.015625 C102.73036135 122.0812872 95.23228264 148.54425862 76.19750977 168.42871094 C74.86494857 169.78984195 73.52638075 171.14508475 72.1875 172.5 C71.53265625 173.22703125 70.8778125 173.9540625 70.203125 174.703125 C60.89080598 184.81136873 47.84476281 191.50041254 35.1875 196.5 C34.22312012 196.88744385 34.22312012 196.88744385 33.23925781 197.28271484 C11.06997983 205.78876852 -17.23496361 203.70081097 -38.8125 194.5 C-67.13374823 181.45461675 -84.91082788 160.53913013 -95.8359375 131.80859375 C-99.33600487 121.84553069 -100.2026273 112.5193914 -100.1875 102 C-100.18662384 101.33425964 -100.18574768 100.66851929 -100.18484497 99.98260498 C-100.06615716 72.63841081 -89.84367884 49.13477966 -70.8125 29.5 C-70.2865625 28.90058594 -69.760625 28.30117188 -69.21875 27.68359375 C-59.97804782 17.52353599 -46.5209514 10.33924941 -33.8125 5.5 C-33.13864258 5.2431543 -32.46478516 4.98630859 -31.77050781 4.72167969 C-21.2836576 0.93435641 -11.11417692 0.05042214 0 0 Z " fill="#000000" transform="translate(764.8125,895.5)"/>
<path d="M0 0 C2.45125475 2.16785142 4.81682405 4.39633308 7.1640625 6.67578125 C8.08058594 7.49949219 8.08058594 7.49949219 9.015625 8.33984375 C22.38843305 20.73564299 31.20387618 39.12590292 35.1640625 56.67578125 C35.50050781 58.14917969 35.50050781 58.14917969 35.84375 59.65234375 C40.87105172 85.20205525 34.4326199 113.12346503 20.1640625 134.67578125 C3.65303683 158.36857501 -19.43250589 172.89194697 -47.66479492 178.20849609 C-63.30555608 180.51324757 -80.92964439 180.11086978 -95.8359375 174.67578125 C-96.5254248 174.4344043 -97.21491211 174.19302734 -97.92529297 173.94433594 C-112.84437396 168.65057589 -124.38205744 160.64312481 -135.8359375 149.67578125 C-136.47144531 149.09183594 -137.10695313 148.50789062 -137.76171875 147.90625 C-150.83173241 135.53175813 -158.24853326 118.76297301 -162.8359375 101.67578125 C-163.20203125 100.49757813 -163.568125 99.319375 -163.9453125 98.10546875 C-165.45669352 91.93212758 -165.21996291 85.55528361 -165.2109375 79.23828125 C-165.21006134 78.57004333 -165.20918518 77.90180542 -165.20828247 77.21331787 C-165.09116918 50.1508275 -155.05748565 25.92915316 -135.8359375 6.67578125 C-135.01609375 5.84433594 -134.19625 5.01289062 -133.3515625 4.15625 C-97.18398444 -30.6737697 -38.40571409 -31.47575742 0 0 Z " fill="#000000" transform="translate(829.8359375,687.32421875)"/>
<path d="M0 0 C17.82758283 15.9124181 31.42269629 38.73989056 33 63 C34.31215119 93.18178741 34.31215119 93.18178741 29 107 C28.57589844 108.23105469 28.15179687 109.46210937 27.71484375 110.73046875 C22.84268403 124.37008248 15.07976055 135.6201415 5 146 C4.31550781 146.75796875 3.63101562 147.5159375 2.92578125 148.296875 C-11.88157349 164.17167305 -34.87685742 174.82669795 -56.43920898 176.22265625 C-60.19135707 176.33958799 -63.93353894 176.38021614 -67.6875 176.375 C-68.34952423 176.37445618 -69.01154846 176.37391235 -69.69363403 176.37335205 C-80.13049596 176.33396113 -89.17747715 175.57081521 -99 172 C-99.61794434 171.79101074 -100.23588867 171.58202148 -100.87255859 171.36669922 C-116.36975214 166.10640088 -128.37429311 157.32984309 -140 146 C-140.98226562 145.12794922 -140.98226562 145.12794922 -141.984375 144.23828125 C-156.96639249 130.59639835 -167.1759294 106.01362427 -168.140625 86.09667969 C-169.01243907 56.56833714 -163.45419324 31.48275368 -143.625 8.75 C-104.82953391 -32.19331196 -43.39229866 -37.35570443 0 0 Z " fill="#000000" transform="translate(1064,690)"/>
<path d="M0 0 C2.71400276 2.14202764 5.24719737 4.36999752 7.76171875 6.7421875 C8.7053125 7.61875 9.64890625 8.4953125 10.62109375 9.3984375 C16.51334405 15.00142467 21.43040049 20.86674541 25.76171875 27.7421875 C26.3340625 28.58523438 26.90640625 29.42828125 27.49609375 30.296875 C31.5991106 36.70556947 34.2095858 43.24062522 36.63671875 50.4296875 C36.93513672 51.30858643 37.23355469 52.18748535 37.54101562 53.09301758 C40.70687433 62.91068488 40.94326255 72.29216149 40.94921875 82.5546875 C40.96146484 83.65361328 40.97371094 84.75253906 40.98632812 85.88476562 C41.02816866 109.55256376 32.04166842 132.45326273 15.76171875 149.7421875 C14.91996094 150.66257812 14.07820313 151.58296875 13.2109375 152.53125 C0.33310562 166.0613599 -16.20438079 175.76123595 -34.23828125 180.7421875 C-35.48609375 181.08765625 -36.73390625 181.433125 -38.01953125 181.7890625 C-44.84124621 183.27573935 -51.79066313 183.13703268 -58.73828125 183.1171875 C-59.45070984 183.11664368 -60.16313843 183.11609985 -60.89715576 183.11553955 C-89.46157407 183.01514444 -112.4521677 172.19838208 -132.92578125 152.3671875 C-153.81020779 130.95478388 -160.83544197 104.5478251 -160.51953125 75.3984375 C-160.15101383 62.44136488 -156.94781212 50.3782782 -151.23828125 38.7421875 C-150.79742188 37.83339844 -150.3565625 36.92460938 -149.90234375 35.98828125 C-137.57913598 12.05674792 -116.45678817 -6.10426261 -90.8527832 -14.46972656 C-59.91871314 -24.17033092 -26.44491472 -18.43807082 0 0 Z " fill="#000000" transform="translate(1056.23828125,914.2578125)"/>
</svg>
