<svg width="1511" height="562" viewBox="0 0 1511 562" fill="none" xmlns="http://www.w3.org/2000/svg">
<path fill-rule="evenodd" clip-rule="evenodd" d="M440.863 220.063C408.439 220.135 382.096 246.478 382.024 278.902C381.953 311.327 408.18 337.554 440.604 337.482L542.602 337.257C553.04 337.234 561.509 345.703 561.486 356.141C561.463 366.512 553.063 374.913 542.692 374.936L466.809 375.103C420.35 375.206 382.605 412.951 382.502 459.41L382.324 540.123C382.298 551.7 372.921 561.077 361.344 561.103C349.692 561.128 340.238 551.675 340.264 540.022L340.49 437.596C340.561 405.172 314.334 378.945 281.91 379.016C249.486 379.088 223.142 405.431 223.071 437.856L222.842 541.347C222.818 552.441 213.831 561.428 202.737 561.453C191.57 561.477 182.51 552.418 182.535 541.251L182.714 459.851C182.817 413.392 145.238 375.813 98.7792 375.916L19.5642 376.091C9.12559 376.114 0.656656 367.645 0.679735 357.206C0.702625 346.835 9.1032 338.435 19.4741 338.412L123.398 338.182C155.822 338.111 182.165 311.768 182.237 279.343C182.308 246.919 156.081 220.692 123.657 220.763L21.6671 220.989C10.2575 221.014 1.00079 211.757 1.026 200.347C1.05101 189.012 10.2331 179.83 21.5687 179.805L99.2125 179.633C145.671 179.531 183.417 141.785 183.519 95.3265L183.684 20.7517C183.708 9.65723 192.695 0.670579 203.79 0.646089C214.956 0.621436 224.016 9.68122 223.991 20.8481L223.771 120.649C223.7 153.073 249.927 179.301 282.351 179.229C314.775 179.157 341.119 152.814 341.19 120.39L341.409 21.2757C341.434 9.69891 350.812 0.32151 362.389 0.295951C374.041 0.270224 383.495 9.72392 383.469 21.3763L383.307 94.8855C383.204 141.344 420.783 178.923 467.242 178.821L541.191 178.658C552.601 178.632 561.858 187.889 561.833 199.299C561.808 210.634 552.626 219.816 541.29 219.841L440.863 220.063ZM340.836 280.746C340.909 247.837 314.29 221.219 281.382 221.291C248.474 221.364 221.737 248.1 221.665 281.009C221.592 313.917 248.21 340.536 281.119 340.463C314.027 340.39 340.763 313.654 340.836 280.746Z" fill="black"/>
<path d="M1365.01 444.25C1315.65 444.25 1283.34 420.466 1283.34 379.18C1283.34 338.343 1307.57 316.353 1359.63 306.032L1441.75 290.325C1441.75 253.527 1424.7 235.128 1390.59 235.128C1360.08 235.128 1343.02 249.039 1336.74 275.067L1287.38 271.926C1296.35 224.357 1333.6 194.739 1390.59 194.739C1455.21 194.739 1489.32 231.089 1489.32 293.018V385.911C1489.32 397.579 1493.36 401.169 1502.33 401.169H1510.86V438.865C1507.72 439.762 1500.09 440.211 1493.36 440.211C1465.98 440.211 1449.83 429.89 1445.79 402.067C1433.67 427.197 1402.26 444.25 1365.01 444.25ZM1373.09 406.554C1415.72 406.554 1441.75 379.629 1441.75 341.484V326.226L1372.19 339.689C1343.47 345.074 1332.7 356.293 1332.7 374.692C1332.7 395.335 1347.51 406.554 1373.09 406.554Z" fill="black"/>
<path d="M1165.13 444.25C1096.02 444.25 1051.6 394.886 1051.6 319.495C1051.6 244.103 1096.02 194.739 1165.13 194.739C1223.02 194.739 1263.86 226.152 1271.49 281.35L1222.13 284.043C1217.19 253.078 1195.2 236.025 1165.13 236.025C1124.75 236.025 1100.96 266.99 1100.96 319.495C1100.96 372 1124.75 402.964 1165.13 402.964C1195.2 402.964 1217.19 385.911 1222.13 351.357L1271.49 354.049C1263.86 408.798 1223.47 444.25 1165.13 444.25Z" fill="black"/>
<path d="M973.565 438.864V200.123H1021.13V438.864H973.565ZM972.667 165.569V118H1022.48V165.569H972.667Z" fill="black"/>
<path d="M706 438.863V120.243H824.922C897.621 120.243 940.703 157.49 940.703 219.419C940.703 281.796 897.621 319.492 824.922 319.492H754.466V438.863H706ZM823.576 275.514C867.554 275.514 890.441 256.217 890.441 219.419C890.441 183.069 867.554 164.67 823.576 164.67H754.466V275.514H823.576Z" fill="black"/>
</svg>
