<svg width="1080" height="774" viewBox="0 0 1080 774" fill="none" xmlns="http://www.w3.org/2000/svg">
<g clip-path="url(#clip0_1313_1424)">
<rect width="1080" height="1920" fill="black"/>
<rect x="763.5" y="111.5" width="279" height="551" rx="21.5" stroke="#484848" stroke-dasharray="10 10"/>
<rect x="318.5" y="256.5" width="279" height="270" rx="21.5" stroke="#484848" stroke-dasharray="10 10"/>
<rect x="37.5" y="288.5" width="199" height="217" rx="21.5" stroke="#484848" stroke-dasharray="10 10"/>
<path d="M513 345.5L671.099 345.5C682.145 345.5 691.099 336.546 691.099 325.5L691.099 266.5C691.099 255.454 700.054 246.5 711.099 246.5L857 246.5" stroke="#9C9C9C" stroke-width="2"/>
<path d="M847 237.974L857 247.231L847 256" stroke="#9C9C9C" stroke-width="2" stroke-linecap="round" stroke-linejoin="round"/>
<circle cx="507.5" cy="346" r="5.5" fill="#9C9C9C"/>
<rect x="871" y="209" width="74" height="74" rx="10" fill="white"/>
<g clip-path="url(#clip1_1313_1424)">
<path fill-rule="evenodd" clip-rule="evenodd" d="M900.165 218C897.125 218.002 894.665 220.465 894.667 223.499C894.665 226.533 897.127 228.996 900.168 228.998H905.669V223.501C905.671 220.467 903.208 218.004 900.165 218C900.168 218 900.168 218 900.165 218ZM900.165 232.667H885.501C882.461 232.669 879.998 235.131 880 238.166C879.996 241.2 882.458 243.662 885.499 243.667H900.165C903.206 243.664 905.669 241.202 905.666 238.168C905.669 235.131 903.206 232.669 900.165 232.667Z" fill="#36C5F0"/>
<path fill-rule="evenodd" clip-rule="evenodd" d="M935 238.166C935.003 235.131 932.54 232.669 929.499 232.667C926.459 232.669 923.996 235.131 923.999 238.166V243.667H929.499C932.54 243.664 935.003 241.202 935 238.166ZM920.334 238.166V223.499C920.336 220.467 917.875 218.004 914.835 218C911.795 218.002 909.332 220.465 909.334 223.499V238.166C909.329 241.2 911.792 243.662 914.833 243.667C917.873 243.664 920.336 241.202 920.334 238.166Z" fill="#2EB67D"/>
<path fill-rule="evenodd" clip-rule="evenodd" d="M914.833 273C917.873 272.998 920.336 270.535 920.334 267.501C920.336 264.467 917.873 262.004 914.833 262.002H909.332V267.501C909.33 270.533 911.793 272.995 914.833 273ZM914.833 258.331H929.5C932.54 258.329 935.003 255.866 935.001 252.832C935.005 249.798 932.542 247.336 929.502 247.331H914.835C911.795 247.333 909.332 249.796 909.334 252.83C909.332 255.866 911.793 258.329 914.833 258.331Z" fill="#ECB22E"/>
<path fill-rule="evenodd" clip-rule="evenodd" d="M880 252.832C879.998 255.867 882.461 258.329 885.501 258.331C888.541 258.329 891.004 255.867 891.002 252.832V247.333H885.501C882.461 247.336 879.998 249.798 880 252.832ZM894.667 252.832V267.499C894.662 270.533 897.125 272.996 900.165 273C903.206 272.998 905.669 270.536 905.666 267.501V252.837C905.671 249.803 903.208 247.34 900.168 247.336C897.125 247.336 894.665 249.798 894.667 252.832Z" fill="#E01E5A"/>
</g>
<rect x="870" y="350" width="74" height="74" rx="10" fill="white"/>
<path d="M930.772 408H882.544C881.631 408 880.755 407.636 880.109 406.987C879.463 406.338 879.1 405.458 879.1 404.54V369.944C879.1 369.026 879.463 368.146 880.109 367.497C880.755 366.848 881.631 366.484 882.544 366.484H930.772C931.686 366.484 932.562 366.848 933.208 367.497C933.854 368.146 934.217 369.026 934.217 369.944V404.54C934.217 405.458 933.854 406.338 933.208 406.987C932.562 407.636 931.686 408 930.772 408Z" fill="#EAEAEA"/>
<path d="M885.989 408H882.544C881.631 408 880.755 407.636 880.109 406.987C879.463 406.338 879.1 405.458 879.1 404.54V369.944C879.1 369.489 879.189 369.039 879.362 368.62C879.535 368.2 879.789 367.818 880.109 367.497C880.428 367.176 880.808 366.921 881.226 366.747C881.644 366.573 882.092 366.484 882.544 366.484C882.997 366.484 883.445 366.573 883.863 366.747C884.281 366.921 884.66 367.176 884.98 367.497C885.3 367.818 885.554 368.2 885.727 368.62C885.9 369.039 885.989 369.489 885.989 369.944V408Z" fill="#D54C3F"/>
<path d="M927.328 408H930.773C931.687 408 932.563 407.636 933.209 406.987C933.855 406.338 934.218 405.458 934.218 404.54V369.944C934.218 369.026 933.855 368.146 933.209 367.497C932.563 366.848 931.687 366.484 930.773 366.484C929.859 366.484 928.983 366.848 928.337 367.497C927.691 368.146 927.328 369.026 927.328 369.944V408Z" fill="#B63524"/>
<path d="M932.746 372.781C933.117 372.52 933.433 372.189 933.677 371.806C933.92 371.424 934.086 370.996 934.165 370.549C934.245 370.101 934.235 369.643 934.138 369.199C934.04 368.755 933.857 368.335 933.598 367.962C933.339 367.59 933.009 367.272 932.628 367.028C932.247 366.783 931.821 366.616 931.375 366.537C930.93 366.457 930.473 366.467 930.031 366.565C929.59 366.662 929.171 366.847 928.8 367.107L906.661 383.295L906.659 383.296L906.657 383.295L884.518 367.107C883.769 366.581 882.842 366.376 881.943 366.537C881.043 366.697 880.244 367.21 879.72 367.962C879.197 368.715 878.993 369.645 879.153 370.549C879.312 371.452 879.823 372.255 880.572 372.781L880.48 372.713L906.659 391.855M932.839 372.713L906.659 391.855L932.839 372.713Z" fill="#DE5145"/>
<path d="M930.773 366.484C930.039 366.484 929.358 366.715 928.8 367.107L906.661 383.294L906.659 383.296L906.657 383.294L884.518 367.107C883.94 366.7 883.251 366.483 882.545 366.484H930.773Z" fill="#EFEFEF"/>
<path d="M885.992 378.233L880.186 372.458L880.184 372.462C880.305 372.577 880.435 372.684 880.573 372.78L880.481 372.712L885.993 376.743L885.992 378.274" fill="#C64132"/>
<path d="M902.833 394.843L885.99 408L885.991 378.089L902.83 394.838" fill="#E3E3E3"/>
<path d="M902.832 394.843L906.658 391.855L885.99 376.743V378.089L902.829 394.838L902.832 394.843Z" fill="url(#paint0_linear_1313_1424)"/>
<path d="M915.916 408H927.329V376.742L906.66 391.855L902.83 394.838L915.916 408Z" fill="url(#paint1_linear_1313_1424)"/>
<rect x="870" y="491" width="74" height="74" rx="10" fill="white"/>
<path d="M922.696 511.306H890.305V543.697H922.696V511.306Z" fill="white"/>
<path d="M908.973 522.968L910.457 525.089L912.789 523.392V535.689H915.333V519.576H913.213L908.973 522.968Z" fill="#1E88E5"/>
<path d="M904.945 527.127C905.866 526.282 906.437 525.11 906.437 523.816C906.437 521.244 904.18 519.151 901.406 519.151C899.047 519.151 897.03 520.637 896.503 522.763L898.943 523.383C899.186 522.405 900.221 521.696 901.406 521.696C902.793 521.696 903.922 522.647 903.922 523.816C903.922 524.985 902.793 525.936 901.406 525.936H899.938V528.48H901.406C902.997 528.48 904.34 529.586 904.34 530.895C904.34 532.226 903.065 533.309 901.497 533.309C900.081 533.309 898.871 532.411 898.679 531.222L896.195 531.628C896.581 534.037 898.86 535.853 901.496 535.853C904.451 535.853 906.855 533.629 906.855 530.895C906.855 529.388 906.113 528.037 904.945 527.127Z" fill="#1E88E5"/>
<path d="M921.224 554.004H891.777L890.305 548.114L891.777 542.225H921.224L922.696 548.114L921.224 554.004Z" fill="#FBC02D"/>
<path d="M927.112 543.697L933.001 542.225V512.778L927.112 511.306L921.223 512.778V542.225L927.112 543.697Z" fill="#4CAF50"/>
<path d="M921.225 512.779L922.698 506.889L921.225 501H884.417C881.977 501 880 502.977 880 505.417V542.225L885.889 543.698L891.779 542.225V512.779H921.225Z" fill="#1E88E5"/>
<path d="M921.223 542.225V554.004L933.001 542.225H921.223Z" fill="#E53935"/>
<path d="M928.584 501H921.223V512.779H933.001V505.417C933.001 502.977 931.024 501 928.584 501Z" fill="#1565C0"/>
<path d="M884.417 554.004H891.779V542.225H880V549.587C880 552.026 881.977 554.004 884.417 554.004Z" fill="#1565C0"/>
<path d="M513 428.5L671.099 428.5C682.145 428.5 691.099 437.454 691.099 448.5L691.099 507.5C691.099 518.546 700.054 527.5 711.099 527.5L857 527.5" stroke="#9C9C9C" stroke-width="2"/>
<path d="M847 536.026L857 526.769L847 518" stroke="#9C9C9C" stroke-width="2" stroke-linecap="round" stroke-linejoin="round"/>
<circle cx="5.5" cy="5.5" r="5.5" transform="matrix(1 0 0 -1 502 433.5)" fill="#9C9C9C"/>
<line x1="517" y1="387.5" x2="856" y2="387.5" stroke="#9C9C9C" stroke-width="2"/>
<path d="M846 378L856.5 387.5L846 396.5" stroke="#9C9C9C" stroke-width="2" stroke-linecap="round" stroke-linejoin="round"/>
<circle cx="512.5" cy="388" r="5.5" fill="#9C9C9C" stroke="#9C9C9C" stroke-width="2"/>
<circle cx="458" cy="387" r="72" fill="white"/>
<path fill-rule="evenodd" clip-rule="evenodd" d="M486.815 375.674C480.843 375.687 475.991 380.593 475.977 386.632C475.964 392.672 480.795 397.556 486.767 397.543L505.553 397.501C507.476 397.497 509.036 399.074 509.031 401.018C509.027 402.95 507.48 404.515 505.57 404.519L491.593 404.55C483.036 404.569 476.084 411.599 476.065 420.252L476.033 435.285C476.028 437.441 474.301 439.188 472.168 439.193C470.022 439.197 468.281 437.437 468.286 435.266L468.327 416.189C468.341 410.15 463.51 405.266 457.538 405.279C451.566 405.292 446.714 410.199 446.701 416.238L446.659 435.513C446.654 437.579 444.999 439.253 442.956 439.258C440.899 439.262 439.23 437.575 439.235 435.495L439.268 420.334C439.287 411.681 432.365 404.682 423.808 404.701L409.218 404.734C407.296 404.738 405.736 403.161 405.74 401.217C405.744 399.285 407.292 397.72 409.202 397.716L428.343 397.673C434.315 397.66 439.167 392.754 439.18 386.715C439.193 380.676 434.363 375.791 428.391 375.804L409.606 375.846C407.504 375.851 405.799 374.127 405.804 372.002C405.809 369.89 407.5 368.18 409.588 368.175L423.888 368.144C432.445 368.124 439.397 361.094 439.416 352.441L439.446 338.552C439.451 336.485 441.106 334.811 443.15 334.807C445.206 334.802 446.875 336.49 446.87 338.57L446.83 357.158C446.817 363.197 451.647 368.082 457.619 368.068C463.591 368.055 468.443 363.148 468.456 357.109L468.497 338.649C468.501 336.493 470.229 334.746 472.361 334.742C474.507 334.737 476.248 336.498 476.244 338.668L476.214 352.359C476.195 361.012 483.116 368.011 491.673 367.992L505.293 367.962C507.395 367.957 509.1 369.681 509.095 371.806C509.09 373.917 507.399 375.628 505.311 375.632L486.815 375.674ZM468.391 386.976C468.405 380.847 463.502 375.889 457.441 375.902C451.38 375.916 446.455 380.896 446.442 387.025C446.429 393.154 451.331 398.112 457.392 398.098C463.454 398.085 468.378 393.105 468.391 386.976Z" fill="black"/>
<path d="M821.136 612V596.38H830.948V598.228H823.028V603.266H830.684V605.07H823.028V610.152H831.124V612H821.136ZM834.128 612V600.34H835.822L835.888 603.31L835.668 603.112C835.815 602.423 836.071 601.858 836.438 601.418C836.805 600.963 837.245 600.626 837.758 600.406C838.286 600.186 838.851 600.076 839.452 600.076C840.347 600.076 841.08 600.274 841.652 600.67C842.239 601.066 842.671 601.601 842.95 602.276C843.243 602.936 843.39 603.677 843.39 604.498V612H841.542V605.026C841.542 604.307 841.454 603.706 841.278 603.222C841.117 602.723 840.853 602.349 840.486 602.1C840.119 601.836 839.643 601.704 839.056 601.704C838.161 601.704 837.421 601.99 836.834 602.562C836.262 603.119 835.976 603.941 835.976 605.026V612H834.128ZM850.299 612C849.243 612 848.458 611.758 847.945 611.274C847.446 610.79 847.197 610.035 847.197 609.008V597.612H849.045V608.964C849.045 609.492 849.162 609.859 849.397 610.064C849.631 610.269 849.991 610.372 850.475 610.372H852.147V612H850.299ZM845.481 601.968V600.34H852.147V601.968H845.481ZM858.856 612.264C857.756 612.264 856.803 612.015 855.996 611.516C855.204 611.017 854.588 610.313 854.148 609.404C853.723 608.48 853.51 607.402 853.51 606.17C853.51 604.938 853.723 603.867 854.148 602.958C854.588 602.049 855.197 601.345 855.974 600.846C856.766 600.333 857.697 600.076 858.768 600.076C859.78 600.076 860.675 600.318 861.452 600.802C862.229 601.271 862.831 601.961 863.256 602.87C863.696 603.779 863.916 604.887 863.916 606.192V606.742H855.446C855.519 607.989 855.849 608.927 856.436 609.558C857.037 610.189 857.844 610.504 858.856 610.504C859.619 610.504 860.242 610.328 860.726 609.976C861.225 609.609 861.569 609.133 861.76 608.546L863.74 608.7C863.432 609.741 862.845 610.599 861.98 611.274C861.129 611.934 860.088 612.264 858.856 612.264ZM855.446 605.114H861.892C861.804 603.985 861.474 603.156 860.902 602.628C860.345 602.1 859.633 601.836 858.768 601.836C857.873 601.836 857.133 602.115 856.546 602.672C855.974 603.215 855.607 604.029 855.446 605.114ZM866.419 612V600.34H868.047L868.135 603.288L867.959 603.222C868.106 602.225 868.421 601.499 868.905 601.044C869.404 600.575 870.064 600.34 870.885 600.34H872.029V602.1H870.907C870.321 602.1 869.829 602.21 869.433 602.43C869.052 602.635 868.759 602.951 868.553 603.376C868.363 603.787 868.267 604.315 868.267 604.96V612H866.419ZM873.874 615.3V600.34H875.59L875.634 602.848L875.37 602.716C875.664 601.851 876.148 601.198 876.822 600.758C877.512 600.303 878.304 600.076 879.198 600.076C880.357 600.076 881.303 600.362 882.036 600.934C882.784 601.506 883.334 602.254 883.686 603.178C884.053 604.102 884.236 605.099 884.236 606.17C884.236 607.241 884.053 608.238 883.686 609.162C883.334 610.086 882.784 610.834 882.036 611.406C881.303 611.978 880.357 612.264 879.198 612.264C878.597 612.264 878.032 612.161 877.504 611.956C876.991 611.751 876.551 611.465 876.184 611.098C875.832 610.731 875.59 610.299 875.458 609.8L875.722 609.492V615.3H873.874ZM879.022 610.504C880.034 610.504 880.834 610.123 881.42 609.36C882.007 608.597 882.3 607.534 882.3 606.17C882.3 604.806 882.007 603.743 881.42 602.98C880.834 602.217 880.034 601.836 879.022 601.836C878.348 601.836 877.761 601.997 877.262 602.32C876.778 602.643 876.397 603.127 876.118 603.772C875.854 604.417 875.722 605.217 875.722 606.17C875.722 607.123 875.854 607.923 876.118 608.568C876.382 609.213 876.764 609.697 877.262 610.02C877.761 610.343 878.348 610.504 879.022 610.504ZM886.743 612V600.34H888.371L888.459 603.288L888.283 603.222C888.43 602.225 888.745 601.499 889.229 601.044C889.728 600.575 890.388 600.34 891.209 600.34H892.353V602.1H891.231C890.645 602.1 890.153 602.21 889.757 602.43C889.376 602.635 889.083 602.951 888.877 603.376C888.687 603.787 888.591 604.315 888.591 604.96V612H886.743ZM894.413 612V600.34H896.261V612H894.413ZM894.369 598.514V596.358H896.305V598.514H894.369ZM903.816 612.264C902.774 612.264 901.887 612.095 901.154 611.758C900.435 611.421 899.87 610.959 899.46 610.372C899.064 609.771 898.836 609.089 898.778 608.326L900.714 608.194C900.831 608.898 901.132 609.463 901.616 609.888C902.1 610.299 902.833 610.504 903.816 610.504C904.608 610.504 905.238 610.379 905.708 610.13C906.192 609.866 906.434 609.448 906.434 608.876C906.434 608.568 906.36 608.311 906.214 608.106C906.067 607.901 905.781 607.725 905.356 607.578C904.93 607.417 904.3 607.263 903.464 607.116C902.349 606.911 901.469 606.661 900.824 606.368C900.193 606.06 899.738 605.686 899.46 605.246C899.196 604.791 899.064 604.256 899.064 603.64C899.064 602.599 899.445 601.748 900.208 601.088C900.97 600.413 902.056 600.076 903.464 600.076C904.417 600.076 905.216 600.252 905.862 600.604C906.522 600.941 907.035 601.396 907.402 601.968C907.783 602.525 908.032 603.141 908.15 603.816L906.214 603.948C906.126 603.537 905.964 603.178 905.73 602.87C905.495 602.547 905.187 602.298 904.806 602.122C904.424 601.931 903.97 601.836 903.442 601.836C902.606 601.836 901.99 601.997 901.594 602.32C901.198 602.643 901 603.053 901 603.552C901 603.933 901.088 604.249 901.264 604.498C901.454 604.733 901.755 604.931 902.166 605.092C902.576 605.239 903.126 605.371 903.816 605.488C905.004 605.693 905.928 605.943 906.588 606.236C907.248 606.529 907.71 606.889 907.974 607.314C908.238 607.739 908.37 608.26 908.37 608.876C908.37 609.595 908.164 610.211 907.754 610.724C907.358 611.223 906.815 611.604 906.126 611.868C905.451 612.132 904.681 612.264 903.816 612.264ZM915.446 612.264C914.346 612.264 913.393 612.015 912.586 611.516C911.794 611.017 911.178 610.313 910.738 609.404C910.313 608.48 910.1 607.402 910.1 606.17C910.1 604.938 910.313 603.867 910.738 602.958C911.178 602.049 911.787 601.345 912.564 600.846C913.356 600.333 914.287 600.076 915.358 600.076C916.37 600.076 917.265 600.318 918.042 600.802C918.819 601.271 919.421 601.961 919.846 602.87C920.286 603.779 920.506 604.887 920.506 606.192V606.742H912.036C912.109 607.989 912.439 608.927 913.026 609.558C913.627 610.189 914.434 610.504 915.446 610.504C916.209 610.504 916.832 610.328 917.316 609.976C917.815 609.609 918.159 609.133 918.35 608.546L920.33 608.7C920.022 609.741 919.435 610.599 918.57 611.274C917.719 611.934 916.678 612.264 915.446 612.264ZM912.036 605.114H918.482C918.394 603.985 918.064 603.156 917.492 602.628C916.935 602.1 916.223 601.836 915.358 601.836C914.463 601.836 913.723 602.115 913.136 602.672C912.564 603.215 912.197 604.029 912.036 605.114ZM922.432 606.456V604.718H929.714V606.456H922.432ZM936.863 615.564C936.027 615.564 935.271 615.425 934.597 615.146C933.922 614.867 933.357 614.471 932.903 613.958C932.448 613.445 932.14 612.851 931.979 612.176L933.915 612.044C934.091 612.587 934.399 613.012 934.839 613.32C935.293 613.643 935.968 613.804 936.863 613.804C937.919 613.804 938.725 613.591 939.283 613.166C939.855 612.741 940.141 612.103 940.141 611.252V609.36C939.862 609.976 939.415 610.467 938.799 610.834C938.183 611.201 937.493 611.384 936.731 611.384C935.748 611.384 934.868 611.142 934.091 610.658C933.328 610.174 932.727 609.507 932.287 608.656C931.861 607.805 931.649 606.83 931.649 605.73C931.649 604.615 931.861 603.64 932.287 602.804C932.712 601.953 933.299 601.286 934.047 600.802C934.809 600.318 935.675 600.076 936.643 600.076C937.464 600.076 938.197 600.267 938.843 600.648C939.503 601.029 939.965 601.543 940.229 602.188V600.34H941.989V611.208C941.989 612.117 941.783 612.895 941.373 613.54C940.962 614.2 940.375 614.699 939.613 615.036C938.85 615.388 937.933 615.564 936.863 615.564ZM936.819 609.624C937.816 609.624 938.615 609.279 939.217 608.59C939.818 607.886 940.126 606.933 940.141 605.73C940.155 604.923 940.023 604.234 939.745 603.662C939.481 603.075 939.092 602.628 938.579 602.32C938.08 601.997 937.493 601.836 936.819 601.836C935.792 601.836 934.993 602.188 934.421 602.892C933.863 603.581 933.585 604.527 933.585 605.73C933.585 606.933 933.871 607.886 934.443 608.59C935.029 609.279 935.821 609.624 936.819 609.624ZM945.503 612V600.34H947.131L947.219 603.288L947.043 603.222C947.19 602.225 947.505 601.499 947.989 601.044C948.488 600.575 949.148 600.34 949.969 600.34H951.113V602.1H949.991C949.404 602.1 948.913 602.21 948.517 602.43C948.136 602.635 947.842 602.951 947.637 603.376C947.446 603.787 947.351 604.315 947.351 604.96V612H945.503ZM956.104 612.264C954.902 612.264 953.941 611.985 953.222 611.428C952.518 610.871 952.166 610.093 952.166 609.096C952.166 608.099 952.46 607.314 953.046 606.742C953.633 606.17 954.564 605.767 955.84 605.532L959.976 604.762C959.976 603.779 959.742 603.046 959.272 602.562C958.818 602.078 958.128 601.836 957.204 601.836C956.398 601.836 955.76 602.019 955.29 602.386C954.821 602.738 954.498 603.251 954.322 603.926L952.364 603.772C952.584 602.672 953.112 601.785 953.948 601.11C954.799 600.421 955.884 600.076 957.204 600.076C958.7 600.076 959.844 600.501 960.636 601.352C961.428 602.188 961.824 603.347 961.824 604.828V609.646C961.824 609.91 961.868 610.101 961.956 610.218C962.059 610.321 962.22 610.372 962.44 610.372H962.902V612C962.844 612.015 962.748 612.022 962.616 612.022C962.484 612.037 962.345 612.044 962.198 612.044C961.67 612.044 961.238 611.963 960.9 611.802C960.578 611.626 960.343 611.362 960.196 611.01C960.05 610.643 959.976 610.167 959.976 609.58L960.196 609.624C960.094 610.123 959.844 610.577 959.448 610.988C959.052 611.384 958.561 611.699 957.974 611.934C957.388 612.154 956.764 612.264 956.104 612.264ZM956.28 610.636C957.058 610.636 957.718 610.489 958.26 610.196C958.818 609.888 959.243 609.477 959.536 608.964C959.83 608.436 959.976 607.849 959.976 607.204V606.368L956.192 607.072C955.4 607.219 954.85 607.446 954.542 607.754C954.249 608.047 954.102 608.436 954.102 608.92C954.102 609.463 954.293 609.888 954.674 610.196C955.07 610.489 955.606 610.636 956.28 610.636ZM969.083 612.264C968.071 612.264 967.191 612.015 966.443 611.516C965.709 611.017 965.145 610.313 964.749 609.404C964.353 608.495 964.155 607.417 964.155 606.17C964.155 604.923 964.353 603.845 964.749 602.936C965.145 602.027 965.709 601.323 966.443 600.824C967.191 600.325 968.071 600.076 969.083 600.076C969.86 600.076 970.571 600.245 971.217 600.582C971.862 600.905 972.346 601.367 972.669 601.968V596.38H974.517V612H972.845L972.779 610.24C972.456 610.871 971.965 611.369 971.305 611.736C970.645 612.088 969.904 612.264 969.083 612.264ZM969.457 610.504C970.146 610.504 970.725 610.328 971.195 609.976C971.679 609.624 972.045 609.125 972.295 608.48C972.544 607.82 972.669 607.05 972.669 606.17C972.669 605.261 972.544 604.483 972.295 603.838C972.045 603.193 971.679 602.701 971.195 602.364C970.725 602.012 970.146 601.836 969.457 601.836C968.43 601.836 967.609 602.225 966.993 603.002C966.391 603.765 966.091 604.821 966.091 606.17C966.091 607.505 966.391 608.561 966.993 609.338C967.609 610.115 968.43 610.504 969.457 610.504ZM982.37 612.264C981.27 612.264 980.316 612.015 979.51 611.516C978.718 611.017 978.102 610.313 977.662 609.404C977.236 608.48 977.024 607.402 977.024 606.17C977.024 604.938 977.236 603.867 977.662 602.958C978.102 602.049 978.71 601.345 979.488 600.846C980.28 600.333 981.211 600.076 982.282 600.076C983.294 600.076 984.188 600.318 984.966 600.802C985.743 601.271 986.344 601.961 986.77 602.87C987.21 603.779 987.43 604.887 987.43 606.192V606.742H978.96C979.033 607.989 979.363 608.927 979.95 609.558C980.551 610.189 981.358 610.504 982.37 610.504C983.132 610.504 983.756 610.328 984.24 609.976C984.738 609.609 985.083 609.133 985.274 608.546L987.254 608.7C986.946 609.741 986.359 610.599 985.494 611.274C984.643 611.934 983.602 612.264 982.37 612.264ZM978.96 605.114H985.406C985.318 603.985 984.988 603.156 984.416 602.628C983.858 602.1 983.147 601.836 982.282 601.836C981.387 601.836 980.646 602.115 980.06 602.672C979.488 603.215 979.121 604.029 978.96 605.114ZM853.911 640V624.38H855.803V640H853.911ZM859.791 640V628.34H861.485L861.551 631.31L861.331 631.112C861.478 630.423 861.735 629.858 862.101 629.418C862.468 628.963 862.908 628.626 863.421 628.406C863.949 628.186 864.514 628.076 865.115 628.076C866.01 628.076 866.743 628.274 867.315 628.67C867.902 629.066 868.335 629.601 868.613 630.276C868.907 630.936 869.053 631.677 869.053 632.498V640H867.205V633.026C867.205 632.307 867.117 631.706 866.941 631.222C866.78 630.723 866.516 630.349 866.149 630.1C865.783 629.836 865.306 629.704 864.719 629.704C863.825 629.704 863.084 629.99 862.497 630.562C861.925 631.119 861.639 631.941 861.639 633.026V640H859.791ZM875.962 640C874.906 640 874.121 639.758 873.608 639.274C873.109 638.79 872.86 638.035 872.86 637.008V625.612H874.708V636.964C874.708 637.492 874.825 637.859 875.06 638.064C875.294 638.269 875.654 638.372 876.138 638.372H877.81V640H875.962ZM871.144 629.968V628.34H877.81V629.968H871.144ZM884.519 640.264C883.419 640.264 882.466 640.015 881.659 639.516C880.867 639.017 880.251 638.313 879.811 637.404C879.386 636.48 879.173 635.402 879.173 634.17C879.173 632.938 879.386 631.867 879.811 630.958C880.251 630.049 880.86 629.345 881.637 628.846C882.429 628.333 883.36 628.076 884.431 628.076C885.443 628.076 886.338 628.318 887.115 628.802C887.892 629.271 888.494 629.961 888.919 630.87C889.359 631.779 889.579 632.887 889.579 634.192V634.742H881.109C881.182 635.989 881.512 636.927 882.099 637.558C882.7 638.189 883.507 638.504 884.519 638.504C885.282 638.504 885.905 638.328 886.389 637.976C886.888 637.609 887.232 637.133 887.423 636.546L889.403 636.7C889.095 637.741 888.508 638.599 887.643 639.274C886.792 639.934 885.751 640.264 884.519 640.264ZM881.109 633.114H887.555C887.467 631.985 887.137 631.156 886.565 630.628C886.008 630.1 885.296 629.836 884.431 629.836C883.536 629.836 882.796 630.115 882.209 630.672C881.637 631.215 881.27 632.029 881.109 633.114ZM896.504 643.564C895.668 643.564 894.913 643.425 894.238 643.146C893.564 642.867 892.999 642.471 892.544 641.958C892.09 641.445 891.782 640.851 891.62 640.176L893.556 640.044C893.732 640.587 894.04 641.012 894.48 641.32C894.935 641.643 895.61 641.804 896.504 641.804C897.56 641.804 898.367 641.591 898.924 641.166C899.496 640.741 899.782 640.103 899.782 639.252V637.36C899.504 637.976 899.056 638.467 898.44 638.834C897.824 639.201 897.135 639.384 896.372 639.384C895.39 639.384 894.51 639.142 893.732 638.658C892.97 638.174 892.368 637.507 891.928 636.656C891.503 635.805 891.29 634.83 891.29 633.73C891.29 632.615 891.503 631.64 891.928 630.804C892.354 629.953 892.94 629.286 893.688 628.802C894.451 628.318 895.316 628.076 896.284 628.076C897.106 628.076 897.839 628.267 898.484 628.648C899.144 629.029 899.606 629.543 899.87 630.188V628.34H901.63V639.208C901.63 640.117 901.425 640.895 901.014 641.54C900.604 642.2 900.017 642.699 899.254 643.036C898.492 643.388 897.575 643.564 896.504 643.564ZM896.46 637.624C897.458 637.624 898.257 637.279 898.858 636.59C899.46 635.886 899.768 634.933 899.782 633.73C899.797 632.923 899.665 632.234 899.386 631.662C899.122 631.075 898.734 630.628 898.22 630.32C897.722 629.997 897.135 629.836 896.46 629.836C895.434 629.836 894.634 630.188 894.062 630.892C893.505 631.581 893.226 632.527 893.226 633.73C893.226 634.933 893.512 635.886 894.084 636.59C894.671 637.279 895.463 637.624 896.46 637.624ZM905.145 640V628.34H906.773L906.861 631.288L906.685 631.222C906.831 630.225 907.147 629.499 907.631 629.044C908.129 628.575 908.789 628.34 909.611 628.34H910.755V630.1H909.633C909.046 630.1 908.555 630.21 908.159 630.43C907.777 630.635 907.484 630.951 907.279 631.376C907.088 631.787 906.993 632.315 906.993 632.96V640H905.145ZM915.746 640.264C914.543 640.264 913.583 639.985 912.864 639.428C912.16 638.871 911.808 638.093 911.808 637.096C911.808 636.099 912.101 635.314 912.688 634.742C913.275 634.17 914.206 633.767 915.482 633.532L919.618 632.762C919.618 631.779 919.383 631.046 918.914 630.562C918.459 630.078 917.77 629.836 916.846 629.836C916.039 629.836 915.401 630.019 914.932 630.386C914.463 630.738 914.14 631.251 913.964 631.926L912.006 631.772C912.226 630.672 912.754 629.785 913.59 629.11C914.441 628.421 915.526 628.076 916.846 628.076C918.342 628.076 919.486 628.501 920.278 629.352C921.07 630.188 921.466 631.347 921.466 632.828V637.646C921.466 637.91 921.51 638.101 921.598 638.218C921.701 638.321 921.862 638.372 922.082 638.372H922.544V640C922.485 640.015 922.39 640.022 922.258 640.022C922.126 640.037 921.987 640.044 921.84 640.044C921.312 640.044 920.879 639.963 920.542 639.802C920.219 639.626 919.985 639.362 919.838 639.01C919.691 638.643 919.618 638.167 919.618 637.58L919.838 637.624C919.735 638.123 919.486 638.577 919.09 638.988C918.694 639.384 918.203 639.699 917.616 639.934C917.029 640.154 916.406 640.264 915.746 640.264ZM915.922 638.636C916.699 638.636 917.359 638.489 917.902 638.196C918.459 637.888 918.885 637.477 919.178 636.964C919.471 636.436 919.618 635.849 919.618 635.204V634.368L915.834 635.072C915.042 635.219 914.492 635.446 914.184 635.754C913.891 636.047 913.744 636.436 913.744 636.92C913.744 637.463 913.935 637.888 914.316 638.196C914.712 638.489 915.247 638.636 915.922 638.636ZM928.319 640C927.263 640 926.478 639.758 925.965 639.274C925.466 638.79 925.217 638.035 925.217 637.008V625.612H927.065V636.964C927.065 637.492 927.182 637.859 927.417 638.064C927.652 638.269 928.011 638.372 928.495 638.372H930.167V640H928.319ZM923.501 629.968V628.34H930.167V629.968H923.501ZM932.537 640V628.34H934.385V640H932.537ZM932.493 626.514V624.358H934.429V626.514H932.493ZM942.248 640.264C941.177 640.264 940.238 640.015 939.432 639.516C938.625 639.017 938.002 638.313 937.562 637.404C937.122 636.48 936.902 635.402 936.902 634.17C936.902 632.923 937.122 631.845 937.562 630.936C938.002 630.027 938.625 629.323 939.432 628.824C940.238 628.325 941.177 628.076 942.248 628.076C943.318 628.076 944.25 628.325 945.042 628.824C945.848 629.323 946.472 630.027 946.912 630.936C947.352 631.845 947.572 632.923 947.572 634.17C947.572 635.402 947.352 636.48 946.912 637.404C946.472 638.313 945.848 639.017 945.042 639.516C944.25 640.015 943.318 640.264 942.248 640.264ZM942.248 638.504C943.318 638.504 944.147 638.123 944.734 637.36C945.335 636.583 945.636 635.519 945.636 634.17C945.636 632.821 945.335 631.765 944.734 631.002C944.147 630.225 943.318 629.836 942.248 629.836C941.177 629.836 940.341 630.225 939.74 631.002C939.138 631.765 938.838 632.821 938.838 634.17C938.838 635.519 939.138 636.583 939.74 637.36C940.341 638.123 941.177 638.504 942.248 638.504ZM950.09 640V628.34H951.784L951.85 631.31L951.63 631.112C951.777 630.423 952.033 629.858 952.4 629.418C952.767 628.963 953.207 628.626 953.72 628.406C954.248 628.186 954.813 628.076 955.414 628.076C956.309 628.076 957.042 628.274 957.614 628.67C958.201 629.066 958.633 629.601 958.912 630.276C959.205 630.936 959.352 631.677 959.352 632.498V640H957.504V633.026C957.504 632.307 957.416 631.706 957.24 631.222C957.079 630.723 956.815 630.349 956.448 630.1C956.081 629.836 955.605 629.704 955.018 629.704C954.123 629.704 953.383 629.99 952.796 630.562C952.224 631.119 951.938 631.941 951.938 633.026V640H950.09Z" fill="#5F5E5E"/>
<path d="M400.168 503V487.38H405.778C407.523 487.38 408.88 487.798 409.848 488.634C410.816 489.47 411.3 490.629 411.3 492.11C411.3 493.107 411.08 493.973 410.64 494.706C410.2 495.425 409.569 495.975 408.748 496.356C407.926 496.737 406.936 496.928 405.778 496.928H402.06V503H400.168ZM402.06 495.08H405.778C406.951 495.08 407.831 494.831 408.418 494.332C409.019 493.833 409.32 493.093 409.32 492.11C409.32 491.157 409.019 490.438 408.418 489.954C407.831 489.47 406.951 489.228 405.778 489.228H402.06V495.08ZM413.782 503V491.34H415.63V503H413.782ZM413.738 489.514V487.358H415.674V489.514H413.738ZM423.493 503.264C422.407 503.264 421.461 503.015 420.655 502.516C419.863 502.017 419.247 501.313 418.807 500.404C418.367 499.48 418.147 498.402 418.147 497.17C418.147 495.938 418.367 494.867 418.807 493.958C419.247 493.049 419.863 492.345 420.655 491.846C421.461 491.333 422.407 491.076 423.493 491.076C424.387 491.076 425.179 491.237 425.869 491.56C426.573 491.868 427.145 492.323 427.585 492.924C428.025 493.525 428.311 494.259 428.443 495.124L426.507 495.256C426.375 494.479 426.037 493.885 425.495 493.474C424.952 493.049 424.285 492.836 423.493 492.836C422.422 492.836 421.586 493.225 420.985 494.002C420.383 494.765 420.083 495.821 420.083 497.17C420.083 498.519 420.383 499.583 420.985 500.36C421.586 501.123 422.422 501.504 423.493 501.504C424.285 501.504 424.952 501.284 425.495 500.844C426.037 500.404 426.375 499.744 426.507 498.864L428.443 498.996C428.311 499.861 428.025 500.617 427.585 501.262C427.145 501.893 426.573 502.384 425.869 502.736C425.179 503.088 424.387 503.264 423.493 503.264ZM434.18 503.264C432.978 503.264 432.017 502.985 431.298 502.428C430.594 501.871 430.242 501.093 430.242 500.096C430.242 499.099 430.536 498.314 431.122 497.742C431.709 497.17 432.64 496.767 433.916 496.532L438.052 495.762C438.052 494.779 437.818 494.046 437.348 493.562C436.894 493.078 436.204 492.836 435.28 492.836C434.474 492.836 433.836 493.019 433.366 493.386C432.897 493.738 432.574 494.251 432.398 494.926L430.44 494.772C430.66 493.672 431.188 492.785 432.024 492.11C432.875 491.421 433.96 491.076 435.28 491.076C436.776 491.076 437.92 491.501 438.712 492.352C439.504 493.188 439.9 494.347 439.9 495.828V500.646C439.9 500.91 439.944 501.101 440.032 501.218C440.135 501.321 440.296 501.372 440.516 501.372H440.978V503C440.92 503.015 440.824 503.022 440.692 503.022C440.56 503.037 440.421 503.044 440.274 503.044C439.746 503.044 439.314 502.963 438.976 502.802C438.654 502.626 438.419 502.362 438.272 502.01C438.126 501.643 438.052 501.167 438.052 500.58L438.272 500.624C438.17 501.123 437.92 501.577 437.524 501.988C437.128 502.384 436.637 502.699 436.05 502.934C435.464 503.154 434.84 503.264 434.18 503.264ZM434.356 501.636C435.134 501.636 435.794 501.489 436.336 501.196C436.894 500.888 437.319 500.477 437.612 499.964C437.906 499.436 438.052 498.849 438.052 498.204V497.368L434.268 498.072C433.476 498.219 432.926 498.446 432.618 498.754C432.325 499.047 432.178 499.436 432.178 499.92C432.178 500.463 432.369 500.888 432.75 501.196C433.146 501.489 433.682 501.636 434.356 501.636ZM448.916 503V487.38H458.728V489.228H450.808V494.266H458.464V496.07H450.808V501.152H458.904V503H448.916ZM461.907 503V491.34H463.601L463.667 494.31L463.447 494.112C463.594 493.423 463.851 492.858 464.217 492.418C464.584 491.963 465.024 491.626 465.537 491.406C466.065 491.186 466.63 491.076 467.231 491.076C468.126 491.076 468.859 491.274 469.431 491.67C470.018 492.066 470.451 492.601 470.729 493.276C471.023 493.936 471.169 494.677 471.169 495.498V503H469.321V496.026C469.321 495.307 469.233 494.706 469.057 494.222C468.896 493.723 468.632 493.349 468.265 493.1C467.899 492.836 467.422 492.704 466.835 492.704C465.941 492.704 465.2 492.99 464.613 493.562C464.041 494.119 463.755 494.941 463.755 496.026V503H461.907ZM478.855 506.564C478.019 506.564 477.264 506.425 476.589 506.146C475.914 505.867 475.35 505.471 474.895 504.958C474.44 504.445 474.132 503.851 473.971 503.176L475.907 503.044C476.083 503.587 476.391 504.012 476.831 504.32C477.286 504.643 477.96 504.804 478.855 504.804C479.911 504.804 480.718 504.591 481.275 504.166C481.847 503.741 482.133 503.103 482.133 502.252V500.36C481.854 500.976 481.407 501.467 480.791 501.834C480.175 502.201 479.486 502.384 478.723 502.384C477.74 502.384 476.86 502.142 476.083 501.658C475.32 501.174 474.719 500.507 474.279 499.656C473.854 498.805 473.641 497.83 473.641 496.73C473.641 495.615 473.854 494.64 474.279 493.804C474.704 492.953 475.291 492.286 476.039 491.802C476.802 491.318 477.667 491.076 478.635 491.076C479.456 491.076 480.19 491.267 480.835 491.648C481.495 492.029 481.957 492.543 482.221 493.188V491.34H483.981V502.208C483.981 503.117 483.776 503.895 483.365 504.54C482.954 505.2 482.368 505.699 481.605 506.036C480.842 506.388 479.926 506.564 478.855 506.564ZM478.811 500.624C479.808 500.624 480.608 500.279 481.209 499.59C481.81 498.886 482.118 497.933 482.133 496.73C482.148 495.923 482.016 495.234 481.737 494.662C481.473 494.075 481.084 493.628 480.571 493.32C480.072 492.997 479.486 492.836 478.811 492.836C477.784 492.836 476.985 493.188 476.413 493.892C475.856 494.581 475.577 495.527 475.577 496.73C475.577 497.933 475.863 498.886 476.435 499.59C477.022 500.279 477.814 500.624 478.811 500.624ZM487.173 503V491.34H489.021V503H487.173ZM487.129 489.514V487.358H489.065V489.514H487.129ZM492.759 503V491.34H494.453L494.519 494.31L494.299 494.112C494.446 493.423 494.702 492.858 495.069 492.418C495.436 491.963 495.876 491.626 496.389 491.406C496.917 491.186 497.482 491.076 498.083 491.076C498.978 491.076 499.711 491.274 500.283 491.67C500.87 492.066 501.302 492.601 501.581 493.276C501.874 493.936 502.021 494.677 502.021 495.498V503H500.173V496.026C500.173 495.307 500.085 494.706 499.909 494.222C499.748 493.723 499.484 493.349 499.117 493.1C498.75 492.836 498.274 492.704 497.687 492.704C496.792 492.704 496.052 492.99 495.465 493.562C494.893 494.119 494.607 494.941 494.607 496.026V503H492.759ZM509.838 503.264C508.738 503.264 507.785 503.015 506.978 502.516C506.186 502.017 505.57 501.313 505.13 500.404C504.705 499.48 504.492 498.402 504.492 497.17C504.492 495.938 504.705 494.867 505.13 493.958C505.57 493.049 506.179 492.345 506.956 491.846C507.748 491.333 508.68 491.076 509.75 491.076C510.762 491.076 511.657 491.318 512.434 491.802C513.212 492.271 513.813 492.961 514.238 493.87C514.678 494.779 514.898 495.887 514.898 497.192V497.742H506.428C506.502 498.989 506.832 499.927 507.418 500.558C508.02 501.189 508.826 501.504 509.838 501.504C510.601 501.504 511.224 501.328 511.708 500.976C512.207 500.609 512.552 500.133 512.742 499.546L514.722 499.7C514.414 500.741 513.828 501.599 512.962 502.274C512.112 502.934 511.07 503.264 509.838 503.264ZM506.428 496.114H512.874C512.786 494.985 512.456 494.156 511.884 493.628C511.327 493.1 510.616 492.836 509.75 492.836C508.856 492.836 508.115 493.115 507.528 493.672C506.956 494.215 506.59 495.029 506.428 496.114Z" fill="#5F5E5E"/>
<path d="M71.5689 481L77.2009 465.38H79.7529L85.3849 481H83.3169L81.7549 476.556H75.1989L73.6369 481H71.5689ZM75.8369 474.708H81.1169L78.4769 467.03L75.8369 474.708ZM87.1545 481V469.34H88.8485L88.9145 472.31L88.6945 472.112C88.8412 471.423 89.0979 470.858 89.4645 470.418C89.8312 469.963 90.2712 469.626 90.7845 469.406C91.3125 469.186 91.8772 469.076 92.4785 469.076C93.3732 469.076 94.1065 469.274 94.6785 469.67C95.2652 470.066 95.6979 470.601 95.9765 471.276C96.2699 471.936 96.4165 472.677 96.4165 473.498V481H94.5685V474.026C94.5685 473.307 94.4805 472.706 94.3045 472.222C94.1432 471.723 93.8792 471.349 93.5125 471.1C93.1459 470.836 92.6692 470.704 92.0825 470.704C91.1879 470.704 90.4472 470.99 89.8605 471.562C89.2885 472.119 89.0025 472.941 89.0025 474.026V481H87.1545ZM99.6918 484.3V482.672H101.034C101.444 482.672 101.745 482.606 101.936 482.474C102.141 482.357 102.295 482.159 102.398 481.88L102.816 480.78H102.178L97.9098 469.34H99.9338L103.41 479.064L106.732 469.34H108.756L104.026 482.474C103.806 483.105 103.476 483.567 103.036 483.86C102.596 484.153 101.987 484.3 101.21 484.3H99.6918ZM115.182 481L120.814 465.38H123.366L128.998 481H126.93L125.368 476.556H118.812L117.25 481H115.182ZM119.45 474.708H124.73L122.09 467.03L119.45 474.708ZM131.032 481V465.38H132.924V481H131.032ZM142.462 481V465.38H145.102L150.096 478.932L155.068 465.38H157.708V481H155.816V468.9L151.35 481H148.82L144.354 468.9V481H142.462ZM165.83 481.264C164.759 481.264 163.82 481.015 163.014 480.516C162.207 480.017 161.584 479.313 161.144 478.404C160.704 477.48 160.484 476.402 160.484 475.17C160.484 473.923 160.704 472.845 161.144 471.936C161.584 471.027 162.207 470.323 163.014 469.824C163.82 469.325 164.759 469.076 165.83 469.076C166.9 469.076 167.832 469.325 168.624 469.824C169.43 470.323 170.054 471.027 170.494 471.936C170.934 472.845 171.154 473.923 171.154 475.17C171.154 476.402 170.934 477.48 170.494 478.404C170.054 479.313 169.43 480.017 168.624 480.516C167.832 481.015 166.9 481.264 165.83 481.264ZM165.83 479.504C166.9 479.504 167.729 479.123 168.316 478.36C168.917 477.583 169.218 476.519 169.218 475.17C169.218 473.821 168.917 472.765 168.316 472.002C167.729 471.225 166.9 470.836 165.83 470.836C164.759 470.836 163.923 471.225 163.322 472.002C162.72 472.765 162.42 473.821 162.42 475.17C162.42 476.519 162.72 477.583 163.322 478.36C163.923 479.123 164.759 479.504 165.83 479.504ZM177.808 481.264C176.796 481.264 175.916 481.015 175.168 480.516C174.435 480.017 173.87 479.313 173.474 478.404C173.078 477.495 172.88 476.417 172.88 475.17C172.88 473.923 173.078 472.845 173.474 471.936C173.87 471.027 174.435 470.323 175.168 469.824C175.916 469.325 176.796 469.076 177.808 469.076C178.585 469.076 179.297 469.245 179.942 469.582C180.587 469.905 181.071 470.367 181.394 470.968V465.38H183.242V481H181.57L181.504 479.24C181.181 479.871 180.69 480.369 180.03 480.736C179.37 481.088 178.629 481.264 177.808 481.264ZM178.182 479.504C178.871 479.504 179.451 479.328 179.92 478.976C180.404 478.624 180.771 478.125 181.02 477.48C181.269 476.82 181.394 476.05 181.394 475.17C181.394 474.261 181.269 473.483 181.02 472.838C180.771 472.193 180.404 471.701 179.92 471.364C179.451 471.012 178.871 470.836 178.182 470.836C177.155 470.836 176.334 471.225 175.718 472.002C175.117 472.765 174.816 473.821 174.816 475.17C174.816 476.505 175.117 477.561 175.718 478.338C176.334 479.115 177.155 479.504 178.182 479.504ZM191.095 481.264C189.995 481.264 189.042 481.015 188.235 480.516C187.443 480.017 186.827 479.313 186.387 478.404C185.962 477.48 185.749 476.402 185.749 475.17C185.749 473.938 185.962 472.867 186.387 471.958C186.827 471.049 187.436 470.345 188.213 469.846C189.005 469.333 189.937 469.076 191.007 469.076C192.019 469.076 192.914 469.318 193.691 469.802C194.469 470.271 195.07 470.961 195.495 471.87C195.935 472.779 196.155 473.887 196.155 475.192V475.742H187.685C187.759 476.989 188.089 477.927 188.675 478.558C189.277 479.189 190.083 479.504 191.095 479.504C191.858 479.504 192.481 479.328 192.965 478.976C193.464 478.609 193.809 478.133 193.999 477.546L195.979 477.7C195.671 478.741 195.085 479.599 194.219 480.274C193.369 480.934 192.327 481.264 191.095 481.264ZM187.685 474.114H194.131C194.043 472.985 193.713 472.156 193.141 471.628C192.584 471.1 191.873 470.836 191.007 470.836C190.113 470.836 189.372 471.115 188.785 471.672C188.213 472.215 187.847 473.029 187.685 474.114ZM201.054 481C200.379 481 199.829 480.824 199.404 480.472C198.979 480.12 198.766 479.563 198.766 478.8V465.38H200.614V478.646C200.614 478.881 200.673 479.064 200.79 479.196C200.922 479.313 201.105 479.372 201.34 479.372H202.352V481H201.054Z" fill="#5F5E5E"/>
<line x1="174" y1="387.5" x2="375" y2="387.5" stroke="#919295" stroke-width="2"/>
<circle cx="169.5" cy="388" r="5.5" fill="#919295"/>
<path d="M375.247 387.033L367.699 379.66C367.066 379.041 366 379.49 366 380.375V394.716C366 395.588 367.038 396.042 367.678 395.451L375.226 388.483C375.647 388.095 375.656 387.433 375.247 387.033Z" fill="#919295"/>
<rect x="82" y="332" width="110" height="110" rx="17" fill="white"/>
<path d="M164.976 389.257C164.976 394.472 164.982 399.687 164.974 404.902C164.97 407.489 164.943 407.532 162.582 408.26C152.345 411.415 142.096 414.534 131.872 417.735C130.345 418.214 129.213 418.084 127.942 417.011C121.99 411.988 115.982 407.031 109.935 402.125C108.586 401.03 107.986 399.869 108 398.082C108.079 387.943 108.038 377.803 108.038 367.663C108.038 367.229 108.03 366.793 108.055 366.36C108.148 364.682 108.295 364.445 109.958 363.922C113.935 362.67 117.925 361.455 121.911 360.231C128.372 358.248 134.843 356.301 141.287 354.264C142.726 353.809 143.819 353.89 145.039 354.919C151.102 360.033 157.216 365.088 163.371 370.089C164.565 371.059 165.017 372.108 165 373.612C164.939 378.826 164.976 384.041 164.976 389.257ZM131.18 415.443C131.972 415.255 132.592 415.144 133.191 414.961C142.402 412.152 151.611 409.338 160.816 406.513C162.791 405.906 162.798 405.882 162.8 403.823C162.806 394.555 162.802 385.288 162.803 376.02C162.803 375.32 162.803 374.619 162.803 373.615C161.713 373.886 160.957 374.037 160.223 374.261C151.221 377.017 142.223 379.781 133.224 382.546C131.062 383.211 131.05 383.215 131.049 385.535C131.043 394.802 131.043 404.069 131.05 413.336C131.05 413.968 131.126 414.601 131.18 415.443ZM111.88 365.795C112.273 366.242 112.511 366.597 112.826 366.859C118.214 371.325 123.627 375.763 128.993 380.255C129.892 381.009 130.713 381.044 131.764 380.718C140.968 377.858 150.186 375.039 159.395 372.195C159.971 372.017 160.516 371.736 161.657 371.261C160.922 370.801 160.529 370.612 160.201 370.342C154.854 365.939 149.496 361.549 144.193 357.094C143.223 356.28 142.361 356.251 141.231 356.602C132.024 359.46 122.802 362.267 113.588 365.1C113.062 365.262 112.563 365.514 111.88 365.795ZM110.514 368.05C110.408 368.757 110.328 369.04 110.328 369.322C110.316 378.946 110.323 388.57 110.29 398.194C110.286 399.259 110.745 399.92 111.521 400.555C116.761 404.844 121.973 409.168 127.205 413.467C127.56 413.759 128.006 413.939 128.593 414.276C128.667 413.477 128.764 412.921 128.765 412.365C128.774 403.103 128.754 393.841 128.791 384.58C128.796 383.38 128.412 382.582 127.477 381.822C122.446 377.734 117.472 373.573 112.469 369.449C111.936 369.009 111.344 368.641 110.514 368.05Z" fill="black"/>
</g>
<defs>
<linearGradient id="paint0_linear_1313_1424" x1="885.99" y1="385.794" x2="906.658" y2="385.794" gradientUnits="userSpaceOnUse">
<stop stop-color="#C8C8C8"/>
<stop offset="1" stop-color="#CDCDCD"/>
</linearGradient>
<linearGradient id="paint1_linear_1313_1424" x1="902.83" y1="392.37" x2="927.329" y2="392.37" gradientUnits="userSpaceOnUse">
<stop stop-color="#D9D9D9"/>
<stop offset="1" stop-color="#E2E2E2"/>
</linearGradient>
<clipPath id="clip0_1313_1424">
<rect width="1080" height="774" fill="white"/>
</clipPath>
<clipPath id="clip1_1313_1424">
<rect width="55" height="55" fill="white" transform="translate(880 218)"/>
</clipPath>
</defs>
</svg>
