<svg width="1006" height="552" viewBox="0 0 1006 552" fill="none" xmlns="http://www.w3.org/2000/svg">
<rect x="726.5" y="0.5" width="279" height="551" rx="21.5" stroke="#484848" stroke-dasharray="10 10"/>
<rect x="281.5" y="145.5" width="279" height="270" rx="21.5" stroke="#484848" stroke-dasharray="10 10"/>
<rect x="0.5" y="177.5" width="199" height="217" rx="21.5" stroke="#484848" stroke-dasharray="10 10"/>
<path d="M476 234.5L634.099 234.5C645.145 234.5 654.099 225.546 654.099 214.5L654.099 155.5C654.099 144.454 663.054 135.5 674.099 135.5L820 135.5" stroke="#9C9C9C" stroke-width="2"/>
<path d="M810 126.975L820 136.231L810 145" stroke="#9C9C9C" stroke-width="2" stroke-linecap="round" stroke-linejoin="round"/>
<circle cx="470.5" cy="235" r="5.5" fill="#9C9C9C"/>
<rect x="834" y="98" width="74" height="74" rx="10" fill="white"/>
<g clip-path="url(#clip0_1313_1783)">
<path fill-rule="evenodd" clip-rule="evenodd" d="M863.165 107C860.125 107.002 857.665 109.465 857.667 112.499C857.665 115.533 860.127 117.996 863.168 117.998H868.669V112.501C868.671 109.467 866.208 107.004 863.165 107C863.168 107 863.168 107 863.165 107ZM863.165 121.667H848.501C845.461 121.669 842.998 124.131 843 127.166C842.996 130.2 845.458 132.662 848.499 132.667H863.165C866.206 132.664 868.669 130.202 868.666 127.168C868.669 124.131 866.206 121.669 863.165 121.667Z" fill="#36C5F0"/>
<path fill-rule="evenodd" clip-rule="evenodd" d="M898 127.166C898.003 124.131 895.54 121.669 892.499 121.667C889.459 121.669 886.996 124.131 886.999 127.166V132.667H892.499C895.54 132.664 898.003 130.202 898 127.166ZM883.334 127.166V112.499C883.336 109.467 880.875 107.004 877.835 107C874.795 107.002 872.332 109.465 872.334 112.499V127.166C872.329 130.2 874.792 132.662 877.833 132.667C880.873 132.664 883.336 130.202 883.334 127.166Z" fill="#2EB67D"/>
<path fill-rule="evenodd" clip-rule="evenodd" d="M877.833 162C880.873 161.998 883.336 159.535 883.334 156.501C883.336 153.467 880.873 151.004 877.833 151.002H872.332V156.501C872.33 159.533 874.793 161.995 877.833 162ZM877.833 147.331H892.5C895.54 147.329 898.003 144.866 898.001 141.832C898.005 138.798 895.542 136.336 892.502 136.331H877.835C874.795 136.333 872.332 138.796 872.334 141.83C872.332 144.866 874.793 147.329 877.833 147.331Z" fill="#ECB22E"/>
<path fill-rule="evenodd" clip-rule="evenodd" d="M843 141.832C842.998 144.866 845.461 147.329 848.501 147.331C851.541 147.329 854.004 144.866 854.002 141.832V136.333H848.501C845.461 136.335 842.998 138.798 843 141.832ZM857.667 141.832V156.499C857.662 159.533 860.125 161.995 863.165 162C866.206 161.997 868.669 159.535 868.666 156.501V141.836C868.671 138.802 866.208 136.34 863.168 136.335C860.125 136.335 857.665 138.798 857.667 141.832Z" fill="#E01E5A"/>
</g>
<rect x="833" y="239" width="74" height="74" rx="10" fill="white"/>
<path d="M893.772 297.001H845.544C844.631 297.001 843.755 296.636 843.109 295.987C842.463 295.338 842.1 294.458 842.1 293.541V258.944C842.1 258.026 842.463 257.147 843.109 256.498C843.755 255.849 844.631 255.484 845.544 255.484H893.772C894.686 255.484 895.562 255.849 896.208 256.498C896.854 257.147 897.217 258.026 897.217 258.944V293.541C897.217 294.458 896.854 295.338 896.208 295.987C895.562 296.636 894.686 297.001 893.772 297.001Z" fill="#EAEAEA"/>
<path d="M848.989 297.001H845.544C844.631 297.001 843.755 296.636 843.109 295.987C842.463 295.338 842.1 294.458 842.1 293.541V258.944C842.1 258.49 842.189 258.04 842.362 257.62C842.535 257.2 842.789 256.819 843.109 256.498C843.428 256.176 843.808 255.922 844.226 255.748C844.644 255.574 845.092 255.484 845.544 255.484C845.997 255.484 846.445 255.574 846.863 255.748C847.281 255.922 847.66 256.176 847.98 256.498C848.3 256.819 848.554 257.2 848.727 257.62C848.9 258.04 848.989 258.49 848.989 258.944V297.001Z" fill="#D54C3F"/>
<path d="M890.328 297.001H893.773C894.687 297.001 895.563 296.636 896.209 295.987C896.855 295.338 897.218 294.458 897.218 293.541V258.944C897.218 258.026 896.855 257.147 896.209 256.498C895.563 255.849 894.687 255.484 893.773 255.484C892.859 255.484 891.983 255.849 891.337 256.498C890.691 257.147 890.328 258.026 890.328 258.944V297.001Z" fill="#B63524"/>
<path d="M895.746 261.781C896.117 261.52 896.433 261.189 896.677 260.806C896.92 260.424 897.086 259.996 897.165 259.549C897.245 259.101 897.235 258.643 897.138 258.199C897.04 257.755 896.857 257.335 896.598 256.962C896.339 256.59 896.009 256.272 895.628 256.028C895.247 255.783 894.821 255.616 894.375 255.537C893.93 255.457 893.473 255.467 893.031 255.565C892.59 255.662 892.171 255.847 891.8 256.107L869.661 272.295L869.659 272.296L869.657 272.295L847.518 256.107C846.769 255.581 845.842 255.376 844.943 255.537C844.043 255.697 843.244 256.21 842.72 256.962C842.197 257.715 841.993 258.645 842.153 259.549C842.312 260.452 842.823 261.255 843.572 261.781L843.48 261.713L869.659 280.855M895.839 261.713L869.659 280.855Z" fill="#DE5145"/>
<path d="M893.773 255.484C893.039 255.484 892.358 255.715 891.8 256.107L869.661 272.295L869.659 272.296L869.657 272.295L847.518 256.107C846.94 255.701 846.251 255.483 845.545 255.484H893.773Z" fill="#EFEFEF"/>
<path d="M848.992 267.232L843.186 261.457L843.184 261.462C843.305 261.577 843.435 261.683 843.573 261.78L843.481 261.712L848.993 265.742L848.992 267.274" fill="#C64132"/>
<path d="M865.833 283.843L848.99 297L848.991 267.089L865.83 283.838" fill="#E3E3E3"/>
<path d="M865.832 283.843L869.658 280.855L848.99 265.743V267.089L865.829 283.838L865.832 283.843Z" fill="url(#paint0_linear_1313_1783)"/>
<path d="M878.916 297H890.329V265.742L869.66 280.855L865.83 283.839L878.916 297Z" fill="url(#paint1_linear_1313_1783)"/>
<rect x="833" y="380" width="74" height="74" rx="10" fill="white"/>
<path d="M885.696 400.307H853.305V432.698H885.696V400.307Z" fill="white"/>
<path d="M871.973 411.968L873.457 414.089L875.789 412.392V424.689H878.333V408.576H876.213L871.973 411.968Z" fill="#1E88E5"/>
<path d="M867.945 416.127C868.866 415.282 869.437 414.11 869.437 412.816C869.437 410.244 867.18 408.151 864.406 408.151C862.047 408.151 860.03 409.637 859.503 411.763L861.943 412.383C862.186 411.405 863.221 410.696 864.406 410.696C865.793 410.696 866.922 411.647 866.922 412.816C866.922 413.985 865.793 414.936 864.406 414.936H862.938V417.48H864.406C865.997 417.48 867.34 418.586 867.34 419.895C867.34 421.226 866.065 422.309 864.497 422.309C863.081 422.309 861.871 421.411 861.679 420.222L859.195 420.628C859.581 423.037 861.86 424.853 864.496 424.853C867.451 424.853 869.855 422.629 869.855 419.895C869.855 418.388 869.113 417.037 867.945 416.127Z" fill="#1E88E5"/>
<path d="M884.224 443.003H854.777L853.305 437.114L854.777 431.225H884.224L885.696 437.114L884.224 443.003Z" fill="#FBC02D"/>
<path d="M890.112 432.698L896.001 431.226V401.779L890.112 400.307L884.223 401.779V431.226L890.112 432.698Z" fill="#4CAF50"/>
<path d="M884.225 401.779L885.698 395.889L884.225 390H847.417C844.977 390 843 391.977 843 394.417V431.225L848.889 432.698L854.779 431.225V401.779H884.225Z" fill="#1E88E5"/>
<path d="M884.223 431.225V443.003L896.001 431.225H884.223Z" fill="#E53935"/>
<path d="M891.584 390H884.223V401.779H896.001V394.417C896.001 391.977 894.024 390 891.584 390Z" fill="#1565C0"/>
<path d="M847.417 443.003H854.779V431.225H843V438.586C843 441.026 844.977 443.003 847.417 443.003Z" fill="#1565C0"/>
<path d="M476 317.5L634.099 317.5C645.145 317.5 654.099 326.454 654.099 337.5L654.099 396.5C654.099 407.546 663.054 416.5 674.099 416.5L820 416.5" stroke="#9C9C9C" stroke-width="2"/>
<path d="M810 425.025L820 415.769L810 407" stroke="#9C9C9C" stroke-width="2" stroke-linecap="round" stroke-linejoin="round"/>
<circle cx="5.5" cy="5.5" r="5.5" transform="matrix(1 0 0 -1 465 322.5)" fill="#9C9C9C"/>
<line x1="480" y1="276.5" x2="819" y2="276.5" stroke="#9C9C9C" stroke-width="2"/>
<path d="M809 267L819.5 276.5L809 285.5" stroke="#9C9C9C" stroke-width="2" stroke-linecap="round" stroke-linejoin="round"/>
<circle cx="475.5" cy="277" r="5.5" fill="#9C9C9C" stroke="#9C9C9C" stroke-width="2"/>
<circle cx="421" cy="276" r="72" fill="white"/>
<path fill-rule="evenodd" clip-rule="evenodd" d="M449.815 264.674C443.843 264.687 438.991 269.594 438.977 275.633C438.964 281.672 443.795 286.557 449.767 286.544L468.553 286.502C470.476 286.497 472.036 288.075 472.031 290.019C472.027 291.95 470.48 293.515 468.57 293.519L454.593 293.551C446.036 293.57 439.084 300.6 439.065 309.253L439.033 324.286C439.028 326.442 437.301 328.188 435.168 328.193C433.022 328.198 431.281 326.437 431.286 324.267L431.327 305.19C431.341 299.151 426.51 294.266 420.538 294.279C414.566 294.293 409.714 299.199 409.701 305.238L409.659 324.514C409.654 326.58 407.999 328.254 405.956 328.258C403.899 328.263 402.23 326.576 402.235 324.496L402.268 309.335C402.287 300.682 395.365 293.683 386.808 293.702L372.218 293.734C370.296 293.739 368.736 292.161 368.74 290.217C368.744 288.286 370.292 286.721 372.202 286.717L391.343 286.674C397.315 286.661 402.167 281.754 402.18 275.715C402.193 269.676 397.363 264.791 391.391 264.805L372.606 264.846C370.504 264.851 368.799 263.127 368.804 261.002C368.809 258.891 370.5 257.181 372.588 257.176L386.888 257.144C395.445 257.125 402.397 250.095 402.416 241.442L402.446 227.552C402.451 225.486 404.106 223.812 406.15 223.807C408.206 223.803 409.875 225.49 409.87 227.57L409.83 246.158C409.817 252.197 414.647 257.082 420.619 257.069C426.591 257.055 431.443 252.149 431.456 246.11L431.497 227.65C431.501 225.494 433.229 223.747 435.361 223.742C437.507 223.737 439.248 225.498 439.244 227.668L439.214 241.36C439.195 250.013 446.116 257.012 454.673 256.993L468.293 256.962C470.395 256.958 472.1 258.682 472.095 260.807C472.09 262.918 470.399 264.628 468.311 264.633L449.815 264.674ZM431.391 275.976C431.405 269.847 426.502 264.889 420.441 264.903C414.38 264.916 409.455 269.896 409.442 276.025C409.429 282.155 414.331 287.112 420.392 287.099C426.454 287.085 431.378 282.106 431.391 275.976Z" fill="black"/>
<path d="M784.136 501V485.38H793.948V487.228H786.028V492.266H793.684V494.07H786.028V499.152H794.124V501H784.136ZM797.128 501V489.34H798.822L798.888 492.31L798.668 492.112C798.815 491.423 799.071 490.858 799.438 490.418C799.805 489.963 800.245 489.626 800.758 489.406C801.286 489.186 801.851 489.076 802.452 489.076C803.347 489.076 804.08 489.274 804.652 489.67C805.239 490.066 805.671 490.601 805.95 491.276C806.243 491.936 806.39 492.677 806.39 493.498V501H804.542V494.026C804.542 493.307 804.454 492.706 804.278 492.222C804.117 491.723 803.853 491.349 803.486 491.1C803.119 490.836 802.643 490.704 802.056 490.704C801.161 490.704 800.421 490.99 799.834 491.562C799.262 492.119 798.976 492.941 798.976 494.026V501H797.128ZM813.299 501C812.243 501 811.458 500.758 810.945 500.274C810.446 499.79 810.197 499.035 810.197 498.008V486.612H812.045V497.964C812.045 498.492 812.162 498.859 812.397 499.064C812.631 499.269 812.991 499.372 813.475 499.372H815.147V501H813.299ZM808.481 490.968V489.34H815.147V490.968H808.481ZM821.856 501.264C820.756 501.264 819.803 501.015 818.996 500.516C818.204 500.017 817.588 499.313 817.148 498.404C816.723 497.48 816.51 496.402 816.51 495.17C816.51 493.938 816.723 492.867 817.148 491.958C817.588 491.049 818.197 490.345 818.974 489.846C819.766 489.333 820.697 489.076 821.768 489.076C822.78 489.076 823.675 489.318 824.452 489.802C825.229 490.271 825.831 490.961 826.256 491.87C826.696 492.779 826.916 493.887 826.916 495.192V495.742H818.446C818.519 496.989 818.849 497.927 819.436 498.558C820.037 499.189 820.844 499.504 821.856 499.504C822.619 499.504 823.242 499.328 823.726 498.976C824.225 498.609 824.569 498.133 824.76 497.546L826.74 497.7C826.432 498.741 825.845 499.599 824.98 500.274C824.129 500.934 823.088 501.264 821.856 501.264ZM818.446 494.114H824.892C824.804 492.985 824.474 492.156 823.902 491.628C823.345 491.1 822.633 490.836 821.768 490.836C820.873 490.836 820.133 491.115 819.546 491.672C818.974 492.215 818.607 493.029 818.446 494.114ZM829.419 501V489.34H831.047L831.135 492.288L830.959 492.222C831.106 491.225 831.421 490.499 831.905 490.044C832.404 489.575 833.064 489.34 833.885 489.34H835.029V491.1H833.907C833.321 491.1 832.829 491.21 832.433 491.43C832.052 491.635 831.759 491.951 831.553 492.376C831.363 492.787 831.267 493.315 831.267 493.96V501H829.419ZM836.874 504.3V489.34H838.59L838.634 491.848L838.37 491.716C838.664 490.851 839.148 490.198 839.822 489.758C840.512 489.303 841.304 489.076 842.198 489.076C843.357 489.076 844.303 489.362 845.036 489.934C845.784 490.506 846.334 491.254 846.686 492.178C847.053 493.102 847.236 494.099 847.236 495.17C847.236 496.241 847.053 497.238 846.686 498.162C846.334 499.086 845.784 499.834 845.036 500.406C844.303 500.978 843.357 501.264 842.198 501.264C841.597 501.264 841.032 501.161 840.504 500.956C839.991 500.751 839.551 500.465 839.184 500.098C838.832 499.731 838.59 499.299 838.458 498.8L838.722 498.492V504.3H836.874ZM842.022 499.504C843.034 499.504 843.834 499.123 844.42 498.36C845.007 497.597 845.3 496.534 845.3 495.17C845.3 493.806 845.007 492.743 844.42 491.98C843.834 491.217 843.034 490.836 842.022 490.836C841.348 490.836 840.761 490.997 840.262 491.32C839.778 491.643 839.397 492.127 839.118 492.772C838.854 493.417 838.722 494.217 838.722 495.17C838.722 496.123 838.854 496.923 839.118 497.568C839.382 498.213 839.764 498.697 840.262 499.02C840.761 499.343 841.348 499.504 842.022 499.504ZM849.743 501V489.34H851.371L851.459 492.288L851.283 492.222C851.43 491.225 851.745 490.499 852.229 490.044C852.728 489.575 853.388 489.34 854.209 489.34H855.353V491.1H854.231C853.645 491.1 853.153 491.21 852.757 491.43C852.376 491.635 852.083 491.951 851.877 492.376C851.687 492.787 851.591 493.315 851.591 493.96V501H849.743ZM857.413 501V489.34H859.261V501H857.413ZM857.369 487.514V485.358H859.305V487.514H857.369ZM866.816 501.264C865.774 501.264 864.887 501.095 864.154 500.758C863.435 500.421 862.87 499.959 862.46 499.372C862.064 498.771 861.836 498.089 861.778 497.326L863.714 497.194C863.831 497.898 864.132 498.463 864.616 498.888C865.1 499.299 865.833 499.504 866.816 499.504C867.608 499.504 868.238 499.379 868.708 499.13C869.192 498.866 869.434 498.448 869.434 497.876C869.434 497.568 869.36 497.311 869.214 497.106C869.067 496.901 868.781 496.725 868.356 496.578C867.93 496.417 867.3 496.263 866.464 496.116C865.349 495.911 864.469 495.661 863.824 495.368C863.193 495.06 862.738 494.686 862.46 494.246C862.196 493.791 862.064 493.256 862.064 492.64C862.064 491.599 862.445 490.748 863.208 490.088C863.97 489.413 865.056 489.076 866.464 489.076C867.417 489.076 868.216 489.252 868.862 489.604C869.522 489.941 870.035 490.396 870.402 490.968C870.783 491.525 871.032 492.141 871.15 492.816L869.214 492.948C869.126 492.537 868.964 492.178 868.73 491.87C868.495 491.547 868.187 491.298 867.806 491.122C867.424 490.931 866.97 490.836 866.442 490.836C865.606 490.836 864.99 490.997 864.594 491.32C864.198 491.643 864 492.053 864 492.552C864 492.933 864.088 493.249 864.264 493.498C864.454 493.733 864.755 493.931 865.166 494.092C865.576 494.239 866.126 494.371 866.816 494.488C868.004 494.693 868.928 494.943 869.588 495.236C870.248 495.529 870.71 495.889 870.974 496.314C871.238 496.739 871.37 497.26 871.37 497.876C871.37 498.595 871.164 499.211 870.754 499.724C870.358 500.223 869.815 500.604 869.126 500.868C868.451 501.132 867.681 501.264 866.816 501.264ZM878.446 501.264C877.346 501.264 876.393 501.015 875.586 500.516C874.794 500.017 874.178 499.313 873.738 498.404C873.313 497.48 873.1 496.402 873.1 495.17C873.1 493.938 873.313 492.867 873.738 491.958C874.178 491.049 874.787 490.345 875.564 489.846C876.356 489.333 877.287 489.076 878.358 489.076C879.37 489.076 880.265 489.318 881.042 489.802C881.819 490.271 882.421 490.961 882.846 491.87C883.286 492.779 883.506 493.887 883.506 495.192V495.742H875.036C875.109 496.989 875.439 497.927 876.026 498.558C876.627 499.189 877.434 499.504 878.446 499.504C879.209 499.504 879.832 499.328 880.316 498.976C880.815 498.609 881.159 498.133 881.35 497.546L883.33 497.7C883.022 498.741 882.435 499.599 881.57 500.274C880.719 500.934 879.678 501.264 878.446 501.264ZM875.036 494.114H881.482C881.394 492.985 881.064 492.156 880.492 491.628C879.935 491.1 879.223 490.836 878.358 490.836C877.463 490.836 876.723 491.115 876.136 491.672C875.564 492.215 875.197 493.029 875.036 494.114ZM885.432 495.456V493.718H892.714V495.456H885.432ZM899.863 504.564C899.027 504.564 898.271 504.425 897.597 504.146C896.922 503.867 896.357 503.471 895.903 502.958C895.448 502.445 895.14 501.851 894.979 501.176L896.915 501.044C897.091 501.587 897.399 502.012 897.839 502.32C898.293 502.643 898.968 502.804 899.863 502.804C900.919 502.804 901.725 502.591 902.283 502.166C902.855 501.741 903.141 501.103 903.141 500.252V498.36C902.862 498.976 902.415 499.467 901.799 499.834C901.183 500.201 900.493 500.384 899.731 500.384C898.748 500.384 897.868 500.142 897.091 499.658C896.328 499.174 895.727 498.507 895.287 497.656C894.861 496.805 894.649 495.83 894.649 494.73C894.649 493.615 894.861 492.64 895.287 491.804C895.712 490.953 896.299 490.286 897.047 489.802C897.809 489.318 898.675 489.076 899.643 489.076C900.464 489.076 901.197 489.267 901.843 489.648C902.503 490.029 902.965 490.543 903.229 491.188V489.34H904.989V500.208C904.989 501.117 904.783 501.895 904.373 502.54C903.962 503.2 903.375 503.699 902.613 504.036C901.85 504.388 900.933 504.564 899.863 504.564ZM899.819 498.624C900.816 498.624 901.615 498.279 902.217 497.59C902.818 496.886 903.126 495.933 903.141 494.73C903.155 493.923 903.023 493.234 902.745 492.662C902.481 492.075 902.092 491.628 901.579 491.32C901.08 490.997 900.493 490.836 899.819 490.836C898.792 490.836 897.993 491.188 897.421 491.892C896.863 492.581 896.585 493.527 896.585 494.73C896.585 495.933 896.871 496.886 897.443 497.59C898.029 498.279 898.821 498.624 899.819 498.624ZM908.503 501V489.34H910.131L910.219 492.288L910.043 492.222C910.19 491.225 910.505 490.499 910.989 490.044C911.488 489.575 912.148 489.34 912.969 489.34H914.113V491.1H912.991C912.404 491.1 911.913 491.21 911.517 491.43C911.136 491.635 910.842 491.951 910.637 492.376C910.446 492.787 910.351 493.315 910.351 493.96V501H908.503ZM919.104 501.264C917.902 501.264 916.941 500.985 916.222 500.428C915.518 499.871 915.166 499.093 915.166 498.096C915.166 497.099 915.46 496.314 916.046 495.742C916.633 495.17 917.564 494.767 918.84 494.532L922.976 493.762C922.976 492.779 922.742 492.046 922.272 491.562C921.818 491.078 921.128 490.836 920.204 490.836C919.398 490.836 918.76 491.019 918.29 491.386C917.821 491.738 917.498 492.251 917.322 492.926L915.364 492.772C915.584 491.672 916.112 490.785 916.948 490.11C917.799 489.421 918.884 489.076 920.204 489.076C921.7 489.076 922.844 489.501 923.636 490.352C924.428 491.188 924.824 492.347 924.824 493.828V498.646C924.824 498.91 924.868 499.101 924.956 499.218C925.059 499.321 925.22 499.372 925.44 499.372H925.902V501C925.844 501.015 925.748 501.022 925.616 501.022C925.484 501.037 925.345 501.044 925.198 501.044C924.67 501.044 924.238 500.963 923.9 500.802C923.578 500.626 923.343 500.362 923.196 500.01C923.05 499.643 922.976 499.167 922.976 498.58L923.196 498.624C923.094 499.123 922.844 499.577 922.448 499.988C922.052 500.384 921.561 500.699 920.974 500.934C920.388 501.154 919.764 501.264 919.104 501.264ZM919.28 499.636C920.058 499.636 920.718 499.489 921.26 499.196C921.818 498.888 922.243 498.477 922.536 497.964C922.83 497.436 922.976 496.849 922.976 496.204V495.368L919.192 496.072C918.4 496.219 917.85 496.446 917.542 496.754C917.249 497.047 917.102 497.436 917.102 497.92C917.102 498.463 917.293 498.888 917.674 499.196C918.07 499.489 918.606 499.636 919.28 499.636ZM932.083 501.264C931.071 501.264 930.191 501.015 929.443 500.516C928.709 500.017 928.145 499.313 927.749 498.404C927.353 497.495 927.155 496.417 927.155 495.17C927.155 493.923 927.353 492.845 927.749 491.936C928.145 491.027 928.709 490.323 929.443 489.824C930.191 489.325 931.071 489.076 932.083 489.076C932.86 489.076 933.571 489.245 934.217 489.582C934.862 489.905 935.346 490.367 935.669 490.968V485.38H937.517V501H935.845L935.779 499.24C935.456 499.871 934.965 500.369 934.305 500.736C933.645 501.088 932.904 501.264 932.083 501.264ZM932.457 499.504C933.146 499.504 933.725 499.328 934.195 498.976C934.679 498.624 935.045 498.125 935.295 497.48C935.544 496.82 935.669 496.05 935.669 495.17C935.669 494.261 935.544 493.483 935.295 492.838C935.045 492.193 934.679 491.701 934.195 491.364C933.725 491.012 933.146 490.836 932.457 490.836C931.43 490.836 930.609 491.225 929.993 492.002C929.391 492.765 929.091 493.821 929.091 495.17C929.091 496.505 929.391 497.561 929.993 498.338C930.609 499.115 931.43 499.504 932.457 499.504ZM945.37 501.264C944.27 501.264 943.316 501.015 942.51 500.516C941.718 500.017 941.102 499.313 940.662 498.404C940.236 497.48 940.024 496.402 940.024 495.17C940.024 493.938 940.236 492.867 940.662 491.958C941.102 491.049 941.71 490.345 942.488 489.846C943.28 489.333 944.211 489.076 945.282 489.076C946.294 489.076 947.188 489.318 947.966 489.802C948.743 490.271 949.344 490.961 949.77 491.87C950.21 492.779 950.43 493.887 950.43 495.192V495.742H941.96C942.033 496.989 942.363 497.927 942.95 498.558C943.551 499.189 944.358 499.504 945.37 499.504C946.132 499.504 946.756 499.328 947.24 498.976C947.738 498.609 948.083 498.133 948.274 497.546L950.254 497.7C949.946 498.741 949.359 499.599 948.494 500.274C947.643 500.934 946.602 501.264 945.37 501.264ZM941.96 494.114H948.406C948.318 492.985 947.988 492.156 947.416 491.628C946.858 491.1 946.147 490.836 945.282 490.836C944.387 490.836 943.646 491.115 943.06 491.672C942.488 492.215 942.121 493.029 941.96 494.114ZM816.911 529V513.38H818.803V529H816.911ZM822.791 529V517.34H824.485L824.551 520.31L824.331 520.112C824.478 519.423 824.735 518.858 825.101 518.418C825.468 517.963 825.908 517.626 826.421 517.406C826.949 517.186 827.514 517.076 828.115 517.076C829.01 517.076 829.743 517.274 830.315 517.67C830.902 518.066 831.335 518.601 831.613 519.276C831.907 519.936 832.053 520.677 832.053 521.498V529H830.205V522.026C830.205 521.307 830.117 520.706 829.941 520.222C829.78 519.723 829.516 519.349 829.149 519.1C828.783 518.836 828.306 518.704 827.719 518.704C826.825 518.704 826.084 518.99 825.497 519.562C824.925 520.119 824.639 520.941 824.639 522.026V529H822.791ZM838.962 529C837.906 529 837.121 528.758 836.608 528.274C836.109 527.79 835.86 527.035 835.86 526.008V514.612H837.708V525.964C837.708 526.492 837.825 526.859 838.06 527.064C838.294 527.269 838.654 527.372 839.138 527.372H840.81V529H838.962ZM834.144 518.968V517.34H840.81V518.968H834.144ZM847.519 529.264C846.419 529.264 845.466 529.015 844.659 528.516C843.867 528.017 843.251 527.313 842.811 526.404C842.386 525.48 842.173 524.402 842.173 523.17C842.173 521.938 842.386 520.867 842.811 519.958C843.251 519.049 843.86 518.345 844.637 517.846C845.429 517.333 846.36 517.076 847.431 517.076C848.443 517.076 849.338 517.318 850.115 517.802C850.892 518.271 851.494 518.961 851.919 519.87C852.359 520.779 852.579 521.887 852.579 523.192V523.742H844.109C844.182 524.989 844.512 525.927 845.099 526.558C845.7 527.189 846.507 527.504 847.519 527.504C848.282 527.504 848.905 527.328 849.389 526.976C849.888 526.609 850.232 526.133 850.423 525.546L852.403 525.7C852.095 526.741 851.508 527.599 850.643 528.274C849.792 528.934 848.751 529.264 847.519 529.264ZM844.109 522.114H850.555C850.467 520.985 850.137 520.156 849.565 519.628C849.008 519.1 848.296 518.836 847.431 518.836C846.536 518.836 845.796 519.115 845.209 519.672C844.637 520.215 844.27 521.029 844.109 522.114ZM859.504 532.564C858.668 532.564 857.913 532.425 857.238 532.146C856.564 531.867 855.999 531.471 855.544 530.958C855.09 530.445 854.782 529.851 854.62 529.176L856.556 529.044C856.732 529.587 857.04 530.012 857.48 530.32C857.935 530.643 858.61 530.804 859.504 530.804C860.56 530.804 861.367 530.591 861.924 530.166C862.496 529.741 862.782 529.103 862.782 528.252V526.36C862.504 526.976 862.056 527.467 861.44 527.834C860.824 528.201 860.135 528.384 859.372 528.384C858.39 528.384 857.51 528.142 856.732 527.658C855.97 527.174 855.368 526.507 854.928 525.656C854.503 524.805 854.29 523.83 854.29 522.73C854.29 521.615 854.503 520.64 854.928 519.804C855.354 518.953 855.94 518.286 856.688 517.802C857.451 517.318 858.316 517.076 859.284 517.076C860.106 517.076 860.839 517.267 861.484 517.648C862.144 518.029 862.606 518.543 862.87 519.188V517.34H864.63V528.208C864.63 529.117 864.425 529.895 864.014 530.54C863.604 531.2 863.017 531.699 862.254 532.036C861.492 532.388 860.575 532.564 859.504 532.564ZM859.46 526.624C860.458 526.624 861.257 526.279 861.858 525.59C862.46 524.886 862.768 523.933 862.782 522.73C862.797 521.923 862.665 521.234 862.386 520.662C862.122 520.075 861.734 519.628 861.22 519.32C860.722 518.997 860.135 518.836 859.46 518.836C858.434 518.836 857.634 519.188 857.062 519.892C856.505 520.581 856.226 521.527 856.226 522.73C856.226 523.933 856.512 524.886 857.084 525.59C857.671 526.279 858.463 526.624 859.46 526.624ZM868.145 529V517.34H869.773L869.861 520.288L869.685 520.222C869.831 519.225 870.147 518.499 870.631 518.044C871.129 517.575 871.789 517.34 872.611 517.34H873.755V519.1H872.633C872.046 519.1 871.555 519.21 871.159 519.43C870.777 519.635 870.484 519.951 870.279 520.376C870.088 520.787 869.993 521.315 869.993 521.96V529H868.145ZM878.746 529.264C877.543 529.264 876.583 528.985 875.864 528.428C875.16 527.871 874.808 527.093 874.808 526.096C874.808 525.099 875.101 524.314 875.688 523.742C876.275 523.17 877.206 522.767 878.482 522.532L882.618 521.762C882.618 520.779 882.383 520.046 881.914 519.562C881.459 519.078 880.77 518.836 879.846 518.836C879.039 518.836 878.401 519.019 877.932 519.386C877.463 519.738 877.14 520.251 876.964 520.926L875.006 520.772C875.226 519.672 875.754 518.785 876.59 518.11C877.441 517.421 878.526 517.076 879.846 517.076C881.342 517.076 882.486 517.501 883.278 518.352C884.07 519.188 884.466 520.347 884.466 521.828V526.646C884.466 526.91 884.51 527.101 884.598 527.218C884.701 527.321 884.862 527.372 885.082 527.372H885.544V529C885.485 529.015 885.39 529.022 885.258 529.022C885.126 529.037 884.987 529.044 884.84 529.044C884.312 529.044 883.879 528.963 883.542 528.802C883.219 528.626 882.985 528.362 882.838 528.01C882.691 527.643 882.618 527.167 882.618 526.58L882.838 526.624C882.735 527.123 882.486 527.577 882.09 527.988C881.694 528.384 881.203 528.699 880.616 528.934C880.029 529.154 879.406 529.264 878.746 529.264ZM878.922 527.636C879.699 527.636 880.359 527.489 880.902 527.196C881.459 526.888 881.885 526.477 882.178 525.964C882.471 525.436 882.618 524.849 882.618 524.204V523.368L878.834 524.072C878.042 524.219 877.492 524.446 877.184 524.754C876.891 525.047 876.744 525.436 876.744 525.92C876.744 526.463 876.935 526.888 877.316 527.196C877.712 527.489 878.247 527.636 878.922 527.636ZM891.319 529C890.263 529 889.478 528.758 888.965 528.274C888.466 527.79 888.217 527.035 888.217 526.008V514.612H890.065V525.964C890.065 526.492 890.182 526.859 890.417 527.064C890.652 527.269 891.011 527.372 891.495 527.372H893.167V529H891.319ZM886.501 518.968V517.34H893.167V518.968H886.501ZM895.537 529V517.34H897.385V529H895.537ZM895.493 515.514V513.358H897.429V515.514H895.493ZM905.248 529.264C904.177 529.264 903.238 529.015 902.432 528.516C901.625 528.017 901.002 527.313 900.562 526.404C900.122 525.48 899.902 524.402 899.902 523.17C899.902 521.923 900.122 520.845 900.562 519.936C901.002 519.027 901.625 518.323 902.432 517.824C903.238 517.325 904.177 517.076 905.248 517.076C906.318 517.076 907.25 517.325 908.042 517.824C908.848 518.323 909.472 519.027 909.912 519.936C910.352 520.845 910.572 521.923 910.572 523.17C910.572 524.402 910.352 525.48 909.912 526.404C909.472 527.313 908.848 528.017 908.042 528.516C907.25 529.015 906.318 529.264 905.248 529.264ZM905.248 527.504C906.318 527.504 907.147 527.123 907.734 526.36C908.335 525.583 908.636 524.519 908.636 523.17C908.636 521.821 908.335 520.765 907.734 520.002C907.147 519.225 906.318 518.836 905.248 518.836C904.177 518.836 903.341 519.225 902.74 520.002C902.138 520.765 901.838 521.821 901.838 523.17C901.838 524.519 902.138 525.583 902.74 526.36C903.341 527.123 904.177 527.504 905.248 527.504ZM913.09 529V517.34H914.784L914.85 520.31L914.63 520.112C914.777 519.423 915.033 518.858 915.4 518.418C915.767 517.963 916.207 517.626 916.72 517.406C917.248 517.186 917.813 517.076 918.414 517.076C919.309 517.076 920.042 517.274 920.614 517.67C921.201 518.066 921.633 518.601 921.912 519.276C922.205 519.936 922.352 520.677 922.352 521.498V529H920.504V522.026C920.504 521.307 920.416 520.706 920.24 520.222C920.079 519.723 919.815 519.349 919.448 519.1C919.081 518.836 918.605 518.704 918.018 518.704C917.123 518.704 916.383 518.99 915.796 519.562C915.224 520.119 914.938 520.941 914.938 522.026V529H913.09Z" fill="#5F5E5E"/>
<path d="M363.168 392V376.38H368.778C370.523 376.38 371.88 376.798 372.848 377.634C373.816 378.47 374.3 379.629 374.3 381.11C374.3 382.107 374.08 382.973 373.64 383.706C373.2 384.425 372.569 384.975 371.748 385.356C370.926 385.737 369.936 385.928 368.778 385.928H365.06V392H363.168ZM365.06 384.08H368.778C369.951 384.08 370.831 383.831 371.418 383.332C372.019 382.833 372.32 382.093 372.32 381.11C372.32 380.157 372.019 379.438 371.418 378.954C370.831 378.47 369.951 378.228 368.778 378.228H365.06V384.08ZM376.782 392V380.34H378.63V392H376.782ZM376.738 378.514V376.358H378.674V378.514H376.738ZM386.493 392.264C385.407 392.264 384.461 392.015 383.655 391.516C382.863 391.017 382.247 390.313 381.807 389.404C381.367 388.48 381.147 387.402 381.147 386.17C381.147 384.938 381.367 383.867 381.807 382.958C382.247 382.049 382.863 381.345 383.655 380.846C384.461 380.333 385.407 380.076 386.493 380.076C387.387 380.076 388.179 380.237 388.869 380.56C389.573 380.868 390.145 381.323 390.585 381.924C391.025 382.525 391.311 383.259 391.443 384.124L389.507 384.256C389.375 383.479 389.037 382.885 388.495 382.474C387.952 382.049 387.285 381.836 386.493 381.836C385.422 381.836 384.586 382.225 383.985 383.002C383.383 383.765 383.083 384.821 383.083 386.17C383.083 387.519 383.383 388.583 383.985 389.36C384.586 390.123 385.422 390.504 386.493 390.504C387.285 390.504 387.952 390.284 388.495 389.844C389.037 389.404 389.375 388.744 389.507 387.864L391.443 387.996C391.311 388.861 391.025 389.617 390.585 390.262C390.145 390.893 389.573 391.384 388.869 391.736C388.179 392.088 387.387 392.264 386.493 392.264ZM397.18 392.264C395.978 392.264 395.017 391.985 394.298 391.428C393.594 390.871 393.242 390.093 393.242 389.096C393.242 388.099 393.536 387.314 394.122 386.742C394.709 386.17 395.64 385.767 396.916 385.532L401.052 384.762C401.052 383.779 400.818 383.046 400.348 382.562C399.894 382.078 399.204 381.836 398.28 381.836C397.474 381.836 396.836 382.019 396.366 382.386C395.897 382.738 395.574 383.251 395.398 383.926L393.44 383.772C393.66 382.672 394.188 381.785 395.024 381.11C395.875 380.421 396.96 380.076 398.28 380.076C399.776 380.076 400.92 380.501 401.712 381.352C402.504 382.188 402.9 383.347 402.9 384.828V389.646C402.9 389.91 402.944 390.101 403.032 390.218C403.135 390.321 403.296 390.372 403.516 390.372H403.978V392C403.92 392.015 403.824 392.022 403.692 392.022C403.56 392.037 403.421 392.044 403.274 392.044C402.746 392.044 402.314 391.963 401.976 391.802C401.654 391.626 401.419 391.362 401.272 391.01C401.126 390.643 401.052 390.167 401.052 389.58L401.272 389.624C401.17 390.123 400.92 390.577 400.524 390.988C400.128 391.384 399.637 391.699 399.05 391.934C398.464 392.154 397.84 392.264 397.18 392.264ZM397.356 390.636C398.134 390.636 398.794 390.489 399.336 390.196C399.894 389.888 400.319 389.477 400.612 388.964C400.906 388.436 401.052 387.849 401.052 387.204V386.368L397.268 387.072C396.476 387.219 395.926 387.446 395.618 387.754C395.325 388.047 395.178 388.436 395.178 388.92C395.178 389.463 395.369 389.888 395.75 390.196C396.146 390.489 396.682 390.636 397.356 390.636ZM411.916 392V376.38H421.728V378.228H413.808V383.266H421.464V385.07H413.808V390.152H421.904V392H411.916ZM424.907 392V380.34H426.601L426.667 383.31L426.447 383.112C426.594 382.423 426.851 381.858 427.217 381.418C427.584 380.963 428.024 380.626 428.537 380.406C429.065 380.186 429.63 380.076 430.231 380.076C431.126 380.076 431.859 380.274 432.431 380.67C433.018 381.066 433.451 381.601 433.729 382.276C434.023 382.936 434.169 383.677 434.169 384.498V392H432.321V385.026C432.321 384.307 432.233 383.706 432.057 383.222C431.896 382.723 431.632 382.349 431.265 382.1C430.899 381.836 430.422 381.704 429.835 381.704C428.941 381.704 428.2 381.99 427.613 382.562C427.041 383.119 426.755 383.941 426.755 385.026V392H424.907ZM441.855 395.564C441.019 395.564 440.264 395.425 439.589 395.146C438.914 394.867 438.35 394.471 437.895 393.958C437.44 393.445 437.132 392.851 436.971 392.176L438.907 392.044C439.083 392.587 439.391 393.012 439.831 393.32C440.286 393.643 440.96 393.804 441.855 393.804C442.911 393.804 443.718 393.591 444.275 393.166C444.847 392.741 445.133 392.103 445.133 391.252V389.36C444.854 389.976 444.407 390.467 443.791 390.834C443.175 391.201 442.486 391.384 441.723 391.384C440.74 391.384 439.86 391.142 439.083 390.658C438.32 390.174 437.719 389.507 437.279 388.656C436.854 387.805 436.641 386.83 436.641 385.73C436.641 384.615 436.854 383.64 437.279 382.804C437.704 381.953 438.291 381.286 439.039 380.802C439.802 380.318 440.667 380.076 441.635 380.076C442.456 380.076 443.19 380.267 443.835 380.648C444.495 381.029 444.957 381.543 445.221 382.188V380.34H446.981V391.208C446.981 392.117 446.776 392.895 446.365 393.54C445.954 394.2 445.368 394.699 444.605 395.036C443.842 395.388 442.926 395.564 441.855 395.564ZM441.811 389.624C442.808 389.624 443.608 389.279 444.209 388.59C444.81 387.886 445.118 386.933 445.133 385.73C445.148 384.923 445.016 384.234 444.737 383.662C444.473 383.075 444.084 382.628 443.571 382.32C443.072 381.997 442.486 381.836 441.811 381.836C440.784 381.836 439.985 382.188 439.413 382.892C438.856 383.581 438.577 384.527 438.577 385.73C438.577 386.933 438.863 387.886 439.435 388.59C440.022 389.279 440.814 389.624 441.811 389.624ZM450.173 392V380.34H452.021V392H450.173ZM450.129 378.514V376.358H452.065V378.514H450.129ZM455.759 392V380.34H457.453L457.519 383.31L457.299 383.112C457.446 382.423 457.702 381.858 458.069 381.418C458.436 380.963 458.876 380.626 459.389 380.406C459.917 380.186 460.482 380.076 461.083 380.076C461.978 380.076 462.711 380.274 463.283 380.67C463.87 381.066 464.302 381.601 464.581 382.276C464.874 382.936 465.021 383.677 465.021 384.498V392H463.173V385.026C463.173 384.307 463.085 383.706 462.909 383.222C462.748 382.723 462.484 382.349 462.117 382.1C461.75 381.836 461.274 381.704 460.687 381.704C459.792 381.704 459.052 381.99 458.465 382.562C457.893 383.119 457.607 383.941 457.607 385.026V392H455.759ZM472.838 392.264C471.738 392.264 470.785 392.015 469.978 391.516C469.186 391.017 468.57 390.313 468.13 389.404C467.705 388.48 467.492 387.402 467.492 386.17C467.492 384.938 467.705 383.867 468.13 382.958C468.57 382.049 469.179 381.345 469.956 380.846C470.748 380.333 471.68 380.076 472.75 380.076C473.762 380.076 474.657 380.318 475.434 380.802C476.212 381.271 476.813 381.961 477.238 382.87C477.678 383.779 477.898 384.887 477.898 386.192V386.742H469.428C469.502 387.989 469.832 388.927 470.418 389.558C471.02 390.189 471.826 390.504 472.838 390.504C473.601 390.504 474.224 390.328 474.708 389.976C475.207 389.609 475.552 389.133 475.742 388.546L477.722 388.7C477.414 389.741 476.828 390.599 475.962 391.274C475.112 391.934 474.07 392.264 472.838 392.264ZM469.428 385.114H475.874C475.786 383.985 475.456 383.156 474.884 382.628C474.327 382.1 473.616 381.836 472.75 381.836C471.856 381.836 471.115 382.115 470.528 382.672C469.956 383.215 469.59 384.029 469.428 385.114Z" fill="#5F5E5E"/>
<path d="M34.5689 370L40.2009 354.38H42.7529L48.3849 370H46.3169L44.7549 365.556H38.1989L36.6369 370H34.5689ZM38.8369 363.708H44.1169L41.4769 356.03L38.8369 363.708ZM50.1545 370V358.34H51.8485L51.9145 361.31L51.6945 361.112C51.8412 360.423 52.0979 359.858 52.4645 359.418C52.8312 358.963 53.2712 358.626 53.7845 358.406C54.3125 358.186 54.8772 358.076 55.4785 358.076C56.3732 358.076 57.1065 358.274 57.6785 358.67C58.2652 359.066 58.6979 359.601 58.9765 360.276C59.2699 360.936 59.4165 361.677 59.4165 362.498V370H57.5685V363.026C57.5685 362.307 57.4805 361.706 57.3045 361.222C57.1432 360.723 56.8792 360.349 56.5125 360.1C56.1459 359.836 55.6692 359.704 55.0825 359.704C54.1879 359.704 53.4472 359.99 52.8605 360.562C52.2885 361.119 52.0025 361.941 52.0025 363.026V370H50.1545ZM62.6918 373.3V371.672H64.0338C64.4444 371.672 64.7451 371.606 64.9358 371.474C65.1411 371.357 65.2951 371.159 65.3978 370.88L65.8158 369.78H65.1778L60.9098 358.34H62.9338L66.4098 368.064L69.7318 358.34H71.7558L67.0258 371.474C66.8058 372.105 66.4758 372.567 66.0358 372.86C65.5958 373.153 64.9871 373.3 64.2098 373.3H62.6918ZM78.1822 370L83.8142 354.38H86.3662L91.9982 370H89.9302L88.3682 365.556H81.8122L80.2502 370H78.1822ZM82.4502 363.708H87.7302L85.0902 356.03L82.4502 363.708ZM94.0318 370V354.38H95.9238V370H94.0318ZM105.462 370V354.38H108.102L113.096 367.932L118.068 354.38H120.708V370H118.816V357.9L114.35 370H111.82L107.354 357.9V370H105.462ZM128.83 370.264C127.759 370.264 126.82 370.015 126.014 369.516C125.207 369.017 124.584 368.313 124.144 367.404C123.704 366.48 123.484 365.402 123.484 364.17C123.484 362.923 123.704 361.845 124.144 360.936C124.584 360.027 125.207 359.323 126.014 358.824C126.82 358.325 127.759 358.076 128.83 358.076C129.9 358.076 130.832 358.325 131.624 358.824C132.43 359.323 133.054 360.027 133.494 360.936C133.934 361.845 134.154 362.923 134.154 364.17C134.154 365.402 133.934 366.48 133.494 367.404C133.054 368.313 132.43 369.017 131.624 369.516C130.832 370.015 129.9 370.264 128.83 370.264ZM128.83 368.504C129.9 368.504 130.729 368.123 131.316 367.36C131.917 366.583 132.218 365.519 132.218 364.17C132.218 362.821 131.917 361.765 131.316 361.002C130.729 360.225 129.9 359.836 128.83 359.836C127.759 359.836 126.923 360.225 126.322 361.002C125.72 361.765 125.42 362.821 125.42 364.17C125.42 365.519 125.72 366.583 126.322 367.36C126.923 368.123 127.759 368.504 128.83 368.504ZM140.808 370.264C139.796 370.264 138.916 370.015 138.168 369.516C137.435 369.017 136.87 368.313 136.474 367.404C136.078 366.495 135.88 365.417 135.88 364.17C135.88 362.923 136.078 361.845 136.474 360.936C136.87 360.027 137.435 359.323 138.168 358.824C138.916 358.325 139.796 358.076 140.808 358.076C141.585 358.076 142.297 358.245 142.942 358.582C143.587 358.905 144.071 359.367 144.394 359.968V354.38H146.242V370H144.57L144.504 368.24C144.181 368.871 143.69 369.369 143.03 369.736C142.37 370.088 141.629 370.264 140.808 370.264ZM141.182 368.504C141.871 368.504 142.451 368.328 142.92 367.976C143.404 367.624 143.771 367.125 144.02 366.48C144.269 365.82 144.394 365.05 144.394 364.17C144.394 363.261 144.269 362.483 144.02 361.838C143.771 361.193 143.404 360.701 142.92 360.364C142.451 360.012 141.871 359.836 141.182 359.836C140.155 359.836 139.334 360.225 138.718 361.002C138.117 361.765 137.816 362.821 137.816 364.17C137.816 365.505 138.117 366.561 138.718 367.338C139.334 368.115 140.155 368.504 141.182 368.504ZM154.095 370.264C152.995 370.264 152.042 370.015 151.235 369.516C150.443 369.017 149.827 368.313 149.387 367.404C148.962 366.48 148.749 365.402 148.749 364.17C148.749 362.938 148.962 361.867 149.387 360.958C149.827 360.049 150.436 359.345 151.213 358.846C152.005 358.333 152.937 358.076 154.007 358.076C155.019 358.076 155.914 358.318 156.691 358.802C157.469 359.271 158.07 359.961 158.495 360.87C158.935 361.779 159.155 362.887 159.155 364.192V364.742H150.685C150.759 365.989 151.089 366.927 151.675 367.558C152.277 368.189 153.083 368.504 154.095 368.504C154.858 368.504 155.481 368.328 155.965 367.976C156.464 367.609 156.809 367.133 156.999 366.546L158.979 366.7C158.671 367.741 158.085 368.599 157.219 369.274C156.369 369.934 155.327 370.264 154.095 370.264ZM150.685 363.114H157.131C157.043 361.985 156.713 361.156 156.141 360.628C155.584 360.1 154.873 359.836 154.007 359.836C153.113 359.836 152.372 360.115 151.785 360.672C151.213 361.215 150.847 362.029 150.685 363.114ZM164.054 370C163.379 370 162.829 369.824 162.404 369.472C161.979 369.12 161.766 368.563 161.766 367.8V354.38H163.614V367.646C163.614 367.881 163.673 368.064 163.79 368.196C163.922 368.313 164.105 368.372 164.34 368.372H165.352V370H164.054Z" fill="#5F5E5E"/>
<line x1="137" y1="276.5" x2="338" y2="276.5" stroke="#919295" stroke-width="2"/>
<circle cx="132.5" cy="277" r="5.5" fill="#919295"/>
<path d="M338.247 276.033L330.699 268.66C330.066 268.041 329 268.49 329 269.375V283.716C329 284.588 330.038 285.042 330.678 284.451L338.226 277.483C338.647 277.095 338.656 276.433 338.247 276.033Z" fill="#919295"/>
<rect x="45" y="221" width="110" height="110" rx="17" fill="white"/>
<path d="M127.976 278.257C127.976 283.472 127.982 288.687 127.974 293.902C127.97 296.489 127.943 296.532 125.582 297.26C115.345 300.415 105.096 303.534 94.8724 306.735C93.3448 307.214 92.2132 307.084 90.942 306.011C84.9903 300.988 78.9823 296.031 72.9352 291.125C71.5865 290.03 70.9864 288.869 71.0002 287.082C71.0788 276.943 71.0376 266.803 71.038 256.663C71.038 256.229 71.0304 255.793 71.0546 255.36C71.1483 253.682 71.2946 253.445 72.9576 252.922C76.9353 251.67 80.9246 250.455 84.9111 249.231C91.3715 247.248 97.8435 245.301 104.287 243.264C105.726 242.809 106.819 242.89 108.039 243.919C114.102 249.033 120.216 254.088 126.371 259.089C127.565 260.059 128.017 261.108 128 262.612C127.939 267.826 127.976 273.041 127.976 278.257ZM94.1797 304.443C94.9717 304.255 95.5923 304.144 96.1915 303.961C105.402 301.152 114.611 298.338 123.816 295.513C125.791 294.906 125.798 294.882 125.8 292.823C125.806 283.555 125.802 274.288 125.803 265.02C125.803 264.32 125.803 263.619 125.803 262.615C124.713 262.886 123.957 263.037 123.223 263.261C114.221 266.017 105.223 268.781 96.2241 271.546C94.0616 272.211 94.0502 272.215 94.0486 274.535C94.0426 283.802 94.0431 293.069 94.0502 302.336C94.0504 302.968 94.1257 303.601 94.1797 304.443ZM74.8803 254.795C75.2731 255.242 75.5113 255.597 75.8262 255.859C81.2141 260.325 86.6265 264.763 91.9926 269.255C92.8921 270.009 93.713 270.044 94.764 269.718C103.968 266.858 113.186 264.039 122.395 261.195C122.971 261.017 123.516 260.736 124.657 260.261C123.922 259.801 123.529 259.612 123.201 259.342C117.854 254.939 112.496 250.549 107.193 246.094C106.223 245.28 105.361 245.251 104.231 245.602C95.0244 248.46 85.8024 251.267 76.5882 254.1C76.0619 254.262 75.563 254.514 74.8803 254.795ZM73.5137 257.05C73.4077 257.757 73.3285 258.04 73.3281 258.322C73.3162 267.946 73.3233 277.57 73.2896 287.194C73.286 288.259 73.7449 288.92 74.5207 289.555C79.7609 293.844 84.9726 298.168 90.2049 302.467C90.5602 302.759 91.0059 302.939 91.5926 303.276C91.6673 302.477 91.7642 301.921 91.7649 301.365C91.774 292.103 91.7543 282.841 91.791 273.58C91.7957 272.38 91.4122 271.582 90.4768 270.822C85.4456 266.734 80.4717 262.573 75.4689 258.449C74.9358 258.009 74.3441 257.641 73.5137 257.05Z" fill="black"/>
<defs>
<linearGradient id="paint0_linear_1313_1783" x1="848.99" y1="274.794" x2="869.658" y2="274.794" gradientUnits="userSpaceOnUse">
<stop stop-color="#C8C8C8"/>
<stop offset="1" stop-color="#CDCDCD"/>
</linearGradient>
<linearGradient id="paint1_linear_1313_1783" x1="865.83" y1="281.371" x2="890.329" y2="281.371" gradientUnits="userSpaceOnUse">
<stop stop-color="#D9D9D9"/>
<stop offset="1" stop-color="#E2E2E2"/>
</linearGradient>
<clipPath id="clip0_1313_1783">
<rect width="55" height="55" fill="white" transform="translate(843 107)"/>
</clipPath>
</defs>
</svg>
