<svg width="1995" height="765" viewBox="0 0 1995 765" fill="none" xmlns="http://www.w3.org/2000/svg">
<g clip-path="url(#clip0_4721_35)">
<rect width="1995" height="765" fill="black"/>
<g filter="url(#filter0_f_4721_35)">
<ellipse cx="799.5" cy="901.5" rx="495.5" ry="451.5" fill="#4C04F2"/>
</g>
<g filter="url(#filter1_f_4721_35)">
<ellipse cx="1426.5" cy="1012" rx="537.5" ry="507" fill="#FFBB28"/>
</g>
<g filter="url(#filter2_f_4721_35)">
<path d="M807.846 355.227C922.985 287.328 1626.95 121.36 1747.46 -189.189C1867.97 -499.738 2396.32 512.557 2063.64 682.093C1733.72 850.227 692.706 423.127 807.846 355.227Z" fill="url(#paint0_linear_4721_35)"/>
</g>
<path fill-rule="evenodd" clip-rule="evenodd" d="M1043.24 188.028C1033.94 188.048 1026.39 195.603 1026.37 204.903C1026.35 214.202 1033.87 221.723 1043.17 221.703L1072.42 221.638C1075.41 221.632 1077.84 224.061 1077.84 227.054C1077.83 230.029 1075.42 232.438 1072.45 232.444L1050.68 232.492C1037.36 232.522 1026.53 243.347 1026.5 256.671L1026.45 279.819C1026.45 283.139 1023.76 285.829 1020.44 285.836C1017.09 285.843 1014.38 283.132 1014.39 279.79L1014.46 250.415C1014.48 241.116 1006.95 233.594 997.655 233.615C988.356 233.635 980.801 241.19 980.78 250.489L980.715 280.17C980.708 283.352 978.131 285.929 974.949 285.936C971.746 285.943 969.148 283.345 969.155 280.142L969.206 256.798C969.236 243.473 958.458 232.696 945.134 232.725L922.416 232.776C919.422 232.782 916.993 230.353 917 227.36C917.007 224.385 919.416 221.976 922.39 221.97L952.195 221.904C961.494 221.883 969.049 214.328 969.069 205.029C969.09 195.73 961.568 188.208 952.269 188.229L923.019 188.293C919.747 188.301 917.092 185.646 917.099 182.374C917.106 179.123 919.74 176.489 922.991 176.482L945.259 176.433C958.583 176.403 969.408 165.578 969.437 152.254L969.484 130.867C969.492 127.685 972.069 125.107 975.251 125.1C978.453 125.093 981.052 127.692 981.044 130.894L980.981 159.517C980.961 168.816 988.482 176.337 997.782 176.317C1007.08 176.296 1014.64 168.741 1014.66 159.442L1014.72 131.017C1014.73 127.697 1017.42 125.007 1020.74 125C1024.08 124.993 1026.79 127.704 1026.78 131.046L1026.74 152.128C1026.71 165.452 1037.48 176.229 1050.81 176.2L1072.02 176.153C1075.29 176.146 1077.94 178.801 1077.94 182.073C1077.93 185.324 1075.29 187.957 1072.04 187.964L1043.24 188.028ZM1014.55 205.431C1014.58 195.993 1006.94 188.359 997.504 188.38C988.066 188.401 980.398 196.069 980.377 205.507C980.356 214.945 987.99 222.579 997.428 222.558C1006.87 222.537 1014.53 214.869 1014.55 205.431Z" fill="white"/>
<path d="M294.053 477C293.157 477 292.709 476.68 292.709 476.04C292.709 475.4 293.221 474.984 294.245 474.792L298.277 474.12C299.557 473.928 300.517 473.608 301.157 473.16C301.797 472.648 302.245 471.72 302.501 470.376L315.845 412.776C316.037 411.88 315.941 411.24 315.557 410.856C315.237 410.472 314.469 410.28 313.253 410.28C311.077 410.28 308.677 411.176 306.053 412.968C303.493 414.696 301.189 417.96 299.141 422.76L297.605 426.408C297.285 427.24 296.741 427.656 295.973 427.656C295.077 427.656 294.789 427.112 295.109 426.024L299.909 408.648C300.293 407.176 300.997 406.44 302.021 406.44C302.597 406.44 303.045 406.568 303.365 406.824C303.749 407.016 304.357 407.24 305.189 407.496C306.021 407.752 307.461 407.88 309.509 407.88H330.917C332.965 407.88 334.469 407.752 335.429 407.496C336.453 407.24 337.189 407.016 337.637 406.824C338.149 406.568 338.597 406.44 338.981 406.44C340.069 406.44 340.453 407.176 340.133 408.648L337.061 426.024C336.869 427.112 336.325 427.656 335.429 427.656C334.597 427.656 334.245 427.24 334.373 426.408L334.565 424.008C334.949 419.272 334.341 415.816 332.741 413.64C331.141 411.4 328.901 410.28 326.021 410.28C324.805 410.28 323.941 410.472 323.429 410.856C322.981 411.24 322.661 411.88 322.469 412.776L309.125 470.376C308.805 471.72 308.837 472.648 309.221 473.16C309.669 473.608 310.501 473.928 311.717 474.12L316.229 474.792C316.933 474.856 317.285 475.208 317.285 475.848C317.285 476.616 316.773 477 315.749 477H294.053ZM362.975 477.864C360.671 477.864 358.943 476.904 357.791 474.984C356.639 473.064 356.575 470.088 357.599 466.056L364.991 438.216C365.695 435.72 365.791 433.992 365.279 433.032C364.831 432.072 364.159 431.592 363.263 431.592C361.855 431.592 360.255 432.488 358.463 434.28C356.735 436.008 354.911 438.408 352.991 441.48C351.135 444.488 349.311 447.912 347.519 451.752C345.791 455.528 344.191 459.528 342.719 463.752C341.247 467.912 340.063 471.976 339.167 475.944C338.975 476.648 338.527 477 337.823 477H333.791C332.895 477 332.543 476.584 332.735 475.752L346.751 415.56C347.071 414.408 347.071 413.608 346.751 413.16C346.495 412.712 345.919 412.456 345.023 412.392L342.143 412.104C341.183 412.04 340.767 411.624 340.895 410.856C341.023 410.28 341.471 409.928 342.239 409.8C344.543 409.416 346.591 408.968 348.383 408.456C350.175 407.88 351.615 407.144 352.703 406.248C353.215 405.864 353.695 405.672 354.143 405.672C354.911 405.672 355.199 406.152 355.007 407.112L345.599 447.912C345.535 448.36 345.631 448.616 345.887 448.68C346.143 448.744 346.367 448.584 346.559 448.2C349.119 442.952 351.551 438.824 353.855 435.816C356.159 432.808 358.303 430.664 360.286 429.384C362.335 428.104 364.191 427.464 365.855 427.464C368.223 427.464 369.951 428.424 371.039 430.344C372.127 432.264 372.127 435.208 371.039 439.176L363.743 467.016C363.295 468.808 363.263 470.152 363.647 471.048C364.031 471.944 364.735 472.392 365.759 472.392C367.039 472.392 368.287 471.56 369.503 469.896C370.719 468.168 372.031 464.936 373.439 460.2C373.631 459.496 374.047 459.144 374.687 459.144C375.199 459.144 375.487 459.336 375.551 459.72C375.679 460.104 375.679 460.552 375.551 461.064C374.335 465.416 373.023 468.84 371.615 471.336C370.207 473.768 368.767 475.464 367.295 476.424C365.887 477.384 364.447 477.864 362.975 477.864ZM390.103 477.864C386.711 477.864 383.991 476.552 381.943 473.928C379.895 471.24 378.871 467.464 378.871 462.6C378.871 458.376 379.607 454.184 381.079 450.024C382.615 445.864 384.599 442.088 387.031 438.696C389.463 435.304 392.119 432.584 394.999 430.536C397.943 428.488 400.791 427.464 403.543 427.464C406.551 427.464 408.695 428.2 409.975 429.672C411.319 431.08 411.991 433 411.991 435.432C411.991 438.312 410.967 441.192 408.919 444.072C406.935 446.888 404.119 449.416 400.471 451.656C396.887 453.896 392.663 455.56 387.799 456.648C386.391 456.968 385.655 457.768 385.591 459.048C385.527 459.496 385.495 459.976 385.495 460.488C385.495 460.936 385.495 461.384 385.495 461.832C385.495 465.48 386.103 468.232 387.319 470.088C388.599 471.944 390.327 472.872 392.503 472.872C394.935 472.872 397.271 471.752 399.511 469.512C401.815 467.272 403.735 464.104 405.271 460.008C405.463 459.432 405.847 459.144 406.423 459.144C406.807 459.144 407.031 459.304 407.095 459.624C407.223 459.944 407.223 460.328 407.095 460.776C405.047 466.408 402.551 470.664 399.607 473.544C396.727 476.424 393.559 477.864 390.103 477.864ZM386.551 453C386.423 453.448 386.487 453.832 386.743 454.152C387.063 454.408 387.447 454.472 387.895 454.344C391.863 453.256 395.191 451.624 397.879 449.448C400.567 447.208 402.583 444.712 403.927 441.96C405.335 439.208 406.039 436.52 406.039 433.896C406.039 431.208 404.983 429.864 402.871 429.864C401.015 429.864 398.999 430.952 396.823 433.128C394.647 435.304 392.631 438.152 390.775 441.672C388.919 445.192 387.511 448.968 386.551 453ZM436.046 477.864C433.678 477.864 431.854 476.872 430.574 474.888C429.294 472.904 428.654 469.992 428.654 466.152C428.654 462.504 429.166 458.856 430.19 455.208C431.214 451.496 432.622 447.976 434.414 444.648C436.206 441.32 438.222 438.376 440.462 435.816C442.766 433.256 445.166 431.24 447.662 429.768C450.222 428.232 452.75 427.464 455.246 427.464C456.974 427.464 458.478 427.912 459.758 428.808C460.654 429.384 461.198 429.192 461.39 428.232L464.462 415.56C464.782 414.408 464.782 413.608 464.462 413.16C464.206 412.712 463.63 412.456 462.734 412.392L459.854 412.104C458.894 412.04 458.478 411.624 458.606 410.856C458.734 410.28 459.182 409.928 459.95 409.8C462.254 409.416 464.302 408.968 466.094 408.456C467.886 407.88 469.326 407.144 470.414 406.248C470.926 405.864 471.406 405.672 471.854 405.672C472.622 405.672 472.91 406.152 472.718 407.112L459.086 466.152C458.126 470.312 458.766 472.392 461.006 472.392C462.478 472.392 463.79 471.4 464.942 469.416C466.158 467.432 467.374 464.36 468.59 460.2C468.782 459.496 469.198 459.144 469.838 459.144C470.286 459.144 470.574 459.336 470.702 459.72C470.83 460.104 470.83 460.552 470.702 461.064C469.486 467.08 467.79 471.4 465.614 474.024C463.502 476.584 461.006 477.864 458.126 477.864C455.63 477.864 453.838 476.808 452.75 474.696C451.726 472.584 451.63 469.704 452.462 466.056L453.518 461.64C453.646 461.192 453.55 460.936 453.23 460.872C452.974 460.808 452.75 460.968 452.558 461.352C449.486 467.368 446.574 471.624 443.822 474.12C441.07 476.616 438.478 477.864 436.046 477.864ZM438.35 472.968C439.886 472.968 441.582 472.04 443.438 470.184C445.294 468.328 447.118 465.928 448.91 462.984C450.766 460.04 452.462 456.872 453.998 453.48C455.534 450.088 456.75 446.824 457.646 443.688C458.606 440.552 459.086 437.896 459.086 435.72C459.086 431.816 457.71 429.864 454.958 429.864C453.294 429.864 451.534 430.632 449.678 432.168C447.822 433.64 446.03 435.656 444.302 438.216C442.638 440.776 441.102 443.688 439.694 446.952C438.35 450.152 437.262 453.512 436.43 457.032C435.598 460.488 435.182 463.88 435.182 467.208C435.182 469.448 435.47 470.984 436.046 471.816C436.686 472.584 437.454 472.968 438.35 472.968ZM481.419 477.864C479.115 477.864 477.323 476.872 476.043 474.888C474.763 472.904 474.123 469.992 474.123 466.152C474.123 462.504 474.635 458.856 475.659 455.208C476.683 451.496 478.091 447.976 479.883 444.648C481.675 441.32 483.691 438.376 485.931 435.816C488.235 433.256 490.635 431.24 493.131 429.768C495.691 428.232 498.219 427.464 500.715 427.464C501.931 427.464 503.083 427.72 504.171 428.232C505.259 428.68 506.155 429.416 506.859 430.44C507.243 431.016 507.627 431.304 508.011 431.304C508.395 431.304 508.779 431.016 509.163 430.44C509.867 429.416 510.443 428.776 510.891 428.52C511.339 428.2 511.755 428.04 512.139 428.04C512.971 428.04 513.291 428.488 513.099 429.384L504.555 466.152C503.595 470.312 504.235 472.392 506.475 472.392C507.947 472.392 509.259 471.4 510.411 469.416C511.627 467.432 512.843 464.36 514.059 460.2C514.251 459.496 514.667 459.144 515.307 459.144C515.755 459.144 516.043 459.336 516.171 459.72C516.299 460.104 516.299 460.552 516.171 461.064C514.955 467.08 513.323 471.4 511.275 474.024C509.227 476.584 506.763 477.864 503.883 477.864C501.387 477.864 499.595 476.808 498.507 474.696C497.483 472.584 497.387 469.704 498.219 466.056L499.467 460.776C499.595 460.328 499.499 460.072 499.179 460.008C498.923 459.944 498.699 460.104 498.507 460.488C494.987 466.952 491.851 471.464 489.099 474.024C486.411 476.584 483.851 477.864 481.419 477.864ZM483.819 472.968C485.355 472.968 487.051 472.04 488.907 470.184C490.763 468.328 492.587 465.928 494.379 462.984C496.235 460.04 497.931 456.872 499.467 453.48C501.003 450.088 502.219 446.824 503.115 443.688C504.075 440.552 504.555 437.896 504.555 435.72C504.555 431.816 503.179 429.864 500.427 429.864C498.763 429.864 497.003 430.632 495.147 432.168C493.291 433.64 491.499 435.656 489.771 438.216C488.107 440.776 486.571 443.688 485.163 446.952C483.819 450.152 482.731 453.512 481.899 457.032C481.067 460.488 480.651 463.88 480.651 467.208C480.651 469.448 480.907 470.984 481.419 471.816C481.995 472.584 482.795 472.968 483.819 472.968ZM527.011 477.864C524.835 477.864 523.139 477 521.923 475.272C520.707 473.544 520.515 470.76 521.347 466.92L529.315 432.168C529.507 431.208 529.123 430.728 528.163 430.728H524.515C523.619 430.728 523.171 430.312 523.171 429.48C523.171 429.032 523.331 428.68 523.651 428.424C523.971 428.168 524.355 428.04 524.803 428.04H528.259C529.731 428.04 530.595 427.368 530.851 426.024L533.155 415.752C533.347 415.048 533.795 414.696 534.499 414.696H538.435C539.331 414.696 539.683 415.112 539.491 415.944L537.091 426.6C536.899 427.56 537.283 428.04 538.243 428.04H543.715C544.803 428.04 545.347 428.456 545.347 429.288C545.347 430.248 544.675 430.728 543.331 430.728H538.147C536.739 430.728 535.875 431.4 535.555 432.744L527.491 467.88C527.171 469.288 527.203 470.408 527.587 471.24C528.035 472.008 528.771 472.392 529.795 472.392C531.267 472.392 532.611 471.56 533.827 469.896C535.107 468.232 536.451 465.064 537.859 460.392C538.115 459.56 538.531 459.144 539.107 459.144C539.555 459.144 539.843 459.336 539.971 459.72C540.099 460.104 540.003 460.808 539.683 461.832C538.467 466.184 537.123 469.512 535.651 471.816C534.243 474.12 532.803 475.72 531.331 476.616C529.859 477.448 528.419 477.864 527.011 477.864ZM551.919 477.864C549.615 477.864 547.823 476.872 546.543 474.888C545.263 472.904 544.623 469.992 544.623 466.152C544.623 462.504 545.135 458.856 546.159 455.208C547.183 451.496 548.591 447.976 550.383 444.648C552.175 441.32 554.191 438.376 556.431 435.816C558.735 433.256 561.135 431.24 563.631 429.768C566.191 428.232 568.719 427.464 571.215 427.464C572.431 427.464 573.583 427.72 574.671 428.232C575.759 428.68 576.655 429.416 577.359 430.44C577.743 431.016 578.127 431.304 578.511 431.304C578.895 431.304 579.279 431.016 579.663 430.44C580.367 429.416 580.943 428.776 581.391 428.52C581.839 428.2 582.255 428.04 582.639 428.04C583.471 428.04 583.791 428.488 583.599 429.384L575.055 466.152C574.095 470.312 574.735 472.392 576.975 472.392C578.447 472.392 579.759 471.4 580.911 469.416C582.127 467.432 583.343 464.36 584.559 460.2C584.751 459.496 585.167 459.144 585.807 459.144C586.255 459.144 586.543 459.336 586.671 459.72C586.799 460.104 586.799 460.552 586.671 461.064C585.455 467.08 583.823 471.4 581.775 474.024C579.727 476.584 577.263 477.864 574.383 477.864C571.887 477.864 570.095 476.808 569.007 474.696C567.983 472.584 567.887 469.704 568.719 466.056L569.967 460.776C570.095 460.328 569.999 460.072 569.679 460.008C569.423 459.944 569.199 460.104 569.007 460.488C565.487 466.952 562.351 471.464 559.599 474.024C556.911 476.584 554.351 477.864 551.919 477.864ZM554.319 472.968C555.855 472.968 557.551 472.04 559.407 470.184C561.263 468.328 563.087 465.928 564.879 462.984C566.735 460.04 568.431 456.872 569.967 453.48C571.503 450.088 572.719 446.824 573.615 443.688C574.575 440.552 575.055 437.896 575.055 435.72C575.055 431.816 573.679 429.864 570.927 429.864C569.263 429.864 567.503 430.632 565.647 432.168C563.791 433.64 561.999 435.656 560.271 438.216C558.607 440.776 557.071 443.688 555.663 446.952C554.319 450.152 553.231 453.512 552.399 457.032C551.567 460.488 551.151 463.88 551.151 467.208C551.151 469.448 551.407 470.984 551.919 471.816C552.495 472.584 553.295 472.968 554.319 472.968ZM624.74 418.92C623.524 418.92 622.5 418.504 621.668 417.672C620.9 416.776 620.516 415.72 620.516 414.504C620.516 412.776 621.028 411.4 622.052 410.376C623.14 409.352 624.356 408.84 625.7 408.84C626.98 408.84 628.036 409.256 628.868 410.088C629.764 410.856 630.212 411.88 630.212 413.16C630.212 414.952 629.668 416.36 628.58 417.384C627.492 418.408 626.212 418.92 624.74 418.92ZM616.868 477.96C614.756 477.96 613.252 477.192 612.356 475.656C611.46 474.056 611.428 471.464 612.26 467.88L619.364 437.448C619.684 436.04 619.716 434.952 619.46 434.184C619.268 433.352 618.692 432.936 617.732 432.936C616.58 432.936 615.3 433.8 613.892 435.528C612.548 437.192 611.012 440.392 609.284 445.128C609.028 445.96 608.58 446.376 607.94 446.376C606.98 446.376 606.724 445.8 607.172 444.648C608.58 440.232 610.052 436.776 611.588 434.28C613.188 431.784 614.788 430.024 616.388 429C617.988 427.976 619.46 427.464 620.804 427.464C623.044 427.464 624.612 428.264 625.508 429.864C626.404 431.4 626.436 433.96 625.604 437.544L618.5 467.976C618.18 469.384 618.116 470.504 618.308 471.336C618.564 472.104 619.172 472.488 620.132 472.488C621.284 472.488 622.532 471.656 623.876 469.992C625.284 468.264 626.852 465.032 628.58 460.296C628.836 459.464 629.284 459.048 629.924 459.048C630.884 459.048 631.14 459.624 630.692 460.776C629.348 465.128 627.844 468.584 626.18 471.144C624.58 473.64 622.98 475.4 621.38 476.424C619.78 477.448 618.276 477.96 616.868 477.96ZM637.901 475.752L647.021 437.448C647.341 436.04 647.373 434.952 647.117 434.184C646.925 433.352 646.349 432.936 645.389 432.936C644.237 432.936 642.957 433.8 641.549 435.528C640.205 437.192 638.669 440.392 636.941 445.128C636.685 445.96 636.237 446.376 635.597 446.376C634.637 446.376 634.381 445.8 634.829 444.648C636.237 440.232 637.709 436.776 639.245 434.28C640.845 431.784 642.445 430.024 644.045 429C645.645 427.976 647.117 427.464 648.461 427.464C650.573 427.464 652.077 428.264 652.973 429.864C653.869 431.4 653.901 433.96 653.069 437.544L650.669 447.912C650.605 448.36 650.701 448.616 650.957 448.68C651.213 448.744 651.437 448.584 651.629 448.2C654.125 443.016 656.525 438.92 658.829 435.912C661.133 432.84 663.309 430.664 665.357 429.384C667.405 428.104 669.261 427.464 670.925 427.464C673.293 427.464 675.021 428.424 676.109 430.344C677.197 432.264 677.197 435.208 676.109 439.176L668.813 467.016C668.365 468.808 668.333 470.152 668.717 471.048C669.101 471.944 669.805 472.392 670.829 472.392C672.109 472.392 673.357 471.56 674.573 469.896C675.853 468.168 677.165 464.936 678.509 460.2C678.701 459.496 679.117 459.144 679.757 459.144C680.269 459.144 680.557 459.336 680.621 459.72C680.749 460.104 680.749 460.552 680.621 461.064C679.405 465.416 678.093 468.84 676.685 471.336C675.277 473.768 673.837 475.464 672.365 476.424C670.957 477.384 669.517 477.864 668.045 477.864C665.741 477.864 664.013 476.904 662.861 474.984C661.709 473.064 661.645 470.088 662.669 466.056L670.061 438.216C670.765 435.72 670.861 433.992 670.349 433.032C669.901 432.072 669.229 431.592 668.333 431.592C666.925 431.592 665.325 432.488 663.533 434.28C661.741 436.008 659.917 438.408 658.061 441.48C656.205 444.488 654.381 447.912 652.589 451.752C650.797 455.592 649.165 459.592 647.693 463.752C646.285 467.912 645.133 471.976 644.237 475.944C644.045 476.648 643.597 477 642.893 477H638.957C638.061 477 637.709 476.584 637.901 475.752ZM685.947 477C685.115 477 684.795 476.584 684.987 475.752L694.683 434.28C695.259 431.912 694.491 430.728 692.379 430.728H690.363C689.339 430.728 688.827 430.28 688.827 429.384C688.827 428.488 689.403 428.04 690.555 428.04C692.539 428.04 694.011 427.784 694.971 427.272C695.995 426.76 696.667 425.736 696.987 424.2C697.819 420.552 699.035 417.32 700.635 414.504C702.299 411.624 704.283 409.352 706.587 407.688C708.891 406.024 711.419 405.192 714.171 405.192C716.411 405.192 718.203 405.736 719.547 406.824C720.955 407.848 721.659 409.288 721.659 411.144C721.659 412.552 721.275 413.704 720.507 414.6C719.803 415.432 718.907 415.848 717.819 415.848C716.475 415.848 715.579 415.464 715.131 414.696C714.747 413.928 714.491 413.032 714.363 412.008C714.299 410.984 714.107 410.088 713.787 409.32C713.467 408.552 712.731 408.168 711.579 408.168C710.107 408.168 708.795 408.904 707.643 410.376C706.555 411.784 705.563 414.472 704.667 418.44L702.747 426.792C702.555 427.624 702.907 428.04 703.803 428.04H711.483C712.699 428.04 713.179 428.488 712.923 429.384C712.731 430.28 712.155 430.728 711.195 430.728H702.843C702.203 430.728 701.787 431.048 701.595 431.688L691.323 475.944C691.131 476.648 690.683 477 689.979 477H685.947ZM714.144 477C713.248 477 712.896 476.584 713.088 475.752L722.208 437.448C722.528 436.04 722.56 434.952 722.304 434.184C722.112 433.352 721.536 432.936 720.576 432.936C719.424 432.936 718.144 433.8 716.736 435.528C715.392 437.192 713.856 440.392 712.128 445.128C711.872 445.96 711.424 446.376 710.784 446.376C709.824 446.376 709.568 445.8 710.016 444.648C711.424 440.232 712.896 436.776 714.432 434.28C716.032 431.784 717.632 430.024 719.232 429C720.832 427.976 722.304 427.464 723.648 427.464C725.76 427.464 727.264 428.264 728.16 429.864C729.056 431.4 729.088 433.96 728.256 437.544L727.2 442.056C727.136 442.504 727.232 442.76 727.488 442.824C727.744 442.888 727.968 442.728 728.16 442.344C730.592 436.776 732.8 432.904 734.784 430.728C736.768 428.552 739.04 427.464 741.6 427.464C743.328 427.464 744.608 427.944 745.44 428.904C746.336 429.8 746.784 431.048 746.784 432.648C746.784 434.248 746.4 435.528 745.632 436.488C744.864 437.448 743.872 437.928 742.656 437.928C741.632 437.928 740.896 437.672 740.448 437.16C740 436.648 739.648 436.072 739.392 435.432C739.2 434.728 738.976 434.12 738.72 433.608C738.464 433.096 738.048 432.84 737.472 432.84C736.512 432.84 735.264 434.056 733.728 436.488C732.192 438.92 730.528 442.216 728.736 446.376C727.008 450.472 725.312 455.08 723.648 460.2C722.048 465.32 720.64 470.568 719.424 475.944C719.232 476.648 718.784 477 718.08 477H714.144ZM750.2 477.864C747.896 477.864 746.104 476.872 744.824 474.888C743.544 472.904 742.904 469.992 742.904 466.152C742.904 462.504 743.416 458.856 744.44 455.208C745.464 451.496 746.872 447.976 748.664 444.648C750.456 441.32 752.472 438.376 754.712 435.816C757.016 433.256 759.416 431.24 761.912 429.768C764.472 428.232 767 427.464 769.496 427.464C770.712 427.464 771.864 427.72 772.952 428.232C774.04 428.68 774.936 429.416 775.64 430.44C776.024 431.016 776.408 431.304 776.792 431.304C777.176 431.304 777.56 431.016 777.944 430.44C778.648 429.416 779.224 428.776 779.672 428.52C780.12 428.2 780.536 428.04 780.92 428.04C781.752 428.04 782.072 428.488 781.88 429.384L773.336 466.152C772.376 470.312 773.016 472.392 775.256 472.392C776.728 472.392 778.04 471.4 779.192 469.416C780.408 467.432 781.624 464.36 782.84 460.2C783.032 459.496 783.448 459.144 784.088 459.144C784.536 459.144 784.824 459.336 784.952 459.72C785.08 460.104 785.08 460.552 784.952 461.064C783.736 467.08 782.104 471.4 780.056 474.024C778.008 476.584 775.544 477.864 772.664 477.864C770.168 477.864 768.376 476.808 767.288 474.696C766.264 472.584 766.168 469.704 767 466.056L768.248 460.776C768.376 460.328 768.28 460.072 767.96 460.008C767.704 459.944 767.48 460.104 767.288 460.488C763.768 466.952 760.632 471.464 757.88 474.024C755.192 476.584 752.632 477.864 750.2 477.864ZM752.6 472.968C754.136 472.968 755.832 472.04 757.688 470.184C759.544 468.328 761.368 465.928 763.16 462.984C765.016 460.04 766.712 456.872 768.248 453.48C769.784 450.088 771 446.824 771.896 443.688C772.856 440.552 773.336 437.896 773.336 435.72C773.336 431.816 771.96 429.864 769.208 429.864C767.544 429.864 765.784 430.632 763.928 432.168C762.072 433.64 760.28 435.656 758.552 438.216C756.888 440.776 755.352 443.688 753.944 446.952C752.6 450.152 751.512 453.512 750.68 457.032C749.848 460.488 749.432 463.88 749.432 467.208C749.432 469.448 749.688 470.984 750.2 471.816C750.776 472.584 751.576 472.968 752.6 472.968ZM798.261 477.864C796.149 477.864 793.909 477.544 791.541 476.904C789.237 476.264 787.477 475.464 786.261 474.504C785.813 474.12 785.621 473.544 785.685 472.776L787.797 460.2C787.925 459.368 788.309 458.952 788.949 458.952C789.653 458.952 790.005 459.4 790.005 460.296L790.197 464.904C790.325 468.552 791.189 471.24 792.789 472.968C794.453 474.632 796.469 475.464 798.837 475.464C800.885 475.464 802.645 474.824 804.117 473.544C805.589 472.2 806.325 470.248 806.325 467.688C806.325 466.216 806.101 464.872 805.653 463.656C805.205 462.376 804.501 461.032 803.541 459.624C802.581 458.152 801.269 456.392 799.605 454.344C797.429 451.528 795.797 449.128 794.709 447.144C793.685 445.096 793.173 442.984 793.173 440.808C793.173 436.776 794.421 433.544 796.917 431.112C799.477 428.68 802.709 427.464 806.613 427.464C808.341 427.464 810.005 427.72 811.605 428.232C813.269 428.744 814.645 429.512 815.733 430.536C816.309 430.984 816.501 431.56 816.309 432.264L813.621 445.128C813.429 445.96 813.045 446.376 812.469 446.376C811.893 446.376 811.541 445.928 811.413 445.032L811.125 440.424C810.869 436.584 810.357 433.832 809.589 432.168C808.885 430.504 807.381 429.672 805.077 429.672C803.029 429.672 801.365 430.376 800.085 431.784C798.805 433.192 798.165 434.888 798.165 436.872C798.165 438.984 798.741 440.936 799.893 442.728C801.045 444.456 802.613 446.664 804.597 449.352C807.221 452.808 808.981 455.56 809.877 457.608C810.837 459.656 811.317 461.736 811.317 463.848C811.317 466.536 810.709 468.936 809.493 471.048C808.341 473.16 806.773 474.824 804.789 476.04C802.805 477.256 800.629 477.864 798.261 477.864ZM825.886 477.864C823.71 477.864 822.014 477 820.798 475.272C819.582 473.544 819.39 470.76 820.222 466.92L828.19 432.168C828.382 431.208 827.998 430.728 827.038 430.728H823.39C822.494 430.728 822.046 430.312 822.046 429.48C822.046 429.032 822.206 428.68 822.526 428.424C822.846 428.168 823.23 428.04 823.678 428.04H827.134C828.606 428.04 829.47 427.368 829.726 426.024L832.03 415.752C832.222 415.048 832.67 414.696 833.374 414.696H837.31C838.206 414.696 838.558 415.112 838.366 415.944L835.966 426.6C835.774 427.56 836.158 428.04 837.118 428.04H842.59C843.678 428.04 844.222 428.456 844.222 429.288C844.222 430.248 843.55 430.728 842.206 430.728H837.022C835.614 430.728 834.75 431.4 834.43 432.744L826.366 467.88C826.046 469.288 826.078 470.408 826.462 471.24C826.91 472.008 827.646 472.392 828.67 472.392C830.142 472.392 831.486 471.56 832.702 469.896C833.982 468.232 835.326 465.064 836.734 460.392C836.99 459.56 837.406 459.144 837.982 459.144C838.43 459.144 838.718 459.336 838.846 459.72C838.974 460.104 838.878 460.808 838.558 461.832C837.342 466.184 835.998 469.512 834.526 471.816C833.118 474.12 831.678 475.72 830.206 476.616C828.734 477.448 827.294 477.864 825.886 477.864ZM848.394 477C847.498 477 847.146 476.584 847.338 475.752L856.458 437.448C856.778 436.04 856.81 434.952 856.554 434.184C856.362 433.352 855.786 432.936 854.826 432.936C853.674 432.936 852.394 433.8 850.986 435.528C849.642 437.192 848.106 440.392 846.378 445.128C846.122 445.96 845.674 446.376 845.034 446.376C844.074 446.376 843.818 445.8 844.266 444.648C845.674 440.232 847.146 436.776 848.682 434.28C850.282 431.784 851.882 430.024 853.482 429C855.082 427.976 856.554 427.464 857.898 427.464C860.01 427.464 861.514 428.264 862.41 429.864C863.306 431.4 863.338 433.96 862.506 437.544L861.45 442.056C861.386 442.504 861.482 442.76 861.738 442.824C861.994 442.888 862.218 442.728 862.41 442.344C864.842 436.776 867.05 432.904 869.034 430.728C871.018 428.552 873.29 427.464 875.85 427.464C877.578 427.464 878.858 427.944 879.69 428.904C880.586 429.8 881.034 431.048 881.034 432.648C881.034 434.248 880.65 435.528 879.882 436.488C879.114 437.448 878.122 437.928 876.906 437.928C875.882 437.928 875.146 437.672 874.698 437.16C874.25 436.648 873.898 436.072 873.642 435.432C873.45 434.728 873.226 434.12 872.97 433.608C872.714 433.096 872.298 432.84 871.722 432.84C870.762 432.84 869.514 434.056 867.978 436.488C866.442 438.92 864.778 442.216 862.986 446.376C861.258 450.472 859.562 455.08 857.898 460.2C856.298 465.32 854.89 470.568 853.674 475.944C853.482 476.648 853.034 477 852.33 477H848.394ZM888.634 477.864C886.266 477.864 884.634 476.808 883.738 474.696C882.906 472.52 882.97 469.672 883.93 466.152L891.514 438.312C892.026 436.456 892.154 435.016 891.898 433.992C891.642 432.968 891.066 432.456 890.17 432.456C888.698 432.456 887.194 433.576 885.658 435.816C884.186 438.056 882.906 441.16 881.818 445.128C881.626 445.832 881.21 446.184 880.57 446.184C879.674 446.184 879.386 445.544 879.706 444.264C881.178 438.888 883.098 434.76 885.466 431.88C887.898 428.936 890.554 427.464 893.434 427.464C895.738 427.464 897.274 428.52 898.042 430.632C898.81 432.744 898.682 435.624 897.658 439.272L889.978 467.112C888.762 471.528 889.178 473.736 891.226 473.736C892.506 473.736 893.978 472.872 895.642 471.144C897.306 469.416 899.034 467.048 900.826 464.04C902.682 461.032 904.506 457.608 906.298 453.768C908.09 449.928 909.722 445.896 911.194 441.672C912.666 437.448 913.882 433.256 914.842 429.096C915.034 428.392 915.482 428.04 916.186 428.04H920.026C920.922 428.04 921.274 428.456 921.082 429.288L912.058 467.88C911.354 470.888 911.898 472.392 913.69 472.392C916.378 472.392 919.194 468.328 922.138 460.2C922.394 459.368 922.842 458.952 923.482 458.952C923.866 458.952 924.122 459.112 924.25 459.432C924.442 459.752 924.442 460.168 924.25 460.68C922.522 466.12 920.474 470.344 918.106 473.352C915.738 476.36 913.242 477.864 910.618 477.864C906.01 477.864 904.474 474.504 906.01 467.784L908.506 457.128C908.634 456.68 908.538 456.424 908.218 456.36C907.962 456.296 907.738 456.456 907.546 456.84C903.834 464.52 900.41 469.96 897.274 473.16C894.138 476.296 891.258 477.864 888.634 477.864ZM939.976 477.864C936.456 477.864 933.544 476.424 931.24 473.544C928.936 470.6 927.784 466.856 927.784 462.312C927.784 458.024 928.456 453.832 929.8 449.736C931.208 445.576 933.064 441.832 935.368 438.504C937.736 435.112 940.328 432.424 943.144 430.44C946.024 428.456 948.904 427.464 951.784 427.464C954.856 427.464 957.448 428.296 959.56 429.96C959.88 430.216 960.072 430.44 960.136 430.632C960.2 430.76 960.168 431.08 960.04 431.592L957.448 444.168C957.256 445.064 956.84 445.512 956.2 445.512C955.496 445.512 955.08 445.032 954.952 444.072L954.472 437.256C954.28 434.312 953.832 432.392 953.128 431.496C952.488 430.6 951.528 430.152 950.248 430.152C948.456 430.152 946.632 431.048 944.776 432.84C942.92 434.568 941.192 436.936 939.592 439.944C938.056 442.888 936.808 446.184 935.848 449.832C934.952 453.416 934.504 457.064 934.504 460.776C934.504 468.84 937.128 472.872 942.376 472.872C944.872 472.872 947.112 471.72 949.096 469.416C951.144 467.112 953.032 463.528 954.76 458.664C954.952 458.024 955.4 457.704 956.104 457.704C956.488 457.704 956.712 457.864 956.776 458.184C956.84 458.44 956.776 458.984 956.584 459.816C955.944 463.336 954.792 466.44 953.128 469.128C951.464 471.816 949.48 473.96 947.176 475.56C944.936 477.096 942.536 477.864 939.976 477.864ZM969.792 477.864C967.616 477.864 965.92 477 964.704 475.272C963.488 473.544 963.296 470.76 964.128 466.92L972.096 432.168C972.288 431.208 971.904 430.728 970.944 430.728H967.296C966.4 430.728 965.952 430.312 965.952 429.48C965.952 429.032 966.112 428.68 966.432 428.424C966.752 428.168 967.136 428.04 967.584 428.04H971.04C972.512 428.04 973.376 427.368 973.632 426.024L975.936 415.752C976.128 415.048 976.576 414.696 977.28 414.696H981.216C982.112 414.696 982.464 415.112 982.272 415.944L979.872 426.6C979.68 427.56 980.064 428.04 981.024 428.04H986.496C987.584 428.04 988.128 428.456 988.128 429.288C988.128 430.248 987.456 430.728 986.112 430.728H980.928C979.52 430.728 978.656 431.4 978.336 432.744L970.272 467.88C969.952 469.288 969.984 470.408 970.368 471.24C970.816 472.008 971.552 472.392 972.576 472.392C974.048 472.392 975.392 471.56 976.608 469.896C977.888 468.232 979.232 465.064 980.64 460.392C980.896 459.56 981.312 459.144 981.888 459.144C982.336 459.144 982.624 459.336 982.752 459.72C982.88 460.104 982.784 460.808 982.464 461.832C981.248 466.184 979.904 469.512 978.432 471.816C977.024 474.12 975.584 475.72 974.112 476.616C972.64 477.448 971.2 477.864 969.792 477.864ZM997.196 477.864C994.828 477.864 993.196 476.808 992.3 474.696C991.468 472.52 991.532 469.672 992.492 466.152L1000.08 438.312C1000.59 436.456 1000.72 435.016 1000.46 433.992C1000.2 432.968 999.628 432.456 998.732 432.456C997.26 432.456 995.756 433.576 994.22 435.816C992.748 438.056 991.468 441.16 990.38 445.128C990.188 445.832 989.772 446.184 989.132 446.184C988.236 446.184 987.948 445.544 988.268 444.264C989.74 438.888 991.66 434.76 994.028 431.88C996.46 428.936 999.116 427.464 1002 427.464C1004.3 427.464 1005.84 428.52 1006.6 430.632C1007.37 432.744 1007.24 435.624 1006.22 439.272L998.54 467.112C997.324 471.528 997.74 473.736 999.788 473.736C1001.07 473.736 1002.54 472.872 1004.2 471.144C1005.87 469.416 1007.6 467.048 1009.39 464.04C1011.24 461.032 1013.07 457.608 1014.86 453.768C1016.65 449.928 1018.28 445.896 1019.76 441.672C1021.23 437.448 1022.44 433.256 1023.4 429.096C1023.6 428.392 1024.04 428.04 1024.75 428.04H1028.59C1029.48 428.04 1029.84 428.456 1029.64 429.288L1020.62 467.88C1019.92 470.888 1020.46 472.392 1022.25 472.392C1024.94 472.392 1027.76 468.328 1030.7 460.2C1030.96 459.368 1031.4 458.952 1032.04 458.952C1032.43 458.952 1032.68 459.112 1032.81 459.432C1033 459.752 1033 460.168 1032.81 460.68C1031.08 466.12 1029.04 470.344 1026.67 473.352C1024.3 476.36 1021.8 477.864 1019.18 477.864C1014.57 477.864 1013.04 474.504 1014.57 467.784L1017.07 457.128C1017.2 456.68 1017.1 456.424 1016.78 456.36C1016.52 456.296 1016.3 456.456 1016.11 456.84C1012.4 464.52 1008.97 469.96 1005.84 473.16C1002.7 476.296 999.82 477.864 997.196 477.864ZM1041.05 477C1040.15 477 1039.8 476.584 1039.99 475.752L1049.11 437.448C1049.43 436.04 1049.47 434.952 1049.21 434.184C1049.02 433.352 1048.44 432.936 1047.48 432.936C1046.33 432.936 1045.05 433.8 1043.64 435.528C1042.3 437.192 1040.76 440.392 1039.03 445.128C1038.78 445.96 1038.33 446.376 1037.69 446.376C1036.73 446.376 1036.47 445.8 1036.92 444.648C1038.33 440.232 1039.8 436.776 1041.34 434.28C1042.94 431.784 1044.54 430.024 1046.14 429C1047.74 427.976 1049.21 427.464 1050.55 427.464C1052.67 427.464 1054.17 428.264 1055.07 429.864C1055.96 431.4 1055.99 433.96 1055.16 437.544L1054.11 442.056C1054.04 442.504 1054.14 442.76 1054.39 442.824C1054.65 442.888 1054.87 442.728 1055.07 442.344C1057.5 436.776 1059.71 432.904 1061.69 430.728C1063.67 428.552 1065.95 427.464 1068.51 427.464C1070.23 427.464 1071.51 427.944 1072.35 428.904C1073.24 429.8 1073.69 431.048 1073.69 432.648C1073.69 434.248 1073.31 435.528 1072.54 436.488C1071.77 437.448 1070.78 437.928 1069.56 437.928C1068.54 437.928 1067.8 437.672 1067.35 437.16C1066.91 436.648 1066.55 436.072 1066.3 435.432C1066.11 434.728 1065.88 434.12 1065.63 433.608C1065.37 433.096 1064.95 432.84 1064.38 432.84C1063.42 432.84 1062.17 434.056 1060.63 436.488C1059.1 438.92 1057.43 442.216 1055.64 446.376C1053.91 450.472 1052.22 455.08 1050.55 460.2C1048.95 465.32 1047.55 470.568 1046.33 475.944C1046.14 476.648 1045.69 477 1044.99 477H1041.05ZM1080.95 477.864C1077.55 477.864 1074.83 476.552 1072.79 473.928C1070.74 471.24 1069.71 467.464 1069.71 462.6C1069.71 458.376 1070.45 454.184 1071.92 450.024C1073.46 445.864 1075.44 442.088 1077.87 438.696C1080.31 435.304 1082.96 432.584 1085.84 430.536C1088.79 428.488 1091.63 427.464 1094.39 427.464C1097.39 427.464 1099.54 428.2 1100.82 429.672C1102.16 431.08 1102.83 433 1102.83 435.432C1102.83 438.312 1101.81 441.192 1099.76 444.072C1097.78 446.888 1094.96 449.416 1091.31 451.656C1087.73 453.896 1083.51 455.56 1078.64 456.648C1077.23 456.968 1076.5 457.768 1076.43 459.048C1076.37 459.496 1076.34 459.976 1076.34 460.488C1076.34 460.936 1076.34 461.384 1076.34 461.832C1076.34 465.48 1076.95 468.232 1078.16 470.088C1079.44 471.944 1081.17 472.872 1083.35 472.872C1085.78 472.872 1088.11 471.752 1090.35 469.512C1092.66 467.272 1094.58 464.104 1096.11 460.008C1096.31 459.432 1096.69 459.144 1097.27 459.144C1097.65 459.144 1097.87 459.304 1097.94 459.624C1098.07 459.944 1098.07 460.328 1097.94 460.776C1095.89 466.408 1093.39 470.664 1090.45 473.544C1087.57 476.424 1084.4 477.864 1080.95 477.864ZM1077.39 453C1077.27 453.448 1077.33 453.832 1077.59 454.152C1077.91 454.408 1078.29 454.472 1078.74 454.344C1082.71 453.256 1086.03 451.624 1088.72 449.448C1091.41 447.208 1093.43 444.712 1094.77 441.96C1096.18 439.208 1096.88 436.52 1096.88 433.896C1096.88 431.208 1095.83 429.864 1093.71 429.864C1091.86 429.864 1089.84 430.952 1087.67 433.128C1085.49 435.304 1083.47 438.152 1081.62 441.672C1079.76 445.192 1078.35 448.968 1077.39 453ZM1125.35 477.96C1123.24 477.96 1121.74 477.192 1120.84 475.656C1119.95 474.056 1119.91 471.464 1120.75 467.88L1132.94 415.56C1133.26 414.408 1133.26 413.608 1132.94 413.16C1132.68 412.712 1132.11 412.456 1131.21 412.392L1128.33 412.104C1127.37 412.04 1126.95 411.624 1127.08 410.856C1127.21 410.28 1127.66 409.928 1128.43 409.8C1130.73 409.416 1132.78 408.968 1134.57 408.456C1136.36 407.88 1137.8 407.144 1138.89 406.248C1139.4 405.864 1139.88 405.672 1140.33 405.672C1141.1 405.672 1141.39 406.152 1141.19 407.112L1126.99 467.976C1126.67 469.384 1126.6 470.504 1126.79 471.336C1127.05 472.104 1127.66 472.488 1128.62 472.488C1129.77 472.488 1131.02 471.656 1132.36 469.992C1133.77 468.264 1135.34 465.032 1137.07 460.296C1137.32 459.464 1137.77 459.048 1138.41 459.048C1139.37 459.048 1139.63 459.624 1139.18 460.776C1137.83 465.128 1136.33 468.584 1134.67 471.144C1133.07 473.64 1131.47 475.4 1129.87 476.424C1128.27 477.448 1126.76 477.96 1125.35 477.96ZM1149.86 477.864C1147.55 477.864 1145.76 476.872 1144.48 474.888C1143.2 472.904 1142.56 469.992 1142.56 466.152C1142.56 462.504 1143.07 458.856 1144.1 455.208C1145.12 451.496 1146.53 447.976 1148.32 444.648C1150.11 441.32 1152.13 438.376 1154.37 435.816C1156.67 433.256 1159.07 431.24 1161.57 429.768C1164.13 428.232 1166.66 427.464 1169.15 427.464C1170.37 427.464 1171.52 427.72 1172.61 428.232C1173.7 428.68 1174.59 429.416 1175.3 430.44C1175.68 431.016 1176.06 431.304 1176.45 431.304C1176.83 431.304 1177.22 431.016 1177.6 430.44C1178.3 429.416 1178.88 428.776 1179.33 428.52C1179.78 428.2 1180.19 428.04 1180.58 428.04C1181.41 428.04 1181.73 428.488 1181.54 429.384L1172.99 466.152C1172.03 470.312 1172.67 472.392 1174.91 472.392C1176.38 472.392 1177.7 471.4 1178.85 469.416C1180.06 467.432 1181.28 464.36 1182.5 460.2C1182.69 459.496 1183.1 459.144 1183.74 459.144C1184.19 459.144 1184.48 459.336 1184.61 459.72C1184.74 460.104 1184.74 460.552 1184.61 461.064C1183.39 467.08 1181.76 471.4 1179.71 474.024C1177.66 476.584 1175.2 477.864 1172.32 477.864C1169.82 477.864 1168.03 476.808 1166.94 474.696C1165.92 472.584 1165.82 469.704 1166.66 466.056L1167.9 460.776C1168.03 460.328 1167.94 460.072 1167.62 460.008C1167.36 459.944 1167.14 460.104 1166.94 460.488C1163.42 466.952 1160.29 471.464 1157.54 474.024C1154.85 476.584 1152.29 477.864 1149.86 477.864ZM1152.26 472.968C1153.79 472.968 1155.49 472.04 1157.34 470.184C1159.2 468.328 1161.02 465.928 1162.82 462.984C1164.67 460.04 1166.37 456.872 1167.9 453.48C1169.44 450.088 1170.66 446.824 1171.55 443.688C1172.51 440.552 1172.99 437.896 1172.99 435.72C1172.99 431.816 1171.62 429.864 1168.86 429.864C1167.2 429.864 1165.44 430.632 1163.58 432.168C1161.73 433.64 1159.94 435.656 1158.21 438.216C1156.54 440.776 1155.01 443.688 1153.6 446.952C1152.26 450.152 1151.17 453.512 1150.34 457.032C1149.5 460.488 1149.09 463.88 1149.09 467.208C1149.09 469.448 1149.34 470.984 1149.86 471.816C1150.43 472.584 1151.23 472.968 1152.26 472.968ZM1181.47 497.64C1179.04 497.64 1177.15 497 1175.81 495.72C1174.46 494.504 1173.79 493 1173.79 491.208C1173.79 489.864 1174.14 488.84 1174.85 488.136C1175.55 487.496 1176.32 487.176 1177.15 487.176C1178.37 487.176 1179.23 487.496 1179.74 488.136C1180.25 488.776 1180.64 489.512 1180.89 490.344C1181.15 491.24 1181.57 492.008 1182.14 492.648C1182.65 493.288 1183.52 493.608 1184.73 493.608C1187.1 493.608 1189.44 492.648 1191.74 490.728C1194.05 488.872 1195.93 486.28 1197.41 482.952C1198.88 479.688 1199.52 476.008 1199.33 471.912L1197.89 437.448C1197.82 435.784 1197.53 434.632 1197.02 433.992C1196.51 433.288 1195.87 432.936 1195.1 432.936C1193.69 432.936 1192.35 433.8 1191.07 435.528C1189.79 437.192 1188.73 440.392 1187.9 445.128C1187.71 445.96 1187.29 446.376 1186.65 446.376C1185.76 446.376 1185.41 445.8 1185.6 444.648C1186.37 440.232 1187.42 436.776 1188.77 434.28C1190.17 431.784 1191.65 430.024 1193.18 429C1194.78 427.976 1196.25 427.464 1197.6 427.464C1199.58 427.464 1201.15 428.168 1202.3 429.576C1203.45 430.92 1204.09 433.256 1204.22 436.584L1205.57 473.448C1205.57 473.896 1205.69 474.184 1205.95 474.312C1206.27 474.376 1206.56 474.216 1206.81 473.832C1209.05 470.696 1211.07 467.464 1212.86 464.136C1214.72 460.744 1216.19 457.416 1217.28 454.152C1218.37 450.888 1218.91 447.88 1218.91 445.128C1218.91 442.44 1218.62 440.328 1218.05 438.792C1217.47 437.192 1216.86 435.848 1216.22 434.76C1215.65 433.672 1215.36 432.488 1215.36 431.208C1215.36 428.712 1216.45 427.464 1218.62 427.464C1221.69 427.464 1223.23 430.856 1223.23 437.64C1223.23 441.352 1222.59 445.416 1221.31 449.832C1220.03 454.184 1218.27 458.632 1216.03 463.176C1213.85 467.656 1211.33 471.944 1208.45 476.04C1205.63 480.136 1202.65 483.816 1199.52 487.08C1196.45 490.344 1193.34 492.904 1190.21 494.76C1187.13 496.68 1184.22 497.64 1181.47 497.64ZM1236.57 477.864C1233.18 477.864 1230.46 476.552 1228.41 473.928C1226.36 471.24 1225.34 467.464 1225.34 462.6C1225.34 458.376 1226.08 454.184 1227.55 450.024C1229.08 445.864 1231.07 442.088 1233.5 438.696C1235.93 435.304 1238.59 432.584 1241.47 430.536C1244.41 428.488 1247.26 427.464 1250.01 427.464C1253.02 427.464 1255.16 428.2 1256.44 429.672C1257.79 431.08 1258.46 433 1258.46 435.432C1258.46 438.312 1257.44 441.192 1255.39 444.072C1253.4 446.888 1250.59 449.416 1246.94 451.656C1243.36 453.896 1239.13 455.56 1234.27 456.648C1232.86 456.968 1232.12 457.768 1232.06 459.048C1232 459.496 1231.96 459.976 1231.96 460.488C1231.96 460.936 1231.96 461.384 1231.96 461.832C1231.96 465.48 1232.57 468.232 1233.79 470.088C1235.07 471.944 1236.8 472.872 1238.97 472.872C1241.4 472.872 1243.74 471.752 1245.98 469.512C1248.28 467.272 1250.2 464.104 1251.74 460.008C1251.93 459.432 1252.32 459.144 1252.89 459.144C1253.28 459.144 1253.5 459.304 1253.56 459.624C1253.69 459.944 1253.69 460.328 1253.56 460.776C1251.52 466.408 1249.02 470.664 1246.08 473.544C1243.2 476.424 1240.03 477.864 1236.57 477.864ZM1233.02 453C1232.89 453.448 1232.96 453.832 1233.21 454.152C1233.53 454.408 1233.92 454.472 1234.36 454.344C1238.33 453.256 1241.66 451.624 1244.35 449.448C1247.04 447.208 1249.05 444.712 1250.4 441.96C1251.8 439.208 1252.51 436.52 1252.51 433.896C1252.51 431.208 1251.45 429.864 1249.34 429.864C1247.48 429.864 1245.47 430.952 1243.29 433.128C1241.12 435.304 1239.1 438.152 1237.24 441.672C1235.39 445.192 1233.98 448.968 1233.02 453ZM1263.71 477C1262.81 477 1262.46 476.584 1262.65 475.752L1271.77 437.448C1272.09 436.04 1272.12 434.952 1271.87 434.184C1271.67 433.352 1271.1 432.936 1270.14 432.936C1268.99 432.936 1267.71 433.8 1266.3 435.528C1264.95 437.192 1263.42 440.392 1261.69 445.128C1261.43 445.96 1260.99 446.376 1260.35 446.376C1259.39 446.376 1259.13 445.8 1259.58 444.648C1260.99 440.232 1262.46 436.776 1263.99 434.28C1265.59 431.784 1267.19 430.024 1268.79 429C1270.39 427.976 1271.87 427.464 1273.21 427.464C1275.32 427.464 1276.83 428.264 1277.72 429.864C1278.62 431.4 1278.65 433.96 1277.82 437.544L1276.76 442.056C1276.7 442.504 1276.79 442.76 1277.05 442.824C1277.31 442.888 1277.53 442.728 1277.72 442.344C1280.15 436.776 1282.36 432.904 1284.35 430.728C1286.33 428.552 1288.6 427.464 1291.16 427.464C1292.89 427.464 1294.17 427.944 1295 428.904C1295.9 429.8 1296.35 431.048 1296.35 432.648C1296.35 434.248 1295.96 435.528 1295.19 436.488C1294.43 437.448 1293.43 437.928 1292.22 437.928C1291.19 437.928 1290.46 437.672 1290.01 437.16C1289.56 436.648 1289.21 436.072 1288.95 435.432C1288.76 434.728 1288.54 434.12 1288.28 433.608C1288.03 433.096 1287.61 432.84 1287.03 432.84C1286.07 432.84 1284.83 434.056 1283.29 436.488C1281.75 438.92 1280.09 442.216 1278.3 446.376C1276.57 450.472 1274.87 455.08 1273.21 460.2C1271.61 465.32 1270.2 470.568 1268.99 475.944C1268.79 476.648 1268.35 477 1267.64 477H1263.71ZM1322.85 477.864C1319.33 477.864 1316.42 476.424 1314.11 473.544C1311.81 470.6 1310.66 466.856 1310.66 462.312C1310.66 458.024 1311.33 453.832 1312.67 449.736C1314.08 445.576 1315.94 441.832 1318.24 438.504C1320.61 435.112 1323.2 432.424 1326.02 430.44C1328.9 428.456 1331.78 427.464 1334.66 427.464C1337.73 427.464 1340.32 428.296 1342.43 429.96C1342.75 430.216 1342.95 430.44 1343.01 430.632C1343.07 430.76 1343.04 431.08 1342.91 431.592L1340.32 444.168C1340.13 445.064 1339.71 445.512 1339.07 445.512C1338.37 445.512 1337.95 445.032 1337.83 444.072L1337.35 437.256C1337.15 434.312 1336.71 432.392 1336 431.496C1335.36 430.6 1334.4 430.152 1333.12 430.152C1331.33 430.152 1329.51 431.048 1327.65 432.84C1325.79 434.568 1324.07 436.936 1322.47 439.944C1320.93 442.888 1319.68 446.184 1318.72 449.832C1317.83 453.416 1317.38 457.064 1317.38 460.776C1317.38 468.84 1320 472.872 1325.25 472.872C1327.75 472.872 1329.99 471.72 1331.97 469.416C1334.02 467.112 1335.91 463.528 1337.63 458.664C1337.83 458.024 1338.27 457.704 1338.98 457.704C1339.36 457.704 1339.59 457.864 1339.65 458.184C1339.71 458.44 1339.65 458.984 1339.46 459.816C1338.82 463.336 1337.67 466.44 1336 469.128C1334.34 471.816 1332.35 473.96 1330.05 475.56C1327.81 477.096 1325.41 477.864 1322.85 477.864ZM1357.66 477.864C1353.69 477.864 1350.56 476.232 1348.25 472.968C1345.95 469.64 1344.8 465.16 1344.8 459.528C1344.8 455.368 1345.47 451.368 1346.81 447.528C1348.16 443.688 1349.92 440.264 1352.09 437.256C1354.33 434.248 1356.8 431.88 1359.48 430.152C1362.24 428.36 1364.99 427.464 1367.74 427.464C1371.71 427.464 1374.84 429.096 1377.15 432.36C1379.45 435.624 1380.6 440.104 1380.6 445.8C1380.6 449.96 1379.93 453.96 1378.59 457.8C1377.24 461.64 1375.45 465.064 1373.21 468.072C1371.04 471.08 1368.57 473.48 1365.82 475.272C1363.13 477 1360.41 477.864 1357.66 477.864ZM1357.47 475.56C1359.52 475.56 1361.5 474.568 1363.42 472.584C1365.4 470.6 1367.2 467.976 1368.8 464.712C1370.4 461.448 1371.68 457.832 1372.64 453.864C1373.6 449.832 1374.08 445.8 1374.08 441.768C1374.08 433.768 1372 429.768 1367.84 429.768C1365.85 429.768 1363.87 430.76 1361.88 432.744C1359.9 434.664 1358.11 437.256 1356.51 440.52C1354.97 443.784 1353.72 447.432 1352.76 451.464C1351.8 455.432 1351.32 459.432 1351.32 463.464C1351.32 471.528 1353.37 475.56 1357.47 475.56ZM1387.71 475.752L1396.83 437.448C1397.15 436.04 1397.19 434.952 1396.93 434.184C1396.74 433.352 1396.16 432.936 1395.2 432.936C1394.05 432.936 1392.77 433.8 1391.36 435.528C1390.02 437.192 1388.48 440.392 1386.75 445.128C1386.5 445.96 1386.05 446.376 1385.41 446.376C1384.45 446.376 1384.19 445.8 1384.64 444.648C1386.05 440.232 1387.52 436.776 1389.06 434.28C1390.66 431.784 1392.26 430.024 1393.86 429C1395.46 427.976 1396.93 427.464 1398.27 427.464C1400.39 427.464 1401.89 428.264 1402.79 429.864C1403.68 431.4 1403.71 433.96 1402.88 437.544L1400.48 447.912C1400.42 448.36 1400.51 448.616 1400.77 448.68C1401.03 448.744 1401.25 448.584 1401.44 448.2C1403.94 443.016 1406.34 438.92 1408.64 435.912C1410.95 432.84 1413.12 430.664 1415.17 429.384C1417.22 428.104 1419.07 427.464 1420.74 427.464C1423.11 427.464 1424.83 428.424 1425.92 430.344C1427.01 432.264 1427.01 435.208 1425.92 439.176L1418.63 467.016C1418.18 468.808 1418.15 470.152 1418.53 471.048C1418.91 471.944 1419.62 472.392 1420.64 472.392C1421.92 472.392 1423.17 471.56 1424.39 469.896C1425.67 468.168 1426.98 464.936 1428.32 460.2C1428.51 459.496 1428.93 459.144 1429.57 459.144C1430.08 459.144 1430.37 459.336 1430.43 459.72C1430.56 460.104 1430.56 460.552 1430.43 461.064C1429.22 465.416 1427.91 468.84 1426.5 471.336C1425.09 473.768 1423.65 475.464 1422.18 476.424C1420.77 477.384 1419.33 477.864 1417.86 477.864C1415.55 477.864 1413.83 476.904 1412.67 474.984C1411.52 473.064 1411.46 470.088 1412.48 466.056L1419.87 438.216C1420.58 435.72 1420.67 433.992 1420.16 433.032C1419.71 432.072 1419.04 431.592 1418.15 431.592C1416.74 431.592 1415.14 432.488 1413.35 434.28C1411.55 436.008 1409.73 438.408 1407.87 441.48C1406.02 444.488 1404.19 447.912 1402.4 451.752C1400.61 455.592 1398.98 459.592 1397.51 463.752C1396.1 467.912 1394.95 471.976 1394.05 475.944C1393.86 476.648 1393.41 477 1392.71 477H1388.77C1387.87 477 1387.52 476.584 1387.71 475.752ZM1437.78 475.752L1446.9 437.448C1447.22 436.04 1447.25 434.952 1446.99 434.184C1446.8 433.352 1446.22 432.936 1445.26 432.936C1444.11 432.936 1442.83 433.8 1441.42 435.528C1440.08 437.192 1438.54 440.392 1436.82 445.128C1436.56 445.96 1436.11 446.376 1435.47 446.376C1434.51 446.376 1434.26 445.8 1434.7 444.648C1436.11 440.232 1437.58 436.776 1439.12 434.28C1440.72 431.784 1442.32 430.024 1443.92 429C1445.52 427.976 1446.99 427.464 1448.34 427.464C1450.45 427.464 1451.95 428.264 1452.85 429.864C1453.74 431.4 1453.78 433.96 1452.94 437.544L1450.54 447.912C1450.48 448.36 1450.58 448.616 1450.83 448.68C1451.09 448.744 1451.31 448.584 1451.5 448.2C1454 443.016 1456.4 438.92 1458.7 435.912C1461.01 432.84 1463.18 430.664 1465.23 429.384C1467.28 428.104 1469.14 427.464 1470.8 427.464C1473.17 427.464 1474.9 428.424 1475.98 430.344C1477.07 432.264 1477.07 435.208 1475.98 439.176L1468.69 467.016C1468.24 468.808 1468.21 470.152 1468.59 471.048C1468.98 471.944 1469.68 472.392 1470.7 472.392C1471.98 472.392 1473.23 471.56 1474.45 469.896C1475.73 468.168 1477.04 464.936 1478.38 460.2C1478.58 459.496 1478.99 459.144 1479.63 459.144C1480.14 459.144 1480.43 459.336 1480.5 459.72C1480.62 460.104 1480.62 460.552 1480.5 461.064C1479.28 465.416 1477.97 468.84 1476.56 471.336C1475.15 473.768 1473.71 475.464 1472.24 476.424C1470.83 477.384 1469.39 477.864 1467.92 477.864C1465.62 477.864 1463.89 476.904 1462.74 474.984C1461.58 473.064 1461.52 470.088 1462.54 466.056L1469.94 438.216C1470.64 435.72 1470.74 433.992 1470.22 433.032C1469.78 432.072 1469.1 431.592 1468.21 431.592C1466.8 431.592 1465.2 432.488 1463.41 434.28C1461.62 436.008 1459.79 438.408 1457.94 441.48C1456.08 444.488 1454.26 447.912 1452.46 451.752C1450.67 455.592 1449.04 459.592 1447.57 463.752C1446.16 467.912 1445.01 471.976 1444.11 475.944C1443.92 476.648 1443.47 477 1442.77 477H1438.83C1437.94 477 1437.58 476.584 1437.78 475.752ZM1495.13 477.864C1491.74 477.864 1489.02 476.552 1486.97 473.928C1484.93 471.24 1483.9 467.464 1483.9 462.6C1483.9 458.376 1484.64 454.184 1486.11 450.024C1487.65 445.864 1489.63 442.088 1492.06 438.696C1494.49 435.304 1497.15 432.584 1500.03 430.536C1502.97 428.488 1505.82 427.464 1508.57 427.464C1511.58 427.464 1513.73 428.2 1515.01 429.672C1516.35 431.08 1517.02 433 1517.02 435.432C1517.02 438.312 1516 441.192 1513.95 444.072C1511.97 446.888 1509.15 449.416 1505.5 451.656C1501.92 453.896 1497.69 455.56 1492.83 456.648C1491.42 456.968 1490.69 457.768 1490.62 459.048C1490.56 459.496 1490.53 459.976 1490.53 460.488C1490.53 460.936 1490.53 461.384 1490.53 461.832C1490.53 465.48 1491.13 468.232 1492.35 470.088C1493.63 471.944 1495.36 472.872 1497.53 472.872C1499.97 472.872 1502.3 471.752 1504.54 469.512C1506.85 467.272 1508.77 464.104 1510.3 460.008C1510.49 459.432 1510.88 459.144 1511.45 459.144C1511.84 459.144 1512.06 459.304 1512.13 459.624C1512.25 459.944 1512.25 460.328 1512.13 460.776C1510.08 466.408 1507.58 470.664 1504.64 473.544C1501.76 476.424 1498.59 477.864 1495.13 477.864ZM1491.58 453C1491.45 453.448 1491.52 453.832 1491.77 454.152C1492.09 454.408 1492.48 454.472 1492.93 454.344C1496.89 453.256 1500.22 451.624 1502.91 449.448C1505.6 447.208 1507.61 444.712 1508.96 441.96C1510.37 439.208 1511.07 436.52 1511.07 433.896C1511.07 431.208 1510.01 429.864 1507.9 429.864C1506.05 429.864 1504.03 430.952 1501.85 433.128C1499.68 435.304 1497.66 438.152 1495.81 441.672C1493.95 445.192 1492.54 448.968 1491.58 453ZM1529.76 477.864C1526.24 477.864 1523.33 476.424 1521.02 473.544C1518.72 470.6 1517.57 466.856 1517.57 462.312C1517.57 458.024 1518.24 453.832 1519.58 449.736C1520.99 445.576 1522.85 441.832 1525.15 438.504C1527.52 435.112 1530.11 432.424 1532.93 430.44C1535.81 428.456 1538.69 427.464 1541.57 427.464C1544.64 427.464 1547.23 428.296 1549.34 429.96C1549.66 430.216 1549.85 430.44 1549.92 430.632C1549.98 430.76 1549.95 431.08 1549.82 431.592L1547.23 444.168C1547.04 445.064 1546.62 445.512 1545.98 445.512C1545.28 445.512 1544.86 445.032 1544.73 444.072L1544.25 437.256C1544.06 434.312 1543.61 432.392 1542.91 431.496C1542.27 430.6 1541.31 430.152 1540.03 430.152C1538.24 430.152 1536.41 431.048 1534.56 432.84C1532.7 434.568 1530.97 436.936 1529.37 439.944C1527.84 442.888 1526.59 446.184 1525.63 449.832C1524.73 453.416 1524.29 457.064 1524.29 460.776C1524.29 468.84 1526.91 472.872 1532.16 472.872C1534.65 472.872 1536.89 471.72 1538.88 469.416C1540.93 467.112 1542.81 463.528 1544.54 458.664C1544.73 458.024 1545.18 457.704 1545.89 457.704C1546.27 457.704 1546.49 457.864 1546.56 458.184C1546.62 458.44 1546.56 458.984 1546.37 459.816C1545.73 463.336 1544.57 466.44 1542.91 469.128C1541.25 471.816 1539.26 473.96 1536.96 475.56C1534.72 477.096 1532.32 477.864 1529.76 477.864ZM1559.57 477.864C1557.4 477.864 1555.7 477 1554.49 475.272C1553.27 473.544 1553.08 470.76 1553.91 466.92L1561.88 432.168C1562.07 431.208 1561.69 430.728 1560.73 430.728H1557.08C1556.18 430.728 1555.73 430.312 1555.73 429.48C1555.73 429.032 1555.89 428.68 1556.21 428.424C1556.53 428.168 1556.92 428.04 1557.37 428.04H1560.82C1562.29 428.04 1563.16 427.368 1563.41 426.024L1565.72 415.752C1565.91 415.048 1566.36 414.696 1567.06 414.696H1571C1571.89 414.696 1572.25 415.112 1572.05 415.944L1569.65 426.6C1569.46 427.56 1569.85 428.04 1570.81 428.04H1576.28C1577.37 428.04 1577.91 428.456 1577.91 429.288C1577.91 430.248 1577.24 430.728 1575.89 430.728H1570.71C1569.3 430.728 1568.44 431.4 1568.12 432.744L1560.05 467.88C1559.73 469.288 1559.77 470.408 1560.15 471.24C1560.6 472.008 1561.33 472.392 1562.36 472.392C1563.83 472.392 1565.17 471.56 1566.39 469.896C1567.67 468.232 1569.01 465.064 1570.42 460.392C1570.68 459.56 1571.09 459.144 1571.67 459.144C1572.12 459.144 1572.41 459.336 1572.53 459.72C1572.66 460.104 1572.57 460.808 1572.25 461.832C1571.03 466.184 1569.69 469.512 1568.21 471.816C1566.81 474.12 1565.37 475.72 1563.89 476.616C1562.42 477.448 1560.98 477.864 1559.57 477.864ZM1595.52 418.92C1594.31 418.92 1593.28 418.504 1592.45 417.672C1591.68 416.776 1591.3 415.72 1591.3 414.504C1591.3 412.776 1591.81 411.4 1592.83 410.376C1593.92 409.352 1595.14 408.84 1596.48 408.84C1597.76 408.84 1598.82 409.256 1599.65 410.088C1600.55 410.856 1600.99 411.88 1600.99 413.16C1600.99 414.952 1600.45 416.36 1599.36 417.384C1598.27 418.408 1596.99 418.92 1595.52 418.92ZM1587.65 477.96C1585.54 477.96 1584.03 477.192 1583.14 475.656C1582.24 474.056 1582.21 471.464 1583.04 467.88L1590.15 437.448C1590.47 436.04 1590.5 434.952 1590.24 434.184C1590.05 433.352 1589.47 432.936 1588.51 432.936C1587.36 432.936 1586.08 433.8 1584.67 435.528C1583.33 437.192 1581.79 440.392 1580.07 445.128C1579.81 445.96 1579.36 446.376 1578.72 446.376C1577.76 446.376 1577.51 445.8 1577.95 444.648C1579.36 440.232 1580.83 436.776 1582.37 434.28C1583.97 431.784 1585.57 430.024 1587.17 429C1588.77 427.976 1590.24 427.464 1591.59 427.464C1593.83 427.464 1595.39 428.264 1596.29 429.864C1597.19 431.4 1597.22 433.96 1596.39 437.544L1589.28 467.976C1588.96 469.384 1588.9 470.504 1589.09 471.336C1589.35 472.104 1589.95 472.488 1590.91 472.488C1592.07 472.488 1593.31 471.656 1594.66 469.992C1596.07 468.264 1597.63 465.032 1599.36 460.296C1599.62 459.464 1600.07 459.048 1600.71 459.048C1601.67 459.048 1601.92 459.624 1601.47 460.776C1600.13 465.128 1598.63 468.584 1596.96 471.144C1595.36 473.64 1593.76 475.4 1592.16 476.424C1590.56 477.448 1589.06 477.96 1587.65 477.96ZM1608.68 475.752L1617.8 437.448C1618.12 436.04 1618.15 434.952 1617.9 434.184C1617.71 433.352 1617.13 432.936 1616.17 432.936C1615.02 432.936 1613.74 433.8 1612.33 435.528C1610.99 437.192 1609.45 440.392 1607.72 445.128C1607.47 445.96 1607.02 446.376 1606.38 446.376C1605.42 446.376 1605.16 445.8 1605.61 444.648C1607.02 440.232 1608.49 436.776 1610.03 434.28C1611.63 431.784 1613.23 430.024 1614.83 429C1616.43 427.976 1617.9 427.464 1619.24 427.464C1621.35 427.464 1622.86 428.264 1623.75 429.864C1624.65 431.4 1624.68 433.96 1623.85 437.544L1621.45 447.912C1621.39 448.36 1621.48 448.616 1621.74 448.68C1621.99 448.744 1622.22 448.584 1622.41 448.2C1624.91 443.016 1627.31 438.92 1629.61 435.912C1631.91 432.84 1634.09 430.664 1636.14 429.384C1638.19 428.104 1640.04 427.464 1641.71 427.464C1644.07 427.464 1645.8 428.424 1646.89 430.344C1647.98 432.264 1647.98 435.208 1646.89 439.176L1639.59 467.016C1639.15 468.808 1639.11 470.152 1639.5 471.048C1639.88 471.944 1640.59 472.392 1641.61 472.392C1642.89 472.392 1644.14 471.56 1645.35 469.896C1646.63 468.168 1647.95 464.936 1649.29 460.2C1649.48 459.496 1649.9 459.144 1650.54 459.144C1651.05 459.144 1651.34 459.336 1651.4 459.72C1651.53 460.104 1651.53 460.552 1651.4 461.064C1650.19 465.416 1648.87 468.84 1647.47 471.336C1646.06 473.768 1644.62 475.464 1643.15 476.424C1641.74 477.384 1640.3 477.864 1638.83 477.864C1636.52 477.864 1634.79 476.904 1633.64 474.984C1632.49 473.064 1632.43 470.088 1633.45 466.056L1640.84 438.216C1641.55 435.72 1641.64 433.992 1641.13 433.032C1640.68 432.072 1640.01 431.592 1639.11 431.592C1637.71 431.592 1636.11 432.488 1634.31 434.28C1632.52 436.008 1630.7 438.408 1628.84 441.48C1626.99 444.488 1625.16 447.912 1623.37 451.752C1621.58 455.592 1619.95 459.592 1618.47 463.752C1617.07 467.912 1615.91 471.976 1615.02 475.944C1614.83 476.648 1614.38 477 1613.67 477H1609.74C1608.84 477 1608.49 476.584 1608.68 475.752ZM1661.27 497.736C1656.22 497.736 1652.38 496.808 1649.75 494.952C1647.13 493.096 1645.82 490.888 1645.82 488.328C1645.82 486.088 1646.71 483.88 1648.5 481.704C1650.23 479.592 1653.46 477.16 1658.2 474.408C1658.9 474.024 1659.29 473.608 1659.35 473.16C1659.48 472.648 1659.19 472.168 1658.49 471.72C1656.7 470.568 1655.61 469.224 1655.22 467.688C1654.9 466.152 1655.32 465.064 1656.47 464.424L1663.77 460.2C1664.41 459.88 1664.73 459.496 1664.73 459.048C1664.79 458.536 1664.47 458.088 1663.77 457.704C1662.04 456.68 1660.73 455.24 1659.83 453.384C1659 451.464 1658.58 449.384 1658.58 447.144C1658.58 443.688 1659.42 440.488 1661.08 437.544C1662.81 434.536 1665.08 432.104 1667.9 430.248C1670.78 428.392 1673.98 427.464 1677.5 427.464C1678.97 427.464 1680.22 427.656 1681.24 428.04C1682.01 428.296 1682.58 428.04 1682.97 427.272C1684.06 424.904 1685.43 423.048 1687.1 421.704C1688.82 420.296 1690.62 419.592 1692.47 419.592C1693.82 419.592 1694.84 419.944 1695.54 420.648C1696.31 421.352 1696.7 422.312 1696.7 423.528C1696.7 424.744 1696.34 425.736 1695.64 426.504C1694.94 427.272 1694.04 427.656 1692.95 427.656C1692.12 427.656 1691.48 427.496 1691.03 427.176C1690.65 426.856 1690.3 426.536 1689.98 426.216C1689.66 425.896 1689.14 425.736 1688.44 425.736C1687.03 425.736 1685.91 426.536 1685.08 428.136C1684.82 428.712 1684.76 429.256 1684.89 429.768C1685.02 430.216 1685.27 430.696 1685.66 431.208C1687.32 433.384 1688.15 436.136 1688.15 439.464C1688.15 442.472 1687.48 445.352 1686.14 448.104C1684.86 450.792 1683.06 453.096 1680.76 455.016C1678.52 456.872 1675.93 458.12 1672.98 458.76C1671.83 459.016 1670.78 459.336 1669.82 459.72C1668.92 460.04 1667.77 460.648 1666.36 461.544L1662.52 463.848C1661.56 464.424 1661.3 465.16 1661.75 466.056C1662.2 466.888 1663.45 467.688 1665.5 468.456L1673.75 471.528C1677.34 472.808 1679.8 474.376 1681.14 476.232C1682.55 478.088 1683.26 480.264 1683.26 482.76C1683.26 485.832 1682.23 488.488 1680.18 490.728C1678.2 492.968 1675.54 494.696 1672.22 495.912C1668.89 497.128 1665.24 497.736 1661.27 497.736ZM1665.02 448.872C1665.02 451.816 1665.43 453.96 1666.26 455.304C1667.16 456.584 1668.41 457.224 1670.01 457.224C1672.06 457.224 1673.94 456.296 1675.67 454.44C1677.46 452.52 1678.9 450.088 1679.99 447.144C1681.08 444.136 1681.62 441.032 1681.62 437.832C1681.62 434.632 1681.21 432.456 1680.38 431.304C1679.54 430.088 1678.3 429.48 1676.63 429.48C1674.65 429.48 1672.76 430.44 1670.97 432.36C1669.18 434.216 1667.74 436.616 1666.65 439.56C1665.56 442.504 1665.02 445.608 1665.02 448.872ZM1662.33 495.336C1664.82 495.336 1667.16 494.92 1669.34 494.088C1671.51 493.256 1673.27 492.072 1674.62 490.536C1676.02 489 1676.73 487.176 1676.73 485.064C1676.73 482.952 1676.18 481.192 1675.1 479.784C1674.07 478.44 1672.02 477.192 1668.95 476.04L1667.13 475.368C1665.98 474.92 1664.82 474.76 1663.67 474.888C1662.52 475.016 1661.43 475.336 1660.41 475.848C1656.95 477.768 1654.62 479.56 1653.4 481.224C1652.18 482.888 1651.58 484.712 1651.58 486.696C1651.58 489.064 1652.44 491.08 1654.17 492.744C1655.9 494.472 1658.62 495.336 1662.33 495.336ZM737.064 597C736.296 597 735.912 596.68 735.912 596.04C735.912 595.464 736.424 595.048 737.448 594.792L738.984 594.504C740.264 594.248 741.384 593.64 742.344 592.68C743.24 591.656 744.104 590.248 744.936 588.456L773.64 528.456C773.96 527.816 774.28 527.4 774.6 527.208C774.92 527.016 775.208 526.92 775.464 526.92C775.784 526.92 776.04 527.016 776.232 527.208C776.488 527.4 776.616 527.816 776.616 528.456L777.672 589.32C777.736 591.112 777.96 592.36 778.344 593.064C778.728 593.704 779.528 594.184 780.744 594.504L781.992 594.792C782.76 594.984 783.144 595.368 783.144 595.944C783.144 596.648 782.6 597 781.512 597H765.672C764.84 597 764.424 596.68 764.424 596.04C764.424 595.336 765.064 594.92 766.344 594.792L768.264 594.6C769.352 594.472 770.088 594.12 770.472 593.544C770.92 592.968 771.144 591.976 771.144 590.568L770.952 575.688C770.952 574.024 770.088 573.192 768.36 573.192H758.088C756.424 573.192 755.176 574.024 754.344 575.688L748.104 588.552C746.376 592.2 746.952 594.216 749.832 594.6L751.176 594.792C752.136 594.92 752.616 595.304 752.616 595.944C752.616 596.648 752.072 597 750.984 597H737.064ZM758.472 570.312H769.224C770.312 570.312 770.856 569.768 770.856 568.68L770.664 542.472H770.184L757.608 568.68C757.352 569.128 757.32 569.512 757.512 569.832C757.704 570.152 758.024 570.312 758.472 570.312ZM783.279 597C782.383 597 781.935 596.68 781.935 596.04C781.935 595.336 782.575 594.888 783.855 594.696L785.775 594.408C787.183 594.216 788.143 593.896 788.655 593.448C789.231 592.936 789.647 592.008 789.903 590.664L802.959 534.216C803.279 532.872 803.279 531.976 802.959 531.528C802.639 531.08 801.839 530.728 800.559 530.472L798.639 530.088C797.807 529.896 797.391 529.544 797.391 529.032C797.391 528.264 797.967 527.88 799.119 527.88H816.207C817.103 527.88 817.551 528.2 817.551 528.84C817.551 529.544 816.911 529.992 815.631 530.184L813.711 530.472C812.303 530.664 811.343 531.016 810.831 531.528C810.319 531.976 809.903 532.872 809.583 534.216L796.527 590.664C796.271 592.008 796.271 592.904 796.527 593.352C796.847 593.8 797.647 594.152 798.927 594.408L800.847 594.792C801.679 594.984 802.095 595.336 802.095 595.848C802.095 596.616 801.519 597 800.367 597H783.279ZM835.495 597.864C833.319 597.864 831.623 597 830.407 595.272C829.191 593.544 828.999 590.76 829.831 586.92L837.799 552.168C837.991 551.208 837.607 550.728 836.647 550.728H832.999C832.103 550.728 831.655 550.312 831.655 549.48C831.655 549.032 831.815 548.68 832.135 548.424C832.455 548.168 832.839 548.04 833.287 548.04H836.743C838.215 548.04 839.079 547.368 839.335 546.024L841.639 535.752C841.831 535.048 842.279 534.696 842.983 534.696H846.919C847.815 534.696 848.167 535.112 847.975 535.944L845.575 546.6C845.383 547.56 845.767 548.04 846.727 548.04H852.199C853.287 548.04 853.831 548.456 853.831 549.288C853.831 550.248 853.159 550.728 851.815 550.728H846.631C845.223 550.728 844.359 551.4 844.039 552.744L835.975 587.88C835.655 589.288 835.687 590.408 836.071 591.24C836.519 592.008 837.255 592.392 838.279 592.392C839.751 592.392 841.095 591.56 842.311 589.896C843.591 588.232 844.935 585.064 846.343 580.392C846.599 579.56 847.015 579.144 847.591 579.144C848.039 579.144 848.327 579.336 848.455 579.72C848.583 580.104 848.487 580.808 848.167 581.832C846.951 586.184 845.607 589.512 844.135 591.816C842.727 594.12 841.287 595.72 839.815 596.616C838.343 597.448 836.903 597.864 835.495 597.864ZM866.081 597.864C862.113 597.864 858.977 596.232 856.673 592.968C854.369 589.64 853.217 585.16 853.217 579.528C853.217 575.368 853.889 571.368 855.233 567.528C856.577 563.688 858.337 560.264 860.513 557.256C862.753 554.248 865.217 551.88 867.905 550.152C870.657 548.36 873.409 547.464 876.161 547.464C880.129 547.464 883.265 549.096 885.569 552.36C887.873 555.624 889.025 560.104 889.025 565.8C889.025 569.96 888.353 573.96 887.009 577.8C885.665 581.64 883.873 585.064 881.633 588.072C879.457 591.08 876.993 593.48 874.241 595.272C871.553 597 868.833 597.864 866.081 597.864ZM865.889 595.56C867.937 595.56 869.921 594.568 871.841 592.584C873.825 590.6 875.617 587.976 877.217 584.712C878.817 581.448 880.097 577.832 881.057 573.864C882.017 569.832 882.497 565.8 882.497 561.768C882.497 553.768 880.417 549.768 876.257 549.768C874.273 549.768 872.289 550.76 870.305 552.744C868.321 554.664 866.529 557.256 864.929 560.52C863.393 563.784 862.145 567.432 861.185 571.464C860.225 575.432 859.745 579.432 859.745 583.464C859.745 591.528 861.793 595.56 865.889 595.56ZM917.151 597.864C914.975 597.864 913.279 597 912.063 595.272C910.847 593.544 910.655 590.76 911.487 586.92L919.455 552.168C919.647 551.208 919.263 550.728 918.303 550.728H914.655C913.759 550.728 913.311 550.312 913.311 549.48C913.311 549.032 913.471 548.68 913.791 548.424C914.111 548.168 914.495 548.04 914.943 548.04H918.399C919.871 548.04 920.735 547.368 920.991 546.024L923.295 535.752C923.487 535.048 923.935 534.696 924.639 534.696H928.575C929.471 534.696 929.823 535.112 929.631 535.944L927.231 546.6C927.039 547.56 927.423 548.04 928.383 548.04H933.855C934.943 548.04 935.487 548.456 935.487 549.288C935.487 550.248 934.815 550.728 933.471 550.728H928.287C926.879 550.728 926.015 551.4 925.695 552.744L917.631 587.88C917.311 589.288 917.343 590.408 917.727 591.24C918.175 592.008 918.911 592.392 919.935 592.392C921.407 592.392 922.751 591.56 923.967 589.896C925.247 588.232 926.591 585.064 927.999 580.392C928.255 579.56 928.671 579.144 929.247 579.144C929.695 579.144 929.983 579.336 930.111 579.72C930.239 580.104 930.143 580.808 929.823 581.832C928.607 586.184 927.263 589.512 925.791 591.816C924.383 594.12 922.943 595.72 921.471 596.616C919.999 597.448 918.559 597.864 917.151 597.864ZM964.428 597.864C962.124 597.864 960.396 596.904 959.244 594.984C958.092 593.064 958.028 590.088 959.052 586.056L966.444 558.216C967.148 555.72 967.244 553.992 966.732 553.032C966.284 552.072 965.612 551.592 964.716 551.592C963.308 551.592 961.708 552.488 959.916 554.28C958.188 556.008 956.364 558.408 954.444 561.48C952.588 564.488 950.764 567.912 948.972 571.752C947.244 575.528 945.644 579.528 944.172 583.752C942.7 587.912 941.516 591.976 940.62 595.944C940.428 596.648 939.98 597 939.276 597H935.244C934.348 597 933.996 596.584 934.188 595.752L948.204 535.56C948.524 534.408 948.524 533.608 948.204 533.16C947.948 532.712 947.372 532.456 946.476 532.392L943.596 532.104C942.636 532.04 942.22 531.624 942.348 530.856C942.476 530.28 942.924 529.928 943.692 529.8C945.996 529.416 948.044 528.968 949.836 528.456C951.628 527.88 953.068 527.144 954.156 526.248C954.668 525.864 955.148 525.672 955.596 525.672C956.364 525.672 956.652 526.152 956.46 527.112L947.052 567.912C946.988 568.36 947.084 568.616 947.34 568.68C947.596 568.744 947.82 568.584 948.012 568.2C950.572 562.952 953.004 558.824 955.308 555.816C957.612 552.808 959.756 550.664 961.74 549.384C963.788 548.104 965.644 547.464 967.308 547.464C969.676 547.464 971.404 548.424 972.492 550.344C973.58 552.264 973.58 555.208 972.492 559.176L965.196 587.016C964.748 588.808 964.716 590.152 965.1 591.048C965.484 591.944 966.188 592.392 967.212 592.392C968.492 592.392 969.74 591.56 970.956 589.896C972.172 588.168 973.484 584.936 974.892 580.2C975.084 579.496 975.5 579.144 976.14 579.144C976.652 579.144 976.94 579.336 977.004 579.72C977.132 580.104 977.132 580.552 977.004 581.064C975.788 585.416 974.476 588.84 973.068 591.336C971.66 593.768 970.22 595.464 968.748 596.424C967.34 597.384 965.9 597.864 964.428 597.864ZM991.556 597.864C988.164 597.864 985.444 596.552 983.396 593.928C981.348 591.24 980.324 587.464 980.324 582.6C980.324 578.376 981.06 574.184 982.532 570.024C984.068 565.864 986.052 562.088 988.484 558.696C990.916 555.304 993.572 552.584 996.452 550.536C999.396 548.488 1002.24 547.464 1005 547.464C1008 547.464 1010.15 548.2 1011.43 549.672C1012.77 551.08 1013.44 553 1013.44 555.432C1013.44 558.312 1012.42 561.192 1010.37 564.072C1008.39 566.888 1005.57 569.416 1001.92 571.656C998.34 573.896 994.116 575.56 989.252 576.648C987.844 576.968 987.108 577.768 987.044 579.048C986.98 579.496 986.948 579.976 986.948 580.488C986.948 580.936 986.948 581.384 986.948 581.832C986.948 585.48 987.556 588.232 988.772 590.088C990.052 591.944 991.78 592.872 993.956 592.872C996.388 592.872 998.724 591.752 1000.96 589.512C1003.27 587.272 1005.19 584.104 1006.72 580.008C1006.92 579.432 1007.3 579.144 1007.88 579.144C1008.26 579.144 1008.48 579.304 1008.55 579.624C1008.68 579.944 1008.68 580.328 1008.55 580.776C1006.5 586.408 1004 590.664 1001.06 593.544C998.18 596.424 995.012 597.864 991.556 597.864ZM988.004 573C987.876 573.448 987.94 573.832 988.196 574.152C988.516 574.408 988.9 574.472 989.348 574.344C993.316 573.256 996.644 571.624 999.332 569.448C1002.02 567.208 1004.04 564.712 1005.38 561.96C1006.79 559.208 1007.49 556.52 1007.49 553.896C1007.49 551.208 1006.44 549.864 1004.32 549.864C1002.47 549.864 1000.45 550.952 998.276 553.128C996.1 555.304 994.084 558.152 992.228 561.672C990.372 565.192 988.964 568.968 988.004 573ZM1042.01 597.864C1039.39 597.864 1037.37 596.84 1035.96 594.792C1034.56 592.744 1034.3 589.96 1035.2 586.44L1042.88 557.448C1043.71 554.44 1043.2 552.936 1041.34 552.936C1040 552.936 1038.65 553.896 1037.31 555.816C1036.03 557.736 1034.62 560.872 1033.08 565.224C1032.83 565.992 1032.38 566.376 1031.74 566.376C1031.42 566.376 1031.16 566.248 1030.97 565.992C1030.78 565.672 1030.75 565.288 1030.88 564.84C1034.59 553.256 1039.23 547.464 1044.8 547.464C1046.97 547.464 1048.44 548.36 1049.21 550.152C1049.98 551.944 1049.95 554.408 1049.12 557.544L1041.05 588.168C1040.48 590.344 1040.44 591.944 1040.96 592.968C1041.47 593.992 1042.24 594.504 1043.26 594.504C1046.4 594.504 1049.88 590.664 1053.72 582.984C1057.63 575.24 1061.05 563.944 1064 549.096C1064.19 548.392 1064.64 548.04 1065.34 548.04H1069.08C1069.98 548.04 1070.33 548.456 1070.14 549.288L1062.46 588.168C1062.01 590.28 1062.04 591.88 1062.56 592.968C1063.13 593.992 1064.03 594.504 1065.24 594.504C1067.1 594.504 1068.99 593.608 1070.91 591.816C1072.83 590.024 1074.56 587.688 1076.09 584.808C1077.69 581.928 1078.97 578.76 1079.93 575.304C1080.89 571.848 1081.37 568.456 1081.37 565.128C1081.37 562.44 1081.15 560.328 1080.7 558.792C1080.32 557.192 1079.9 555.848 1079.45 554.76C1079 553.672 1078.78 552.488 1078.78 551.208C1078.78 548.712 1079.87 547.464 1082.04 547.464C1083.58 547.464 1084.57 548.328 1085.02 550.056C1085.47 551.72 1085.69 554.248 1085.69 557.64C1085.69 562.504 1085.08 567.336 1083.87 572.136C1082.72 576.872 1081.12 581.192 1079.07 585.096C1077.08 588.936 1074.78 592.04 1072.16 594.408C1069.6 596.712 1066.88 597.864 1064 597.864C1061.24 597.864 1059.13 596.808 1057.66 594.696C1056.19 592.52 1055.87 589.384 1056.7 585.288C1056.83 584.84 1056.73 584.584 1056.41 584.52C1056.16 584.456 1055.93 584.616 1055.74 585C1053.95 588.584 1051.93 591.624 1049.69 594.12C1047.45 596.616 1044.89 597.864 1042.01 597.864ZM1102.14 597.864C1098.18 597.864 1095.04 596.232 1092.74 592.968C1090.43 589.64 1089.28 585.16 1089.28 579.528C1089.28 575.368 1089.95 571.368 1091.3 567.528C1092.64 563.688 1094.4 560.264 1096.58 557.256C1098.82 554.248 1101.28 551.88 1103.97 550.152C1106.72 548.36 1109.47 547.464 1112.22 547.464C1116.19 547.464 1119.33 549.096 1121.63 552.36C1123.94 555.624 1125.09 560.104 1125.09 565.8C1125.09 569.96 1124.42 573.96 1123.07 577.8C1121.73 581.64 1119.94 585.064 1117.7 588.072C1115.52 591.08 1113.06 593.48 1110.3 595.272C1107.62 597 1104.9 597.864 1102.14 597.864ZM1101.95 595.56C1104 595.56 1105.98 594.568 1107.9 592.584C1109.89 590.6 1111.68 587.976 1113.28 584.712C1114.88 581.448 1116.16 577.832 1117.12 573.864C1118.08 569.832 1118.56 565.8 1118.56 561.768C1118.56 553.768 1116.48 549.768 1112.32 549.768C1110.34 549.768 1108.35 550.76 1106.37 552.744C1104.38 554.664 1102.59 557.256 1100.99 560.52C1099.46 563.784 1098.21 567.432 1097.25 571.464C1096.29 575.432 1095.81 579.432 1095.81 583.464C1095.81 591.528 1097.86 595.56 1101.95 595.56ZM1133.25 597C1132.36 597 1132.01 596.584 1132.2 595.752L1141.32 557.448C1141.64 556.04 1141.67 554.952 1141.41 554.184C1141.22 553.352 1140.65 552.936 1139.69 552.936C1138.53 552.936 1137.25 553.8 1135.85 555.528C1134.5 557.192 1132.97 560.392 1131.24 565.128C1130.98 565.96 1130.53 566.376 1129.89 566.376C1128.93 566.376 1128.68 565.8 1129.13 564.648C1130.53 560.232 1132.01 556.776 1133.54 554.28C1135.14 551.784 1136.74 550.024 1138.34 549C1139.94 547.976 1141.41 547.464 1142.76 547.464C1144.87 547.464 1146.37 548.264 1147.27 549.864C1148.17 551.4 1148.2 553.96 1147.37 557.544L1146.31 562.056C1146.25 562.504 1146.34 562.76 1146.6 562.824C1146.85 562.888 1147.08 562.728 1147.27 562.344C1149.7 556.776 1151.91 552.904 1153.89 550.728C1155.88 548.552 1158.15 547.464 1160.71 547.464C1162.44 547.464 1163.72 547.944 1164.55 548.904C1165.45 549.8 1165.89 551.048 1165.89 552.648C1165.89 554.248 1165.51 555.528 1164.74 556.488C1163.97 557.448 1162.98 557.928 1161.77 557.928C1160.74 557.928 1160.01 557.672 1159.56 557.16C1159.11 556.648 1158.76 556.072 1158.5 555.432C1158.31 554.728 1158.09 554.12 1157.83 553.608C1157.57 553.096 1157.16 552.84 1156.58 552.84C1155.62 552.84 1154.37 554.056 1152.84 556.488C1151.3 558.92 1149.64 562.216 1147.85 566.376C1146.12 570.472 1144.42 575.08 1142.76 580.2C1141.16 585.32 1139.75 590.568 1138.53 595.944C1138.34 596.648 1137.89 597 1137.19 597H1133.25ZM1169.56 597.96C1167.45 597.96 1165.94 597.192 1165.05 595.656C1164.15 594.056 1164.12 591.464 1164.95 587.88L1177.14 535.56C1177.46 534.408 1177.46 533.608 1177.14 533.16C1176.89 532.712 1176.31 532.456 1175.41 532.392L1172.53 532.104C1171.57 532.04 1171.16 531.624 1171.29 530.856C1171.41 530.28 1171.86 529.928 1172.63 529.8C1174.93 529.416 1176.98 528.968 1178.77 528.456C1180.57 527.88 1182.01 527.144 1183.09 526.248C1183.61 525.864 1184.09 525.672 1184.53 525.672C1185.3 525.672 1185.59 526.152 1185.4 527.112L1171.19 587.976C1170.87 589.384 1170.81 590.504 1171 591.336C1171.25 592.104 1171.86 592.488 1172.82 592.488C1173.97 592.488 1175.22 591.656 1176.57 589.992C1177.97 588.264 1179.54 585.032 1181.27 580.296C1181.53 579.464 1181.97 579.048 1182.61 579.048C1183.57 579.048 1183.83 579.624 1183.38 580.776C1182.04 585.128 1180.53 588.584 1178.87 591.144C1177.27 593.64 1175.67 595.4 1174.07 596.424C1172.47 597.448 1170.97 597.96 1169.56 597.96ZM1194.16 597.864C1191.79 597.864 1189.96 596.872 1188.68 594.888C1187.4 592.904 1186.76 589.992 1186.76 586.152C1186.76 582.504 1187.28 578.856 1188.3 575.208C1189.32 571.496 1190.73 567.976 1192.52 564.648C1194.32 561.32 1196.33 558.376 1198.57 555.816C1200.88 553.256 1203.28 551.24 1205.77 549.768C1208.33 548.232 1210.86 547.464 1213.36 547.464C1215.08 547.464 1216.59 547.912 1217.87 548.808C1218.76 549.384 1219.31 549.192 1219.5 548.232L1222.57 535.56C1222.89 534.408 1222.89 533.608 1222.57 533.16C1222.32 532.712 1221.74 532.456 1220.84 532.392L1217.96 532.104C1217 532.04 1216.59 531.624 1216.72 530.856C1216.84 530.28 1217.29 529.928 1218.06 529.8C1220.36 529.416 1222.41 528.968 1224.2 528.456C1226 527.88 1227.44 527.144 1228.52 526.248C1229.04 525.864 1229.52 525.672 1229.96 525.672C1230.73 525.672 1231.02 526.152 1230.83 527.112L1217.2 586.152C1216.24 590.312 1216.88 592.392 1219.12 592.392C1220.59 592.392 1221.9 591.4 1223.05 589.416C1224.27 587.432 1225.48 584.36 1226.7 580.2C1226.89 579.496 1227.31 579.144 1227.95 579.144C1228.4 579.144 1228.68 579.336 1228.81 579.72C1228.94 580.104 1228.94 580.552 1228.81 581.064C1227.6 587.08 1225.9 591.4 1223.72 594.024C1221.61 596.584 1219.12 597.864 1216.24 597.864C1213.74 597.864 1211.95 596.808 1210.86 594.696C1209.84 592.584 1209.74 589.704 1210.57 586.056L1211.63 581.64C1211.76 581.192 1211.66 580.936 1211.34 580.872C1211.08 580.808 1210.86 580.968 1210.67 581.352C1207.6 587.368 1204.68 591.624 1201.93 594.12C1199.18 596.616 1196.59 597.864 1194.16 597.864ZM1196.46 592.968C1198 592.968 1199.69 592.04 1201.55 590.184C1203.4 588.328 1205.23 585.928 1207.02 582.984C1208.88 580.04 1210.57 576.872 1212.11 573.48C1213.64 570.088 1214.86 566.824 1215.76 563.688C1216.72 560.552 1217.2 557.896 1217.2 555.72C1217.2 551.816 1215.82 549.864 1213.07 549.864C1211.4 549.864 1209.64 550.632 1207.79 552.168C1205.93 553.64 1204.14 555.656 1202.41 558.216C1200.75 560.776 1199.21 563.688 1197.8 566.952C1196.46 570.152 1195.37 573.512 1194.54 577.032C1193.71 580.488 1193.29 583.88 1193.29 587.208C1193.29 589.448 1193.58 590.984 1194.16 591.816C1194.8 592.584 1195.56 592.968 1196.46 592.968ZM1236.94 597.864C1235.59 597.864 1234.5 597.448 1233.67 596.616C1232.84 595.72 1232.42 594.632 1232.42 593.352C1232.42 591.688 1233 590.344 1234.15 589.32C1235.3 588.296 1236.52 587.784 1237.8 587.784C1239.08 587.784 1240.14 588.232 1240.97 589.128C1241.86 589.96 1242.31 591.016 1242.31 592.296C1242.31 593.96 1241.74 595.304 1240.58 596.328C1239.43 597.352 1238.22 597.864 1236.94 597.864Z" fill="white"/>
<path d="M1668.01 730V689.2H1670.65L1670.77 698.5L1670.17 698.14C1670.97 695.06 1672.37 692.68 1674.37 691C1676.41 689.32 1678.81 688.48 1681.57 688.48C1684.41 688.48 1686.81 689.2 1688.77 690.64C1690.77 692.04 1692.27 694 1693.27 696.52C1694.31 699 1694.83 701.86 1694.83 705.1C1694.83 708.34 1694.31 711.22 1693.27 713.74C1692.27 716.22 1690.79 718.18 1688.83 719.62C1686.87 721.02 1684.49 721.72 1681.69 721.72C1679.81 721.72 1678.07 721.3 1676.47 720.46C1674.87 719.58 1673.53 718.44 1672.45 717.04C1671.37 715.64 1670.69 714.14 1670.41 712.54L1670.89 711.82V730H1668.01ZM1681.51 718.9C1684.71 718.9 1687.23 717.68 1689.07 715.24C1690.91 712.76 1691.83 709.38 1691.83 705.1C1691.83 700.82 1690.89 697.46 1689.01 695.02C1687.17 692.54 1684.65 691.3 1681.45 691.3C1679.37 691.3 1677.53 691.88 1675.93 693.04C1674.37 694.2 1673.13 695.82 1672.21 697.9C1671.33 699.98 1670.89 702.38 1670.89 705.1C1670.89 707.82 1671.33 710.22 1672.21 712.3C1673.13 714.38 1674.39 716 1675.99 717.16C1677.59 718.32 1679.43 718.9 1681.51 718.9ZM1702.11 721V689.2H1704.99V721H1702.11ZM1701.99 683.62V678.88H1705.11V683.62H1701.99ZM1726.18 721.72C1723.18 721.72 1720.64 721 1718.56 719.56C1716.52 718.08 1714.96 716.08 1713.88 713.56C1712.84 711.04 1712.32 708.22 1712.32 705.1C1712.32 701.98 1712.84 699.18 1713.88 696.7C1714.96 694.18 1716.52 692.18 1718.56 690.7C1720.64 689.22 1723.18 688.48 1726.18 688.48C1728.58 688.48 1730.66 688.94 1732.42 689.86C1734.22 690.78 1735.68 692.04 1736.8 693.64C1737.92 695.24 1738.72 697.1 1739.2 699.22L1736.14 699.46C1735.54 696.86 1734.4 694.86 1732.72 693.46C1731.04 692.02 1728.86 691.3 1726.18 691.3C1722.86 691.3 1720.22 692.54 1718.26 695.02C1716.34 697.46 1715.38 700.82 1715.38 705.1C1715.38 709.38 1716.34 712.76 1718.26 715.24C1720.22 717.68 1722.86 718.9 1726.18 718.9C1728.86 718.9 1731.08 718.14 1732.84 716.62C1734.6 715.1 1735.74 712.94 1736.26 710.14L1739.32 710.38C1738.88 712.58 1738.08 714.54 1736.92 716.26C1735.8 717.94 1734.32 719.28 1732.48 720.28C1730.68 721.24 1728.58 721.72 1726.18 721.72ZM1755.1 721.72C1751.98 721.72 1749.46 720.96 1747.54 719.44C1745.66 717.88 1744.72 715.78 1744.72 713.14C1744.72 710.66 1745.58 708.68 1747.3 707.2C1749.06 705.68 1751.46 704.64 1754.5 704.08L1766.8 701.8C1766.8 698.12 1766.06 695.46 1764.58 693.82C1763.1 692.14 1760.86 691.3 1757.86 691.3C1755.18 691.3 1753.04 691.96 1751.44 693.28C1749.84 694.56 1748.82 696.42 1748.38 698.86L1745.26 698.62C1745.82 695.46 1747.18 692.98 1749.34 691.18C1751.54 689.38 1754.38 688.48 1757.86 688.48C1761.66 688.48 1764.58 689.58 1766.62 691.78C1768.66 693.94 1769.68 697.16 1769.68 701.44V714.88C1769.68 716.24 1769.88 717.16 1770.28 717.64C1770.72 718.08 1771.36 718.3 1772.2 718.3H1772.86V721C1772.7 721.04 1772.52 721.06 1772.32 721.06C1772.12 721.06 1771.9 721.06 1771.66 721.06C1770.58 721.06 1769.66 720.86 1768.9 720.46C1768.18 720.06 1767.62 719.34 1767.22 718.3C1766.86 717.26 1766.68 715.8 1766.68 713.92L1767.16 713.98C1766.72 715.34 1765.92 716.62 1764.76 717.82C1763.64 719.02 1762.24 719.98 1760.56 720.7C1758.92 721.38 1757.1 721.72 1755.1 721.72ZM1755.34 719.02C1757.58 719.02 1759.56 718.56 1761.28 717.64C1763 716.72 1764.34 715.46 1765.3 713.86C1766.3 712.26 1766.8 710.46 1766.8 708.46V704.38L1755.16 706.6C1752.76 707.04 1750.92 707.78 1749.64 708.82C1748.4 709.82 1747.78 711.18 1747.78 712.9C1747.78 714.86 1748.44 716.38 1749.76 717.46C1751.08 718.5 1752.94 719.02 1755.34 719.02ZM1790.87 721.72C1788.07 721.72 1785.63 721.04 1783.55 719.68C1781.47 718.32 1779.85 716.4 1778.69 713.92C1777.57 711.44 1777.01 708.5 1777.01 705.1C1777.01 701.7 1777.57 698.76 1778.69 696.28C1779.85 693.8 1781.47 691.88 1783.55 690.52C1785.63 689.16 1788.07 688.48 1790.87 688.48C1793.67 688.48 1796.11 689.16 1798.19 690.52C1800.27 691.88 1801.87 693.8 1802.99 696.28C1804.15 698.76 1804.73 701.7 1804.73 705.1C1804.73 708.5 1804.15 711.44 1802.99 713.92C1801.87 716.4 1800.27 718.32 1798.19 719.68C1796.11 721.04 1793.67 721.72 1790.87 721.72ZM1790.87 718.9C1794.23 718.9 1796.87 717.68 1798.79 715.24C1800.71 712.76 1801.67 709.38 1801.67 705.1C1801.67 700.82 1800.71 697.46 1798.79 695.02C1796.87 692.54 1794.23 691.3 1790.87 691.3C1787.51 691.3 1784.87 692.54 1782.94 695.02C1781.03 697.46 1780.07 700.82 1780.07 705.1C1780.07 709.38 1781.03 712.76 1782.94 715.24C1784.87 717.68 1787.51 718.9 1790.87 718.9ZM1823.08 721.72C1820.4 721.72 1818.1 721.28 1816.18 720.4C1814.26 719.48 1812.76 718.26 1811.68 716.74C1810.6 715.18 1810 713.42 1809.88 711.46L1812.88 711.16C1813.08 713.48 1814.06 715.36 1815.82 716.8C1817.58 718.2 1820 718.9 1823.08 718.9C1825.92 718.9 1828.1 718.42 1829.62 717.46C1831.14 716.46 1831.9 714.98 1831.9 713.02C1831.9 711.98 1831.66 711.08 1831.18 710.32C1830.74 709.56 1829.82 708.9 1828.42 708.34C1827.02 707.74 1824.9 707.2 1822.06 706.72C1819.06 706.2 1816.74 705.56 1815.1 704.8C1813.5 704 1812.38 703.04 1811.74 701.92C1811.14 700.76 1810.84 699.38 1810.84 697.78C1810.84 695.02 1811.84 692.78 1813.84 691.06C1815.88 689.34 1818.62 688.48 1822.06 688.48C1824.46 688.48 1826.48 688.92 1828.12 689.8C1829.8 690.68 1831.14 691.86 1832.14 693.34C1833.14 694.78 1833.8 696.38 1834.12 698.14L1831.12 698.5C1830.92 697.22 1830.44 696.04 1829.68 694.96C1828.96 693.84 1827.96 692.96 1826.68 692.32C1825.4 691.64 1823.86 691.3 1822.06 691.3C1819.5 691.3 1817.5 691.86 1816.06 692.98C1814.62 694.1 1813.9 695.68 1813.9 697.72C1813.9 699 1814.16 700.04 1814.68 700.84C1815.2 701.64 1816.12 702.3 1817.44 702.82C1818.76 703.3 1820.6 703.74 1822.96 704.14C1826.04 704.66 1828.44 705.3 1830.16 706.06C1831.88 706.82 1833.1 707.76 1833.82 708.88C1834.54 710 1834.9 711.36 1834.9 712.96C1834.9 714.84 1834.42 716.44 1833.46 717.76C1832.5 719.04 1831.14 720.02 1829.38 720.7C1827.62 721.38 1825.52 721.72 1823.08 721.72ZM1840.64 721V716.14H1845.26V721H1840.64ZM1864.87 721.72C1861.87 721.72 1859.33 721 1857.25 719.56C1855.21 718.08 1853.65 716.08 1852.57 713.56C1851.53 711.04 1851.01 708.22 1851.01 705.1C1851.01 701.98 1851.53 699.18 1852.57 696.7C1853.65 694.18 1855.21 692.18 1857.25 690.7C1859.33 689.22 1861.87 688.48 1864.87 688.48C1867.27 688.48 1869.35 688.94 1871.11 689.86C1872.91 690.78 1874.37 692.04 1875.49 693.64C1876.61 695.24 1877.41 697.1 1877.89 699.22L1874.83 699.46C1874.23 696.86 1873.09 694.86 1871.41 693.46C1869.73 692.02 1867.55 691.3 1864.87 691.3C1861.55 691.3 1858.91 692.54 1856.95 695.02C1855.03 697.46 1854.07 700.82 1854.07 705.1C1854.07 709.38 1855.03 712.76 1856.95 715.24C1858.91 717.68 1861.55 718.9 1864.87 718.9C1867.55 718.9 1869.77 718.14 1871.53 716.62C1873.29 715.1 1874.43 712.94 1874.95 710.14L1878.01 710.38C1877.57 712.58 1876.77 714.54 1875.61 716.26C1874.49 717.94 1873.01 719.28 1871.17 720.28C1869.37 721.24 1867.27 721.72 1864.87 721.72ZM1896.45 721.72C1893.65 721.72 1891.21 721.04 1889.13 719.68C1887.05 718.32 1885.43 716.4 1884.27 713.92C1883.15 711.44 1882.59 708.5 1882.59 705.1C1882.59 701.7 1883.15 698.76 1884.27 696.28C1885.43 693.8 1887.05 691.88 1889.13 690.52C1891.21 689.16 1893.65 688.48 1896.45 688.48C1899.25 688.48 1901.69 689.16 1903.77 690.52C1905.85 691.88 1907.45 693.8 1908.57 696.28C1909.73 698.76 1910.31 701.7 1910.31 705.1C1910.31 708.5 1909.73 711.44 1908.57 713.92C1907.45 716.4 1905.85 718.32 1903.77 719.68C1901.69 721.04 1899.25 721.72 1896.45 721.72ZM1896.45 718.9C1899.81 718.9 1902.45 717.68 1904.37 715.24C1906.29 712.76 1907.25 709.38 1907.25 705.1C1907.25 700.82 1906.29 697.46 1904.37 695.02C1902.45 692.54 1899.81 691.3 1896.45 691.3C1893.09 691.3 1890.45 692.54 1888.53 695.02C1886.61 697.46 1885.65 700.82 1885.65 705.1C1885.65 709.38 1886.61 712.76 1888.53 715.24C1890.45 717.68 1893.09 718.9 1896.45 718.9ZM1917.56 721V689.2H1920.26L1920.44 698.26L1919.96 697.6C1920.16 695.84 1920.72 694.28 1921.64 692.92C1922.6 691.56 1923.82 690.48 1925.3 689.68C1926.78 688.88 1928.4 688.48 1930.16 688.48C1932.68 688.48 1934.76 689.4 1936.4 691.24C1938.08 693.04 1939.08 695.5 1939.4 698.62L1938.62 698.44C1938.9 696.36 1939.52 694.6 1940.48 693.16C1941.44 691.68 1942.66 690.54 1944.14 689.74C1945.62 688.9 1947.28 688.48 1949.12 688.48C1951.16 688.48 1952.9 688.98 1954.34 689.98C1955.82 690.98 1956.96 692.4 1957.76 694.24C1958.56 696.08 1958.96 698.22 1958.96 700.66V721H1956.08V701.98C1956.08 698.58 1955.42 695.94 1954.1 694.06C1952.78 692.14 1950.94 691.18 1948.58 691.18C1946.86 691.18 1945.32 691.66 1943.96 692.62C1942.6 693.58 1941.52 694.9 1940.72 696.58C1939.96 698.26 1939.58 700.18 1939.58 702.34V721H1936.7V701.98C1936.7 698.62 1936.08 695.98 1934.84 694.06C1933.64 692.14 1931.86 691.18 1929.5 691.18C1927.78 691.18 1926.24 691.64 1924.88 692.56C1923.52 693.48 1922.44 694.76 1921.64 696.4C1920.84 698.04 1920.44 699.9 1920.44 701.98V721H1917.56Z" fill="white"/>
</g>
<defs>
<filter id="filter0_f_4721_35" x="-96" y="50" width="1791" height="1703" filterUnits="userSpaceOnUse" color-interpolation-filters="sRGB">
<feFlood flood-opacity="0" result="BackgroundImageFix"/>
<feBlend mode="normal" in="SourceGraphic" in2="BackgroundImageFix" result="shape"/>
<feGaussianBlur stdDeviation="200" result="effect1_foregroundBlur_4721_35"/>
</filter>
<filter id="filter1_f_4721_35" x="489" y="105" width="1875" height="1814" filterUnits="userSpaceOnUse" color-interpolation-filters="sRGB">
<feFlood flood-opacity="0" result="BackgroundImageFix"/>
<feBlend mode="normal" in="SourceGraphic" in2="BackgroundImageFix" result="shape"/>
<feGaussianBlur stdDeviation="200" result="effect1_foregroundBlur_4721_35"/>
</filter>
<filter id="filter2_f_4721_35" x="399" y="-648" width="2173" height="1769" filterUnits="userSpaceOnUse" color-interpolation-filters="sRGB">
<feFlood flood-opacity="0" result="BackgroundImageFix"/>
<feBlend mode="normal" in="SourceGraphic" in2="BackgroundImageFix" result="shape"/>
<feGaussianBlur stdDeviation="200" result="effect1_foregroundBlur_4721_35"/>
</filter>
<linearGradient id="paint0_linear_4721_35" x1="1485.5" y1="-248" x2="1485.5" y2="721" gradientUnits="userSpaceOnUse">
<stop stop-color="#FD53A5"/>
<stop offset="1" stop-color="#FD53A5" stop-opacity="0.78"/>
</linearGradient>
<clipPath id="clip0_4721_35">
<rect width="1995" height="765" fill="white"/>
</clipPath>
</defs>
</svg>
