<svg width="66" height="66" viewBox="0 0 66 66" fill="none" xmlns="http://www.w3.org/2000/svg">
<circle cx="32.9183" cy="32.9183" r="32.9183" fill="#F5F5F5"/>
<path d="M44.5648 21H22.4352C16.1298 21 11 26.1589 11 32.5C11 38.8411 16.1298 44 22.4352 44H44.5648C50.8701 44 56 38.8411 56 32.5C56 26.1589 50.8701 21 44.5648 21ZM33.6498 39.0297C33.285 39.1056 32.8745 39.1194 32.5955 38.8262C32.4925 39.0642 32.2524 38.9388 32.0671 38.9078C32.05 38.9561 32.0351 38.9986 32.0191 39.0469C31.4028 39.0884 30.9408 38.4559 30.6469 37.9786C30.0637 37.6612 29.4016 37.468 28.8058 37.1356C28.7715 37.6831 28.8905 38.3616 28.3724 38.7146C28.3461 39.7668 29.9551 38.8388 30.1026 39.6231C29.9882 39.6357 29.8613 39.6047 29.7698 39.6932C29.3501 40.1038 28.8687 39.3828 28.385 39.6806C27.7355 40.0095 27.6703 40.2786 26.8664 40.3464C26.8218 40.2786 26.8401 40.2337 26.8778 40.1923C27.1043 39.9278 27.1203 39.6162 27.5068 39.5035C27.1089 39.4402 26.776 39.6611 26.441 39.8358C26.0053 40.0152 26.0088 39.431 25.3387 39.8669C25.2643 39.8059 25.2998 39.7507 25.3421 39.7036C25.5125 39.4943 25.7366 39.4632 25.9893 39.4748C24.7463 38.7778 24.1608 40.3269 23.5868 39.5564C23.4141 39.6024 23.3489 39.7588 23.2403 39.8692C23.1465 39.7657 23.2174 39.6403 23.222 39.5184C23.1099 39.4655 22.9681 39.4402 23.0013 39.2597C22.7817 39.1849 22.6285 39.316 22.465 39.4402C22.3175 39.3252 22.5645 39.1573 22.6102 39.0377C22.7417 38.8077 23.0413 38.9906 23.1934 38.825C23.6257 38.5777 24.2283 38.9791 24.7223 38.9113C25.1031 38.9595 25.5742 38.5662 25.3832 38.1741C24.9762 37.6509 25.0482 36.9666 25.039 36.341C24.9887 35.9764 24.1185 35.5118 23.867 35.1185C23.5559 34.7643 23.3135 34.3538 23.0711 33.9502C22.1962 32.247 22.4718 30.0585 21.3695 28.4773C20.8709 28.7545 20.2214 28.6234 19.7914 28.2519C19.5593 28.4646 19.549 28.7429 19.5307 29.0385C18.9738 28.4785 19.0436 27.4204 19.4884 26.7971C19.6702 26.551 19.8875 26.3486 20.1299 26.1704C20.1848 26.1301 20.2031 26.091 20.2019 26.0289C20.6422 24.0371 23.6451 24.4212 24.5942 25.8323C25.2826 26.7006 25.4908 27.8494 26.2718 28.6556C27.3226 29.8124 28.5199 30.8313 29.4896 32.063C30.4067 33.1888 31.062 34.509 31.6337 35.8396C31.867 36.2812 31.8693 36.8228 32.2147 37.2C32.385 37.4278 33.2175 38.0476 33.0369 38.2672C33.1409 38.4949 33.9185 38.8089 33.6486 39.0297H33.6498ZM48.2343 32.2355L46.5431 33.9363C46.0925 34.3895 45.5356 34.7275 44.9318 34.9127L44.9009 34.9219L44.8895 34.9518C44.6928 35.4739 44.3943 35.9396 44.001 36.3341L42.3097 38.0349C41.5721 38.7767 40.591 39.1849 39.5458 39.1849C38.5006 39.1849 37.5195 38.7767 36.7819 38.0349C35.2576 36.502 35.2576 34.0088 36.7819 32.4758L38.4732 30.775C38.926 30.3196 39.4681 29.9919 40.0821 29.8021L40.113 29.7929L40.1244 29.763C40.3211 29.2409 40.6207 28.774 41.0153 28.3761L42.7065 26.6753C43.4441 25.9335 44.4252 25.5252 45.4704 25.5252C46.5156 25.5252 47.4967 25.9335 48.2343 26.6753C48.9719 27.417 49.3778 28.4037 49.3778 29.4548C49.3778 30.5059 48.9719 31.4937 48.2343 32.2344V32.2355Z" fill="black"/>
<path d="M45.8534 27C45.28 27 44.7408 27.2261 44.3372 27.6369L42.7065 29.2926C42.2665 29.7393 42.0405 30.3595 42.0868 30.9953C42.0901 31.03 42.0934 31.0647 42.0968 31.1005C42.1552 31.5886 42.3658 32.0285 42.7065 32.3733C42.9414 32.6118 43.2004 32.7629 43.5147 32.8681C43.5312 32.9644 43.54 33.0618 43.54 33.1592C43.54 33.598 43.3725 34.01 43.0681 34.3189L42.9678 34.4208C42.4231 34.2316 41.9688 33.9551 41.5587 33.5387C41.014 32.9856 40.6534 32.2871 40.5178 31.5203L40.4991 31.4139L40.4164 31.4823C40.3602 31.5281 40.3072 31.5774 40.2576 31.6277L38.6268 33.2834C37.7911 34.132 37.7911 35.5145 38.6268 36.363C39.0447 36.7873 39.5938 37 40.144 37C40.6942 37 41.2422 36.7873 41.6601 36.363L43.2909 34.7074C44.1267 33.8588 44.1267 32.4774 43.2909 31.6277C43.0681 31.4017 42.8024 31.2315 42.5014 31.1218C42.4849 31.0221 42.476 30.9225 42.476 30.8251C42.476 30.3482 42.6613 29.896 43.0009 29.5512C43.5467 29.7404 44.0307 30.0471 44.4398 30.4624C44.9834 31.0143 45.3429 31.7117 45.4806 32.4808L45.4994 32.5871L45.5821 32.5188C45.6384 32.473 45.6913 32.4237 45.742 32.3722L47.3728 30.7166C48.2085 29.868 48.2096 28.4855 47.3728 27.6369C46.9681 27.2261 46.43 27 45.8556 27H45.8534Z" fill="black"/>
</svg>
