<svg width="66" height="66" viewBox="0 0 66 66" fill="none" xmlns="http://www.w3.org/2000/svg">
<circle cx="32.9183" cy="32.9183" r="32.9183" fill="#F5F5F5"/>
<path fill-rule="evenodd" clip-rule="evenodd" d="M39.7026 17.0034C38.89 16.2197 37.8008 15.7812 36.6669 15.7812C35.533 15.7812 34.4439 16.2197 33.6313 17.0034L17.4423 32.7366C17.1714 32.9975 16.8085 33.1435 16.4307 33.1435C16.0529 33.1435 15.69 32.9975 15.4191 32.7366C15.2865 32.6088 15.1811 32.4559 15.1091 32.287C15.0371 32.1181 15 31.9366 15 31.7533C15 31.5699 15.0371 31.3884 15.1091 31.2195C15.1811 31.0506 15.2865 30.8978 15.4191 30.7699L31.6081 15.0367C32.9623 13.7307 34.7773 13 36.6669 13C38.5566 13 40.3716 13.7307 41.7258 15.0367C42.5094 15.7919 43.1013 16.7202 43.4533 17.7457C43.8052 18.7712 43.9071 19.8647 43.7507 20.9367C44.8468 20.7822 45.9641 20.8792 47.0164 21.2201C48.0687 21.5611 49.028 22.137 49.8203 22.9033L49.9044 22.9867C50.5675 23.6258 51.0946 24.3902 51.4546 25.2347C51.8145 26.0792 52 26.9866 52 27.9033C52 28.82 51.8145 29.7274 51.4546 30.5719C51.0946 31.4164 50.5675 32.1808 49.9044 32.8199L35.2626 47.0481C35.2184 47.0907 35.1833 47.1416 35.1593 47.1979C35.1353 47.2541 35.123 47.3146 35.123 47.3756C35.123 47.4367 35.1353 47.4971 35.1593 47.5534C35.1833 47.6096 35.2184 47.6606 35.2626 47.7031L38.2697 50.6264C38.4023 50.7543 38.5077 50.9071 38.5797 51.076C38.6517 51.2449 38.6888 51.4264 38.6888 51.6098C38.6888 51.7931 38.6517 51.9746 38.5797 52.1435C38.5077 52.3124 38.4023 52.4653 38.2697 52.5931C37.9988 52.854 37.6359 53 37.2581 53C36.8803 53 36.5174 52.854 36.2465 52.5931L33.2394 49.6714C32.9297 49.3732 32.6835 49.0164 32.5154 48.6222C32.3473 48.228 32.2606 47.8044 32.2606 47.3765C32.2606 46.9485 32.3473 46.5249 32.5154 46.1307C32.6835 45.7365 32.9297 45.3797 33.2394 45.0815L47.8812 30.8516C48.2788 30.468 48.5949 30.0093 48.8108 29.5027C49.0266 28.996 49.1378 28.4516 49.1378 27.9016C49.1378 27.3517 49.0266 26.8073 48.8108 26.3006C48.5949 25.7939 48.2788 25.3353 47.8812 24.9517L47.7971 24.87C46.9854 24.0871 45.8977 23.6486 44.765 23.6477C43.6323 23.6467 42.5438 24.0834 41.7308 24.865L29.669 36.5882L29.6656 36.5916L29.5008 36.7532C29.2298 37.0147 28.8666 37.161 28.4884 37.161C28.1102 37.161 27.7469 37.0147 27.4759 36.7532C27.3433 36.6254 27.2379 36.4725 27.1659 36.3036C27.0939 36.1347 27.0568 35.9532 27.0568 35.7699C27.0568 35.5866 27.0939 35.4051 27.1659 35.2362C27.2379 35.0673 27.3433 34.9144 27.4759 34.7866L39.7076 22.8983C40.1042 22.5145 40.4193 22.0559 40.6342 21.5495C40.8491 21.0431 40.9596 20.4992 40.9592 19.9498C40.9587 19.4005 40.8473 18.8567 40.6315 18.3507C40.4157 17.8447 40.0998 17.3866 39.7026 17.0034Z" fill="black"/>
<path fill-rule="evenodd" clip-rule="evenodd" d="M37.3504 20.383C37.4851 20.2547 37.5922 20.1012 37.6654 19.9317C37.7385 19.7622 37.7762 19.5801 37.7762 19.3961C37.7762 19.2121 37.7385 19.0299 37.6654 18.8604C37.5922 18.6909 37.4851 18.5375 37.3504 18.4092C37.075 18.1468 36.706 18 36.3217 18C35.9375 18 35.5684 18.1468 35.2931 18.4092L23.1291 30.0878C22.4554 30.7292 21.9198 31.4964 21.5541 32.3439C21.1884 33.1914 21 34.1021 21 35.0222C21 35.9422 21.1884 36.8529 21.5541 37.7004C21.9198 38.548 22.4554 39.3151 23.1291 39.9566C24.5052 41.2669 26.3491 42 28.2688 42C30.1885 42 32.0324 41.2669 33.4085 39.9566L45.5742 28.278C45.7089 28.1497 45.816 27.9962 45.8892 27.8267C45.9623 27.6572 46 27.4751 46 27.2911C46 27.1071 45.9623 26.9249 45.8892 26.7554C45.816 26.5859 45.7089 26.4325 45.5742 26.3042C45.2989 26.0418 44.9298 25.895 44.5456 25.895C44.1613 25.895 43.7923 26.0418 43.5169 26.3042L31.3529 37.9828C30.5274 38.7694 29.4208 39.2095 28.2688 39.2095C27.1168 39.2095 26.0102 38.7694 25.1847 37.9828C24.7806 37.5978 24.4595 37.1375 24.2402 36.629C24.0209 36.1205 23.9079 35.5741 23.9079 35.0222C23.9079 34.4702 24.0209 33.9239 24.2402 33.4154C24.4595 32.9069 24.7806 32.4465 25.1847 32.0616L37.3504 20.383Z" fill="black"/>
</svg>
