<svg width="66" height="66" viewBox="0 0 66 66" fill="none" xmlns="http://www.w3.org/2000/svg">
<circle cx="32.9183" cy="32.9183" r="32.9183" fill="#F5F5F5"/>
<path d="M55.5737 19.8079H55.1386C52.8485 19.8044 50.99 21.659 50.99 23.9487V33.2095C50.99 35.0588 49.4615 36.5568 47.6423 36.5568C46.5614 36.5568 45.4824 36.0128 44.8421 35.0998L35.3839 21.5912C34.5992 20.4695 33.3222 19.8008 31.9399 19.8008C29.7836 19.8008 27.8431 21.634 27.8431 23.8971V33.2113C27.8431 35.0606 26.3271 36.5585 24.4954 36.5585C23.411 36.5585 22.3337 36.0146 21.6934 35.1016L11.1098 19.9845C10.8708 19.642 10.334 19.8115 10.334 20.2288V28.3054C10.334 28.7138 10.4588 29.1097 10.6925 29.4449L21.1084 44.3195C21.7237 45.1987 22.6316 45.8514 23.6785 46.0886C26.2986 46.6842 28.7099 44.6673 28.7099 42.0975V32.7886C28.7099 30.9393 30.2081 29.4413 32.0576 29.4413H32.0629C33.1777 29.4413 34.2228 29.9853 34.8631 30.8983L44.3231 44.4051C45.1097 45.5286 46.3207 46.1956 47.7654 46.1956C49.9698 46.1956 51.8586 44.3605 51.8586 42.0993V32.7869C51.8586 30.9376 53.3568 29.4396 55.2063 29.4396H55.5755C55.8074 29.4396 55.9947 29.2523 55.9947 29.0205V20.227C55.9947 19.9952 55.8074 19.8079 55.5755 19.8079H55.5737Z" fill="#0B100F"/>
</svg>
